<?xml version="1.0" encoding="utf-8"?>
<!-- Generator: Adobe Illustrator 16.0.4, SVG Export Plug-In . SVG Version: 6.00 Build 0)  -->
<!DOCTYPE svg PUBLIC "-//W3C//DTD SVG 1.1//EN" "http://www.w3.org/Graphics/SVG/1.1/DTD/svg11.dtd">
<svg version="1.1" xmlns="http://www.w3.org/2000/svg" xmlns:xlink="http://www.w3.org/1999/xlink" x="0px" y="0px" width="640px"
	 height="900px" viewBox="0 0 640 900" enable-background="new 0 0 640 900" xml:space="preserve">
<g id="Optimistic" display="none">
	<g display="inline">
		<g>
			<path fill="#FFFFFF" d="M177.099,98.841c3.208,0,14.901,2.39,14.901-2.275c0-24.906,0-45.808,0-70.708
				c-16-9.792-16,5.353-16,16.312c0,20.465,0,33.927,0,54.395C176,98.155,174.452,99.612,177.099,98.841z"/>
			<path fill="#FFFFFF" d="M176.551,98.841C173.888,99.612,177.828,98.841,176.551,98.841L176.551,98.841z"/>
			<path fill="#FFFFFF" d="M126.067,79.622C124.522,79.229,126.067,79.88,126.067,79.622L126.067,79.622z"/>
			<path fill="#FFFFFF" d="M126.067,79.622c0,9.767,11.334,19.981,13.522,29.265c4.682,0.152,14.126-5.423,17.702-7.702
				c-0.082-2.9-13.595-35.223-16.176-34.661c-0.005-1.125-15.799,5.831-16.768,7.704C122.667,75.221,124.522,79.229,126.067,79.622z
				"/>
			<path fill="#FFFFFF" d="M61.185,78.852C60.541,78.991,61.625,79.957,61.185,78.852L61.185,78.852z"/>
			<path fill="#FFFFFF" d="M61.185,78.852c1.853,0.583,4.189,1.61,4.002,3.081C65.958,82.118,69,83.202,69,83.473
				c0,0.255,0,0.513,0,0.766c0,0.303,1.582,1.687,1.582,3.085c3.915,0.937,26.972,24.09,26.972,27.724
				c2.352,0.568,11.944,9.717,11.944,12.324c1.535,0.431,1.27,2.962,4.257,2.292c1.303-4.306,3.453-6.362,6.659-6.18
				c1.18-2.082,2.683-3.869,4.573-5.365c2.938-0.805-20.283-25.257-23.132-26.947c-0.457-4.984-25.359-28.771-30.045-29.268
				c-4.254,4.127-15.2,9.135-11.461,16.175C60.392,78.552,60.541,78.991,61.185,78.852z"/>
			<path fill="#FFFFFF" d="M220.451,105.788c0.088,0.004,0.132,0.008,0.152,0.015c3.274,0.208,4.682,2.481,8.316,2.298
				c3.773-10.792,11.903-25.9,11.903-36.951c-6.319,0.708-12.342-5.428-18.837-5.428c-3.413,10.023-12.386,25.432-12.317,36.233
				C209.979,102.114,218.557,105.957,220.451,105.788z"/>
			<path fill="#FFFFFF" d="M220.603,105.803c-0.053,0-0.104-0.011-0.152-0.015C218.387,105.974,220.904,105.857,220.603,105.803z"/>
			<path fill="#FFFFFF" d="M245.863,121.976C244.543,122.011,246.822,123.592,245.863,121.976L245.863,121.976z"/>
			<path fill="#FFFFFF" d="M245.863,121.976c0.392,0.667,6.503,6.417,6.503,6.936c1.543,1.04,2.38,3.093,5.991,2.313
				c8.776-9.931,18.873-18.573,27.641-28.5c9.217-3.58,14.223-20.524,23.798-23.104c0.157-4.163-8.854-15.745-13.105-15.41
				c-9.109,4.646-55.895,52.554-53.141,56.229C243.871,121.402,244.543,122.011,245.863,121.976z"/>
			<path fill="#FFFFFF" d="M61.793,152.019C56.152,149.96,62.444,153.164,61.793,152.019L61.793,152.019z"/>
			<path fill="#FFFFFF" d="M95.849,162.8c2.498-0.471,7.787-17.798,4.447-18.52c-5.709,0-31.291-15.863-35.42-9.987
				c-0.934,3.986-8.953,15.581-3.083,17.725C64.354,156.508,91.298,164.411,95.849,162.8z"/>
			<path fill="#FFFFFF" d="M291.304,155.063C290.603,156.602,291.559,155.063,291.304,155.063L291.304,155.063z"/>
			<path fill="#FFFFFF" d="M298.237,129.676c-11.011-0.68-23.009,16.918-33.882,15.392c1.394,3.702,3.584,16.041,8.003,18.167
				c1.919,0.918,17.646-5.308,18.946-8.171c4.905,0,9.344-6.159,13.864-6.159C310.173,148.904,300.561,131.165,298.237,129.676z"/>
			<path fill="#FFFFFF" d="M351.378,179.714c0.158,0.481,0.273,0.996,0.388,1.519C351.705,180.871,351.585,180.368,351.378,179.714z
				"/>
			<path fill="#FFFFFF" d="M351.766,181.232c0.376,2.625-2.638-1.519-0.388-1.519c-7.713,0-73.831-4.217-75.479,0.786
				c-0.182,0.397,0.888,0.978,0.68,1.663c0.065,0.046,1.421,0.07,1.421,0.106c0-0.045,0-0.08,0-0.131
				c0-0.029-1.258-0.053-1.258-0.079c0,0.024-0.635,0.05-0.635,0.079c0,0.01-0.321,0.021-0.308,0.031
				c0.272,0.262,0.091,0.292-0.18,0.1c-0.163,4.388-5.562,21.062,4.975,18.236c22.156,0,50.007,4.68,71.594-0.771
				C351.775,193.837,352.85,186.564,351.766,181.232z"/>
			<path fill="#FFFFFF" d="M91.825,199.753C91.009,201.499,93.51,199.637,91.825,199.753L91.825,199.753z"/>
			<path fill="#FFFFFF" d="M90.865,199.753c3.392-0.23,1.275-17.062,0.287-19.264c-6.8-7.273-77.151,3.353-77.151,1.57
				c0,5.899,0,11.803,0,17.713C31,199.318,87.375,207.179,90.865,199.753z"/>
			<path fill="#FFFFFF" d="M271.95,222.106C272.722,219.79,271.709,223.144,271.95,222.106c-0.734,3.119-7.182,12.039-4.646,14.63
				c11.907,0.511,23.084,12.293,35.094,12.293c1.345-1.86,9.65-16.378,7.274-18.457C309.357,228.328,278,218.031,278,218.255
				c0-0.256,0-0.512,0-0.771C270,216.744,272.722,219.79,271.95,222.106z"/>
			<path fill="#FFFFFF" d="M233.464,250.781c-0.226,0.192-0.461,0.398-0.694,0.59C233.092,251.103,233.313,250.912,233.464,250.781z
				"/>
			<path fill="#FFFFFF" d="M233.464,251.55c7.234-6.11,14.974-15.55,18.902-22.55c0,0,0.169,0,0.427,0
				c6.036-18,13.89-38.518,6.581-58.852c-6.283-17.476-15.433-33.566-31.207-44.46c-11.855-8.203-24.043-8.977-36.218-13.559
				c-3.095,0.734-37.524-2.354-37.738,5.289c-6.581,0-17.573,8.996-22.334,13.083c-13.854,12.021-35.032,45.899-26.873,63.899
				c-0.572,13.59,12.359,26.853,11.466,38.458c8.287,0,19.572,29.542,32.359,27.759c7.282,5.8,23.967,7.686,32.818,7.678
				c9.646,3.164,18.353-4.847,29.353-3.065c0-0.252,0-0.512,0-0.767c5-1.95,15.583-7.612,23.022-12.712
				C229.593,254.792,235.018,250.174,233.464,251.55z"/>
			<path fill="#FFFFFF" d="M109.713,249.829c-8.678,1.755-55.705,47.731-54.86,54.686c9.361,20.579,27.377,6.93,34.664-7.702
				c11.204-9.75,25.578-23.077,32.343-35.465c-0.413,0.769-0.253,0,0,0C117.521,261.348,113.821,251.42,109.713,249.829z"/>
			<path fill="#FFFFFF" d="M151.124,276.754C152.269,277.52,150.615,276.754,151.124,276.754c-3.661,0-7.851-4.346-11.546-3.826
				c-4.59-2.698-19.397,32.766-15.43,36.206c4.6,1.033,13.853,4.158,13.853,4.621c0,0.255,0,0.512,0,0.77
				c8,2.285,16.817-30.668,16.032-36.216C152.891,277.91,152.269,277.52,151.124,276.754z"/>
			<path fill="#FFFFFF" d="M243.551,301.433C244.21,301.292,243.446,300,243.551,301.433L243.551,301.433z"/>
			<path fill="#FFFFFF" d="M243.551,301.433c-0.262-3.602-13.611-30.254-14.609-30.037c-2.85,0.354-16.564,5.145-17.729,8.473
				c-0.688,11.299,14.975,21.999,14.975,33.116c2.926,3.869,14.921-5.261,18.913-6.159
				C245.631,304.485,245.116,302.688,243.551,301.433z"/>
			<path fill="#FFFFFF" d="M310.554,301.433C312.521,302.709,310.393,300.569,310.554,301.433L310.554,301.433z"/>
			<path fill="#FFFFFF" d="M287.189,277.562c-5.061-5.171-22.974-29.579-30.966-28.503c0,4.456-19.154,12.023-8.731,17.713
				c0.622,3.309,14.158,15.307,17.636,17.718c8.374,9.266,19.126,23.562,30.026,30.036c3.312,7.529,18.573-11.039,15.4-13.093
				C309.464,295.595,290.884,281.328,287.189,277.562z"/>
			<path fill="#FFFFFF" d="M175.631,281.909c-7.664,0-2.98,73.091-1.395,79.091c5.394,0,10.783,0,16.175,0
				c5.538,0,1.588-10.186,1.588-14.127c0,3.942,0-21.051,0,0c0-18.041,0-36.091,0-54.132
				C192,277.439,189.583,281.909,175.631,281.909z"/>
			<path fill="#FFFFFF" d="M92,240.588c0-0.245,10.193-5.241,10.358-5.391c4.365-2.185-5.591-14.958-6.054-16.941
				c-2.214-3.524-36.825,10.983-35.788,16.161c-0.133,4.631,5.304,12.426,7.566,16.181c1.856,0.286,13.352-4.246,13.503-5.385
				c3.709-0.659,2.415-3.197,10.415-3.853C92,241.103,92,240.844,92,240.588z"/>
			<path fill="#FFFFFF" d="M80.449,245.212C80.323,246.113,84.15,244.554,80.449,245.212L80.449,245.212z"/>
		</g>
		<path d="M455.694,395.54c46.687,5.892,89.297-27.179,95.174-73.847c5.89-46.673-27.164-89.294-73.848-95.173
			c-46.682-5.895-89.284,27.175-95.176,73.857C375.954,347.046,409.028,389.651,455.694,395.54z"/>
		<path d="M435.842,420.495c-10.273-11.028-24.999-31.208-42.416-22.085c-9.902-5.778-19.229-44.307-23.79-54.819
			c-14.608-33.653-11.744-63.593-12.041-100.523c-0.173-21.239,3.029-37.616,20.052-50.243c13.841-10.254,9.298-22.314-6.068-24.625
			c1.522-16.576,0.369-30.049-18.455-34.595c-9.056,8.946-10.354,3.037-20.142,3.848c-9.496,0.783-15.679,10.7-24.671,13.376
			c-16.35,4.855-12.799,20.588-7.082,31.411c11.596,21.936,32.193,46.497,32.389,71.988c0.335,41.25,0.278,67.174,16.445,104.481
			c7.994,18.438,15.981,36.887,23.976,55.326c2.642,6.09-35.521,56.158-40.126,65.451c-12.634,25.481-23.892,54.637-22.352,83.586
			c0.654,12.225,4.085,24.388,11.584,34.229c3.771,4.959,26.787,17.951,27.021,20.653c3.596,41.998,7.188,84,10.792,125.999
			c0.671,7.916,6.218,27.801,0.905,34.115c-8.335,9.901-14.143,21.733-24.875,29.537c-12.119,8.812-45.352,13.196-50.785,29.28
			c-13.146,38.999,49.542,20.175,64.743,12.076c17.919-9.552,48.41-41.818,45.493-65.806c-0.878-7.242-8.025-5.727-8.663-13.259
			c-0.672-7.8-1.345-15.595-2.007-23.388c-2.226-25.986-4.456-51.966-6.681-77.952c-1.285-15.003-2.569-30.001-3.845-45.005
			c15.909,2.821,22.345-4.156,25.174,11.532c2.563,14.255,5.126,28.509,7.701,42.767c6.239,34.651,12.486,69.304,18.72,103.951
			c5.618,31.119-17.379,53.528-41.381,72.221c-10.662,8.293-37.231,35.657-8.285,41.264c28.495,5.522,62.924-22.657,71.616-48.465
			c17.701-52.522-6.61-118.144-16.429-172.628c-2.615-14.511-5.232-29.03-7.845-43.547c-2.712-15.057-1.557-10.114,8.822-22.274
			c31.017-36.355,15.571-105.282,8.091-146.94C466.358,396.222,435.842,420.495,435.842,420.495z"/>
		<path fill-rule="evenodd" clip-rule="evenodd" d="M630.003,248.361c-4.481-26.301-0.079-12.589-8.881-31.367
			c-8.464-18.132-22.887-15.025-28.016-33.456c-20.73-6.015-28.921,6.357-36.487,22.945c-20.708-8.024-28.88,11.68-14.434,27.397
			c4.167,24.726-0.617,41.912-14.166,60.947c-35.646,50.077-81.067,135.572-95.668,123.124
			c-16.348-13.953-3.709,60.247,9.363,41.883c16.153-22.704,32.311-45.4,48.477-68.11c19.019-26.707,38.022-53.416,57.04-80.128
			C568.366,281.899,603.901,272.602,630.003,248.361C629.062,242.884,619.574,258.052,630.003,248.361z"/>
	</g>
</g>
<g id="Engaged" display="none">
	<g display="inline">
		<g>
			<path fill="#FFFFFF" d="M188.683,449.504c-1.235-7.658-0.591-13.061,2.005-16.539c1.027-1.379,2.759-2.948,5.518-3.684
				c2.172-1.325,4.54-1.77,6.7-1.77c6.96,0,14.727,4.73,19.866,7.861c1.473,0.9,2.719,1.674,3.627,2.103
				c1.23,0.587,6.226,1.687,12.705,1.687c5.718,0,15.669-0.9,22.522-6.297c4.138-5.46,6.234-12.669,6.084-21.097
				c-0.116-6.208-1.038-11.605-2.675-16.144c-2.253-5.258-5.335-9.49-9.143-12.553c-3.713-2.554-8.221-3.914-13.479-3.914
				c-5.916,0-12.408,1.676-19.295,4.981c-9.94,4.771-16.985,6.997-22.161,6.997c-7.469,0-10.668-4.376-12.086-9.563
				c-3.177-6.666-2.58-17.553,1.732-32.988c2.475-11.612,5.884-23.531,7.636-29.391l-26.398-7.202
				c-1.002-0.3-1.903-0.518-2.865-0.789c-7.258-1.541-14.258-2.67-19.227-2.67l-0.55,0.008c-3.281,0.057-6.459,0.237-8.899,0.809
				c-0.733,0.451-1.338,1.016-1.749,1.717c-1.084,1.847-1.957,6.618,4.332,17.833c7.752,13.822,8.751,28.323,2.731,39.79
				c-0.873,1.666-1.917,3.228-3.062,4.716c-3.508,5.199-9.858,11.05-21.288,13.838c-4.063,1.236-8.464,2.113-13.22,2.559
				c-1.476,0.136-2.89,0.201-4.251,0.201c-8.565,0-15.652-2.75-20.871-7.958c-4.044-2.943-7.402-6.71-9.892-11.239
				c-6.109-11.079-5.799-25.665,0.758-36.029c8.044-12.746,9.633-18.98,9.442-21.999c-1.858-1.91-5.514-2.707-8.493-3.031
				c-1.295-0.141-2.693-0.192-4.099-0.211c-2.869,0.481-6.118,1.24-9.801,2.333c-26.028,7.724-37.314,11.396-41.848,12.942
				l3.093,168.887c0.102,5.621,1.834,8.154,3.924,9.285c1.92-0.022,3.305-0.38,3.305-0.38l58.409,0.019l115.42-1.669
				C198.362,491.229,188.665,469.043,188.683,449.504z"/>
			<path fill="#FFFFFF" d="M16.04,147.097l2.445,169.505c9.725-4.77,31.893-14.476,51.399-14.476c0.061,0,0.106,0.005,0.167,0.005
				c2.416-0.38,4.651-0.615,6.63-0.615c6.206,0,10.427,1.952,12.546,5.792c0.445,0.801,0.767,1.675,0.997,2.604
				c0.139,0.24,0.304,0.462,0.426,0.715c4.03,8.173-2.359,18.668-6.593,25.614c-0.896,1.475-1.668,2.718-2.103,3.624
				c-1.511,3.179-4.136,21.634,3.285,33.403c0.685,1.087,1.455,2.044,2.257,2.943c5.125,3.637,11.669,5.661,19.284,5.661h0.008
				l0.882-0.351c4.591-0.085,8.706-0.662,12.41-1.618c7.395-2.376,13.139-6.168,16.921-11.321
				c4.894-8.033,4.294-19.406-1.704-31.904c-7.09-14.77-8.659-23.468-5.256-28.98c1.646-2.678,4.258-4.219,7.333-5.141
				c6.689-3.419,18.038-2.877,34.004,1.638c11.439,2.461,23.094,5.798,28.861,7.522l7.209-26.404
				c6.777-22.619,3.883-29.918,2.33-32.01c-0.655-0.88-1.858-2.044-4.735-2.044c-2.469,0-6.996,0.883-14.507,5.094
				c-7.714,4.331-15.85,6.618-23.521,6.618c-16.195,0-34.521-10.889-37.377-41.457c-0.942-10.069,1.364-18.231,6.867-24.263
				c8.614-9.463,22.722-10.879,30.367-10.879c6.381,0,12.91,0.99,15.877,2.407c1.157,0.55,2.607,1.435,4.287,2.457
				c4.438,2.703,11.137,6.788,16.027,6.788c1.667,0,5.562-0.002,6.631-9.814c2.24-20.62-11.016-48.257-14.862-55.757l-169.089,3.105
				c-4.328,0.077-7.287,1.15-8.807,3.183c-2.165,2.915-1.052,7.38-1.035,7.42L16.04,147.097z"/>
			<path fill="#FFFFFF" d="M387.479,315.715c-5.688,1.899-17.335,5.607-40.241,12.415c-7.387,2.19-13.257,3.257-17.943,3.257
				c-6.212,0-10.434-1.948-12.549-5.786c-3.392-6.15-0.553-15.786,9.212-31.237c5.163-8.171,5.38-19.567,0.531-28.362
				c-5.07-9.21-14.771-14.279-27.304-14.279l-0.885,0.004c-14.205,0.26-24.328,4.638-29.285,12.67
				c-4.946,8.037-4.365,19.372,1.658,31.918c7.091,14.768,8.66,23.422,5.262,28.935c-3.527,5.726-11.337,6.345-19.027,6.484
				l-0.681,0.01c-13.873,0-40.693-7.617-50.499-10.547l-7.201,26.403c-0.261,0.871-0.481,1.676-0.715,2.507
				c-1.644,7.661-2.83,15.068-2.74,20.134c0.073,4.046,0.347,6.875,0.796,8.869c0.11,0.19,0.222,0.36,0.324,0.497
				c0.653,0.877,1.856,2.044,4.74,2.044c2.469,0,6.989-0.889,14.503-5.095c7.718-4.331,15.852-6.62,23.523-6.62
				c7.269,0,14.957,2.22,21.491,7.408c4.365,3.149,7.853,7.578,10.328,13.109c2.777,5.622,4.77,12.507,5.556,20.939
				c0.942,10.072-1.37,18.234-6.862,24.267c-0.709,0.781-1.509,1.422-2.284,2.094c-0.76,0.971-1.575,1.901-2.442,2.784
				c-6.416,6.536-15.584,10.286-25.161,10.286l0,0c-6.72,0-13.096-1.786-18.448-5.165c-9.919-6.267-17.163-9.446-21.521-9.446
				c-0.146,0-0.244,0.027-0.375,0.033c-1.268,1.268-2.449,3.705-2.958,8.451c-0.155,1.406-0.224,2.854-0.239,4.312
				c0.455,2.61,1.192,5.768,2.331,9.597c7.725,26.024,11.404,37.311,12.953,41.847l168.904-3.1c4.326-0.082,7.289-1.154,8.798-3.187
				c0.019-0.021,0.028-0.042,0.044-0.067c0.871-3.512,0.027-6.813,0.027-6.813l0.015-58.183L387.479,315.715z"/>
		</g>
		<path fill="#FFFFFF" d="M539.574,119.014c0,0,15.539,0.024,11.107,16.971L507.25,301.778c0,0-38.365,9.022-62.054-0.521
			c-23.706-9.533,0.605-26.511,5.357-31.936c4.748-5.414,21.354-47.277-15.01-53.943c-36.356-6.661-52.417,17.236-45.794,44.69
			c6.616,27.451-7.308,31.899-37.933,12.448l-26.712-16.047c0,0,21.516-32.948,25.6-48.548c4.089-15.599,3.294-23.427-26.162-18.28
			c-29.447,5.142-48.036-11.154-39.626-43.247c8.404-32.091,40.823-32.177,54.838-16.598c14.023,15.58,32.412,30.872,31.84-8.808
			c-0.559-39.682-1.341-47.028-1.341-47.028L539.574,119.014z"/>
		<path d="M408.688,321.201c5.88,46.626,48.447,79.662,95.095,73.777c46.635-5.88,79.675-48.449,73.789-95.08
			c-5.887-46.641-48.456-79.68-95.092-73.797C435.84,231.981,402.811,274.565,408.688,321.201z"/>
		<path d="M594.874,772.305c-26.243-14.315-54.985-25.156-82.185-37.553c-19.484-8.876-21.639-57.218-26.621-76.543
			c-2.092-8.098-11.173-27.476-9.28-35.951c19.05-11.216,27.253-32.787,29.883-53.708c5.799-46.37-7.508-98.128-26.995-140.058
			c18.068-1.337,57.762,3.261,45.854-25.694c-12.906-31.408-25.822-62.823-38.737-94.231c-9.367-22.787-36.246-24.949-24.771,2.978
			c12.518,30.458,25.042,60.915,37.56,91.375c-20.597,1.515-64.228,12.581-82.259,5.145c-31.178-12.861-62.356-25.723-93.534-38.584
			c7.332-13.978,35.475-48.879,30.334-65.382c-10.762-34.533-50.302,51.695-53.252,57.322
			c-16.436,31.323,89.065,72.778,116.712,71.626c-25.04,36.361-45.833,86.267-49.737,130.179
			c-1.42,15.959,15.225,43.784,8.068,53.045c-13.485,17.432-26.963,34.856-40.437,52.293
			c-16.905,21.855-37.562,36.262-23.175,63.537c14.891,28.214,31.886,56.346,44.285,85.584c-27.917,8.244-65.9,0.337-90.453,10.686
			c-7.401,3.118-10.172,17.715-5.567,23.833c14.83,19.726,65.145,14.703,86.029,14.108c111.128-3.17-19.427-106.087-15.814-151.656
			c1.622-20.45,47.316-61.193,60.11-77.731c13.13-16.986,14.51-8.112,36.482-6.471c29.653,2.214,25.338-3.532,32.707,25.044
			c4.553,17.645,10.21,86.85,29.348,95.565c16.642,17.668,60.031,27.355,82.456,37.581c-6.477,7.98-14.269,23.824-23.004,29.041
			c-16.7-1.407-31.54,0.77-44.882,10.716c-15.532,40.198,79.518,17.858,93.475,6.855
			C616.544,820.235,637.409,765.334,594.874,772.305C594.642,772.179,605.423,770.574,594.874,772.305z"/>
		<path d="M326.289,307.676c0,0-8.256-21.017-10.014-47.497c-1.76-26.479-2.593-49.771,10.014-47.501
			c0,0,3.228-20.228,12.603-20.228l9.375,11.255c0,0,7.27-0.799,8.321,8.973c1.054,9.775-4.801,62.272,0,62.272
			c0,0,36.77-20.628,37.661-5.626c0.892,14.997-7.839,14.431-39.485,45C323.121,344.893,326.289,307.676,326.289,307.676z"/>
	</g>
</g>
<g id="Proud" display="none">
	<g display="inline">
		<path d="M523.89,340.744c-15.343,45.634-64.773,70.182-110.411,54.84c-45.633-15.346-70.182-64.77-54.849-110.401
			c15.345-45.635,64.777-70.191,110.407-54.849C514.676,245.676,539.235,295.109,523.89,340.744z"/>
		<path d="M442.62,833.201c-61.26-26.273-28.274-67.131-44.029-120.423c-4.821-16.298-26.871-59.253-22.216-75.156
			c46.397-10.465,51.121-76.587,53.823-114.584c11.54,17.71,53.068,35.704,37.816,0.114c-13.132-30.642-26.271-61.283-39.404-91.924
			c-20.463-47.755-113.878,24.438-157.582,4.334c-30.265-13.928-52.959-11.888-83.228-25.811
			c-34.547-15.895-33.035,20.045-4.427,33.21c29.957,13.779,53.769,6.659,83.727,20.44c18.583,8.548,52.866-4.047,72.27-6.601
			c-20.605,22.816-39.769,48.626-50.922,77.52c-6.435,16.671,2.429,53.133-3.023,63.041c-10.811,19.664-48.106,63.663-44.516,86.757
			c-3.455,27.714,10.139,65.504,14.426,93.217c2.262,14.619-61.257,19.039-74.477,23.242c-58.206,18.519,7.294,50.47,44.151,40.589
			c19.726-5.287,40.531-12.898,57.706-24.206c25.231-16.623,2.894-20.307,0.736-34.049c-4.533-32.208-9.95-64.306-14.931-96.444
			c-2.533-16.407,28.358-54.028,36.639-69.085c12.747,9.395,40.544,11.489,44.844,26.033c5.856,19.806,11.709,39.612,17.569,59.417
			c8.269,27.985,7.861,54.222,8.834,83.556c1.584,47.642-2.307,79.011,51.648,101.292c13.743,5.679,58.811,17.062,64.645-6.265
			C498.625,857.691,458.972,840.201,442.62,833.201C429.642,827.637,455.604,838.761,442.62,833.201z"/>
		<path d="M196.673,399.475c-0.413,7.195,2.314,39.485-4.875,39.071c-7.193-0.405-21.584-33.358-21.173-40.551
			c0.408-7.191,7.593-30.588,14.773-30.102C206.545,369.326,197.077,392.287,196.673,399.475z"/>
		<path d="M401.002,438.538c-1.059,7.128-1.313,39.532-8.441,38.458c-7.12-1.064-18.421-35.2-17.351-42.323
			c1.066-7.124,10.363-29.766,17.481-28.621C413.609,409.423,402.071,431.42,401.002,438.538z"/>
		<path fill-rule="evenodd" clip-rule="evenodd" fill="#FFFFFF" d="M360.863,400.273c1.976,2.596,0.047,8.006-0.497,12.412
			c68.998,12.795,1.705,89.466-32.298,91.506c-12.704,21.56-31.553,34.539-58.978,35.558c0.119,28.589-4.339,54.936,6.44,74.478
			c7.079,12.848,26.538,19.35,20.577,36.199c-32.804,1.789-76.745-11.562-114.545-15.788c3.739-19.718,17.486-25.498,32.895-28.934
			c12.138-20.479,23.927-41.452,31.576-68.197c-26.39-10.151-41.837-28.12-47.457-53.139
			c-26.003-15.595-71.852-103.737-0.903-98.561c0.421-2.529,0.841-5.066,1.254-7.592c-0.022-2.534,1.868-2.384,2.275-4.323
			C254.418,382.683,307.632,391.477,360.863,400.273z M194.744,460.304c-1.608-18.511-1.529-38.23,2.192-60.552
			C155.742,389.858,176.451,452.694,194.744,460.304z M340.456,485.938c16.474-6.026,61.786-49.785,17.902-61.083
			C354.366,446.74,344.608,470.518,340.456,485.938z"/>
		<path d="M147.9,430.696c0,0-11.305-10.425,1.113-20.883c12.441-10.463,44.073-9.735,43.372,2.546
			c-0.696,12.282-0.679,11.967-0.679,11.967s4.656-2.019-0.354,14.195c0,0,3.769,3.087,1.341,12.358
			c-2.438,9.261-22.427,19.142-35.981,10.343C143.158,452.421,138.958,444.559,147.9,430.696z"/>
		<path d="M361.231,447.544c-3.332,3.159-5.021,5.317-5.796,6.812c-0.014,0.021-0.022,0.025-0.022,0.025
			c-5.36,5.73-1.824,10.108-1.824,10.108c-10.174,9.649-4.384,10.546-4.384,10.546c-0.004,0.001-0.171,0.341-4.354,8.575
			c-4.475,8.8,28.053,24.36,44.221,22.524c16.164-1.823,7.612-14.962,7.612-14.962c1.99-0.889,3.424-1.92,4.766-2.901
			c9.854-3.564,3.341-13.796,3.341-13.796c13.571-6.023,11.406-13.974-0.07-27.021c-11.495-13.046-35.516-15.347-40.882-9.617
			C358.477,443.562,361.231,447.544,361.231,447.544z"/>
	</g>
</g>
<g id="Passionate" display="none">
	<g display="inline">
		<path fill="#FFFFFF" d="M309.911,410.078c0,0-54.068,2.36-55.001,27.132l-39.732,90.095c0,0-77.443,187.961-79.102,213.017
			c0,0,22.931,28.808,41.906,26.401l10.254-25.197c0,0,72.898-5.412,100.316,12.891c27.429,18.305,100.909-12.147,120.108-18.727
			c19.197-6.58,44.787,26.461,44.787,26.461s33.217-9.016,34.986-27.816l-126.14-298.949
			C362.295,435.385,347.6,413.744,309.911,410.078z"/>
		<path d="M405.425,321.097c-5.131,47.12-47.491,81.167-94.631,76.033c-47.13-5.136-81.178-47.497-76.042-94.623
			c5.14-47.134,47.491-81.182,94.632-76.047C376.518,231.591,410.556,273.967,405.425,321.097z"/>
		<g>
			<path fill-rule="evenodd" clip-rule="evenodd" d="M429.422,834h0.02C435.537,839,432.436,834,429.422,834z"/>
			<path fill-rule="evenodd" clip-rule="evenodd" d="M429.445,834.22c-6.026-2.256-3.027-1.131-0.02-0.003
				c-57.509-21.535-55.143-110.628-67.812-163.146c-8.481-35.159,14.637-35.837,19.984-67.625c3.169,4.129,9.599,3.944,16.641,4.92
				c5.437,0.759,7.714,3.704,10.63,3.51c4.58-0.297,8.96-3.546,12.938-4.066c3.396-7.046,7.934-27.778,13.12-45.306
				c13.193-22.098,37.015-59.364,15.285-71.273c-38.255-20.967-76.501-41.938-114.748-62.905
				c-48.188-26.417-129.253,46.354-172.628,70.474c-14.375,7.995,8.795,46.111,26.852,67.446
				c4.487,14.543,8.474,29.112,11.419,34.719c4.001,0.389,8.492,3.486,13.07,3.626c2.926,0.097,5.101-2.924,10.509-3.87
				c8.189-1.416,15.595-1.226,17.68-8.04c2.462,19.078,10.478,35.774,27.237,46.845c5.448,29.171-16.544,80.799-22.45,109.645
				c-10.241,50.021-2.21,66.158-50.447,81.221c-82.411,25.729-19.731,61.627,37.753,34.092c10.621-5.084,48.43-21.289,42.078-39.94
				c-8.177-23.987-20.042,2.094-13.734-28.716c9.272-45.302,18.556-90.603,27.825-135.908c4.239-20.691,21.184-6.783,40.758-8.859
				c5.642,4.168,8.179,33.913,9.734,40.359c9.275,38.433,18.541,76.867,27.815,115.3l-0.495-0.156
				c-10.397,43.249,25.954,76.536,67.773,82.254C501.229,897.7,467.474,848.441,429.445,834.22z M243.231,556.812
				c-4.44-3.744-8.496-7.707-9.676-13.058c-5.815-2.351-10.217-0.149-16.077-2.309c-5.262-1.948-6.814-7.186-11.362-7.966
				c-2.638-0.447-5.141-1.196-7.525-2.098c-4.338-5.825-8.677-11.654-13.017-17.479l88.863-49.424
				C263.373,486.92,248.267,522.516,243.231,556.812z M433.091,509.503c1.467,4.965-4.937,17.291-11.766,28.938
				c-2.158,0.866-4.43,1.604-6.809,2.092c-4.52,0.933-5.893,6.221-11.087,8.347c-5.787,2.356-10.256,0.306-15.986,2.852
				c-0.738,3.989-3.093,7.269-6.007,10.284c-3.94-33.366-15.634-67.973-28.377-96.383
				C366.888,473.207,429.089,495.967,433.091,509.503z"/>
		</g>
		<path fill="#FFFFFF" d="M268.976,428.665l87.295-1.483C356.271,427.182,310.701,396.952,268.976,428.665z"/>
	</g>
</g>
<g id="Excited" display="none">
	<g display="inline">
		<path fill-rule="evenodd" clip-rule="evenodd" fill="#FFFFFF" d="M148.546,192.486c-1.428,2.622,9.188,4.759,3.248,8.977
			c3.494,1.599,7.216-3.628,10.563,2.131c1.562-2.607-3.792-5.448,1.165-7.941c-5.062-1.522-5.156-3.09-7.708-8.24
			C156.3,191.335,152.303,195.025,148.546,192.486z"/>
		<path fill-rule="evenodd" clip-rule="evenodd" fill="#FFFFFF" d="M126.453,216.565c-0.872,0.857,0.339,1.787,0.796,2.69
			c0.849,1.211-0.955,2.334-1.89,3.481c3.417,0.428,4.594,0.776,6.051,4.638c0.304-0.793,1.393-5.571,3.658-3.421
			c0.655-2.347-2.64-4.822-3.307-7.204C129.924,218.781,128.156,218.719,126.453,216.565z"/>
		<path fill-rule="evenodd" clip-rule="evenodd" fill="#FFFFFF" d="M142.576,211.792c-2.364,2.8,1.744,2.977,1.534,7.146
			c1.241-1.791,2.394-0.901,3.546,0.12c0.281-1.325,0.597-2.64,1.827-1.712c2.13-1.703-2.622-3.64-3.359-5.436
			C144.876,213.704,143.724,212.811,142.576,211.792z"/>
		<path fill-rule="evenodd" clip-rule="evenodd" fill="#FFFFFF" d="M69.13,285.566c-1.873,2.3-2.084,4.659-5.548,6.906
			c5.84,1.96,7.806,1.141,12.395,0.421c1.709-2.312-4.822-4.892-1.528-7.146C72.758,283.214,70.756,290.152,69.13,285.566z"/>
		<path fill-rule="evenodd" clip-rule="evenodd" fill="#FFFFFF" d="M130.438,230.004c-3.581,2.537,4.109,5.458,2.382,8.059
			c1.691,2.376,3.6-1.451,5.308,0.182C138.644,233.878,134.312,230.447,130.438,230.004z"/>
		<path fill-rule="evenodd" clip-rule="evenodd" fill="#FFFFFF" d="M154,214.841c5.711,3.33,6.765-3.746,8.245-7.707
			C156.328,205.354,155.065,210.402,154,214.841z"/>
		<path fill-rule="evenodd" clip-rule="evenodd" fill="#FFFFFF" d="M122.128,239.477c-0.392,3.225-1.241,1.004-3.664,3.421
			c3.745,2.668,3.289,1.685,7.825,4.699C128.484,243.032,125.874,243.441,122.128,239.477z"/>
		<path fill-rule="evenodd" clip-rule="evenodd" fill="#FFFFFF" d="M77.873,289.409c3.851-0.357,7.808-3.038,7.327-6.845
			C81.455,279.802,77.347,286.79,77.873,289.409z"/>
		<path fill-rule="evenodd" clip-rule="evenodd" fill="#FFFFFF" d="M104.49,262.819c-0.784,1.159,1.076,2.405-0.118,3.546
			c1.949,3.453,4.155-0.59,6.11,2.868c0.175-3.348-0.843-2.358,2.797-4.338c-3.353-0.905-3.522,0.102-5.185-3.726
			C106.865,262.462,105.637,263.743,104.49,262.819z"/>
		<path fill-rule="evenodd" clip-rule="evenodd" fill="#FFFFFF" d="M121.847,274.049c5.139-3.078-0.386-6.517,4.758-9.592
			c13.009,1.496,17.668,15.028,26.587,26.617c-3.793-16.077-12.899-42.155-32.281-41.885
			C111.155,257.078,112.355,270.919,121.847,274.049z"/>
		<path fill-rule="evenodd" clip-rule="evenodd" fill="#FFFFFF" d="M86.054,283.477c10.874,0.135,21.227-5.635,32.072-4.23
			c5.518,0.712,11.224,3.411,16.608,6.768C122.924,274.518,98.73,270.521,86.054,283.477z"/>
		<path fill-rule="evenodd" clip-rule="evenodd" fill="#FFFFFF" d="M168.232,213.548c-1.872,2.007,0.193,4.144,2.447,6.291
			c1.75-1.272,0.913-3.781,2.751-2.57C175.139,213.952,169.567,212.948,168.232,213.548z"/>
		<path fill-rule="evenodd" clip-rule="evenodd" fill="#FFFFFF" d="M84.375,333.082c6.888-4.897,3.471-12.957,5.975-19.307
			c9-22.798,36.899-30.11,55.632-19.397c-13.402-14.815-44.688-13.82-60.53,6.814C79.3,309.21,74.315,325.368,84.375,333.082z"/>
		<path fill-rule="evenodd" clip-rule="evenodd" fill="#FFFFFF" d="M18.239,374.29c1.644,1.239,0.608,2.385,1.649,3.608
			c1.991,2.435,4.085,1.548,6.182,1.095C31.581,373.937,22.733,366.965,18.239,374.29z"/>
		<path fill-rule="evenodd" clip-rule="evenodd" fill="#FFFFFF" d="M47.371,352.224c-1.229,1.142-2.447,2.284-3.664,3.423
			c1.393,2.278,2.891,1.84,4.336,2.805C50.711,356.479,49.864,354.38,47.371,352.224z"/>
		<path fill-rule="evenodd" clip-rule="evenodd" fill="#FFFFFF" d="M134.301,272.701c-1.218,1.138-2.434,2.279-3.658,3.42
			c5.753,4.601,11.571,7.479,17.236,14.772C150.073,285.057,137.918,278.734,134.301,272.701z"/>
		<path fill-rule="evenodd" clip-rule="evenodd" fill="#FFFFFF" d="M104.94,301.854c-0.421,3.423-0.779,4.594-4.641,6.051
			c2.715,0.012,4.846,3.137,1.592,5.373c3.687,0.75,4.787-2.083,9.837-2.326C109.294,305.008,113.068,307.167,104.94,301.854z"/>
		<path fill-rule="evenodd" clip-rule="evenodd" fill="#FFFFFF" d="M31.37,379.168c-1.393,2.317-1.152,4.695-2.001,7.029
			c5.963,7.876,15.438,18.832,25.61,29.249c0.867-0.859-0.339-1.791-0.795-2.691c-0.855-0.916-1.71-1.833-2.57-2.75
			c-4.846-9.325-12.893-18.758-17.668-28.087C33.091,381.001,32.236,380.086,31.37,379.168z"/>
		<path fill-rule="evenodd" clip-rule="evenodd" fill="#FFFFFF" d="M198.911,224.339c-0.919,0.857-1.838,1.715-2.751,2.569
			c2.271,2.792,4.554,5.104,7.023,2.013C203.235,226.619,201.205,224.446,198.911,224.339z"/>
		<path fill-rule="evenodd" clip-rule="evenodd" fill="#FFFFFF" d="M124.668,295.427c-1.75,1.42-0.89,2.927-2.81,4.337
			c1.698,2.4,3.43,3.383,5.197,3.726C132.078,299.28,129.163,295.896,124.668,295.427z"/>
		<path fill-rule="evenodd" clip-rule="evenodd" fill="#FFFFFF" d="M59.526,359.731c-2.136,1.998-4.272,3.993-6.408,5.989
			c1.229,3.586,1.674,7.151,4.952,10.809c1.241-1.638,2.387-0.608,3.604-1.65C63.916,369.928,60.948,364.808,59.526,359.731z"/>
		<path fill-rule="evenodd" clip-rule="evenodd" fill="#FFFFFF" d="M136.15,296.704c-1.329,2.318,4.073,4.869-0.239,7.087
			c2.024,1.416,4.231-2.593,6.174,1.094c2.142-0.978,1.288-6.239,4.576-4.278c1.755-4.213-7.193-0.438-3.36-5.434
			C140.996,293.468,138.408,300.005,136.15,296.704z"/>
		<path fill-rule="evenodd" clip-rule="evenodd" fill="#FFFFFF" d="M116.849,395.371c3.716-9.033-4.588-15.511-7.221-22.412
			c-7.83-20.552-0.046-55.28,32.334-64.527C100.891,309.942,76.965,370.8,116.849,395.371z"/>
		<path fill-rule="evenodd" clip-rule="evenodd" fill="#FFFFFF" d="M30.715,398.656c-3.113,4.583,0.257,8.007,4.951,10.815
			c1.756-1.422,0.89-2.928,2.81-4.342C35.935,401.605,33.326,400.33,30.715,398.656z"/>
		<path fill-rule="evenodd" clip-rule="evenodd" fill="#FFFFFF" d="M13.135,420.235c2.727,0.176,6.473-3.542,2.874-6.117
			C13.276,413.949,9.536,417.666,13.135,420.235z"/>
		<path fill-rule="evenodd" clip-rule="evenodd" fill="#FFFFFF" d="M76.878,370.958c1.509-0.796,2.95,0.266,4.459-0.733
			C89.589,359.027,64.91,360.009,76.878,370.958z"/>
		<path fill-rule="evenodd" clip-rule="evenodd" fill="#FFFFFF" d="M155.814,292.052c4.003,4.251,8.556,0.006,4.589-4.279
			C158.096,287.72,155.92,289.751,155.814,292.052z"/>
		<path fill-rule="evenodd" clip-rule="evenodd" fill="#FFFFFF" d="M59.731,380.134c2.258,5.103,3.675,10.172,7.455,15.325
			c1.323-5.569-3.417-11.347-2.088-16.917C63.371,377.139,61.568,377.929,59.731,380.134z"/>
		<path fill-rule="evenodd" clip-rule="evenodd" fill="#FFFFFF" d="M233.615,246.8c-13.888-8.558-30.192,1.517-44.829,14.444
			c-1.873,1.27-1.077,2.622-0.059,1.773c0.913-0.86,1.832-1.715,2.745-2.569C205.161,249.116,223.204,248.621,233.615,246.8z"/>
		<path fill-rule="evenodd" clip-rule="evenodd" fill="#FFFFFF" d="M164.054,284.35c-0.573,2.639,4.776,5.481-1.146,7.941
			c2.364,1.627,9.387-0.328,8.672,5.613c3.664-1.001-0.812-9.211,7.386-8.615c-2.458-0.778-8.755-2.347-5.992-6.414
			C170.042,282.377,166.886,288.177,164.054,284.35z"/>
		<path fill-rule="evenodd" clip-rule="evenodd" fill="#FFFFFF" d="M5.632,432.395c-0.175,2.652,1.417,5.368,4.155,8.118
			c3.102-3.774,8.545,1.902,8.978-3.241C16.95,430.845,10.209,434.205,5.632,432.395z"/>
		<path fill-rule="evenodd" clip-rule="evenodd" fill="#FFFFFF" d="M229.021,225.364c-2.559,1.686-0.427,3.529-3.722,5.191
			c2.025,1.388,4.167-0.784,6.11,2.874c1.223-1.299,2.453-2.581,3.605-1.656c0.638-2.048-1.435-4.187-2.44-6.291
			C231.321,227.277,230.162,226.382,229.021,225.364z"/>
		<path fill-rule="evenodd" clip-rule="evenodd" fill="#FFFFFF" d="M130.978,318.697c-1.358,2.615,5.466,5.507,0.608,8.006
			c2.312,1.72,4.921-5.502,7.093,0.236c1.855-1.248-1.199-6.961,1.943-5.252c2.984-3.253-5.478-1.264-2.505-4.517
			C135.811,315.46,133.224,321.997,130.978,318.697z"/>
		<path fill-rule="evenodd" clip-rule="evenodd" fill="#FFFFFF" d="M121.637,332.572c-6.824,5.887-12.67,23.532-4.564,29.994
			C119.519,352.599,115.445,342.41,121.637,332.572z"/>
		<path fill-rule="evenodd" clip-rule="evenodd" fill="#FFFFFF" d="M40.19,406.961c-2.441,5.975,7.134,6.778,10.27,10.991
			C50.561,413.27,43.099,409.706,40.19,406.961z"/>
		<path fill-rule="evenodd" clip-rule="evenodd" fill="#FFFFFF" d="M178.416,279.515c19.489-10.715,39.012-19.319,57.786-4.25
			c9.129,7.34,14.384,22.054,25.849,22.159c6.585-5.589,2.453-12.694-0.314-16.861C242.388,251.396,202.353,253.579,178.416,279.515
			z"/>
		<path fill-rule="evenodd" clip-rule="evenodd" fill="#FFFFFF" d="M147.218,310.38c2.252,3.266,4.617,3.345,7.087,0.24
			C154.795,305.436,147.078,305.172,147.218,310.38z"/>
		<path fill-rule="evenodd" clip-rule="evenodd" fill="#FFFFFF" d="M26.337,423.342c1.651,1.534,0.68,2.979,2.504,4.519
			c1.833-1.69,3.5,1.411,5.373-1.592C35.115,422.279,30.422,417.525,26.337,423.342z"/>
		<path fill-rule="evenodd" clip-rule="evenodd" fill="#FFFFFF" d="M187.328,278.042c-3.458,1.954,1.839,4.202-2.861,6.115
			c2.598,1.651,5.396-2.229,7.877,2.924c0.865-0.857-0.339-1.783-0.797-2.686c1.885-3.175,3.583-0.929,5.438-3.363
			C191.922,280.382,192.426,277.371,187.328,278.042z"/>
		<path fill-rule="evenodd" clip-rule="evenodd" fill="#FFFFFF" d="M22.428,433.846c-1.72,1.124-0.761,2.341-1.884,3.489
			c2.809,4.125,5.834,2.142,8.854,0.298C29.545,433.73,24.951,436.087,22.428,433.846z"/>
		<path fill-rule="evenodd" clip-rule="evenodd" fill="#FFFFFF" d="M146.86,321.013c-10.64,13.605-13.976,39.627,0.826,54.116
			c8.9-6.549,0.954-16.394-1.001-23.086C143.653,341.591,142.635,331.607,146.86,321.013z"/>
		<path fill-rule="evenodd" clip-rule="evenodd" fill="#FFFFFF" d="M11.204,451.204c3.124,3.905,6.39,3.312,9.773-0.555
			c-0.356-1.2-0.732-2.393,0.117-3.54C17.202,439.494,8.043,445.856,11.204,451.204z"/>
		<path fill-rule="evenodd" clip-rule="evenodd" fill="#FFFFFF" d="M253.899,354.788c8.234-12.512-0.503-35.362-13.414-49.227
			c-16.819-18.075-42.324-22.997-59.857-12.673c19.652-7.813,45.402,3.614,56.873,22.327c3.909,6.368,5.067,14.402,6.368,21.496
			C245.12,343.489,244.506,353.238,253.899,354.788z"/>
		<path fill-rule="evenodd" clip-rule="evenodd" fill="#FFFFFF" d="M237.103,248.691c-0.644,4.156,0.316,4.227-2.014,7.03
			c2.382-0.563,4.717,0.329,6.964,3.779c-0.222-4.992,2.529-4.114,6.403-5.993c-2.364-1.012-7.819-1.598-5.127-5.493
			C241.351,245.314,239,253.666,237.103,248.691z"/>
		<path fill-rule="evenodd" clip-rule="evenodd" fill="#FFFFFF" d="M205.044,278.644c-2.271,1.401-1.838,2.89-2.804,4.341
			c1.727,1.405,3.522,0.609,5.373-1.592C206.752,280.475,205.899,279.56,205.044,278.644z"/>
		<path fill-rule="evenodd" clip-rule="evenodd" fill="#FFFFFF" d="M115.293,362.508c-2.353,4.646,1.369,9.503,6.613,14.414
			C120.864,371.514,121.052,365.696,115.293,362.508z"/>
		<path fill-rule="evenodd" clip-rule="evenodd" fill="#FFFFFF" d="M150.032,331.759c-1.065,1.739,1.919,3.61-1.943,5.255
			c3.395,0.036,3.418,3.089,5.126,5.496c1.258-2.318,0.966-6.816,4.589-4.278c3.102-1.674-4.694-3.708-1.591-5.376
			C154.152,332.484,152.057,333.369,150.032,331.759z"/>
		<path fill-rule="evenodd" clip-rule="evenodd" fill="#FFFFFF" d="M188.376,299.36c0.866,3.904,5.911,2.4,5.935,8.181
			c0.058-4.107,3.809-1.415,6.232-0.675c2.353-2.876-4.184-6.051,2.066-8.8c-2.598-1.65-5.39,2.227-7.876-2.926
			C194.978,299.581,192.192,299.536,188.376,299.36z"/>
		<path fill-rule="evenodd" clip-rule="evenodd" fill="#FFFFFF" d="M185.509,305.47c18.16,16.902,30.947,37.181,34.435,57.034
			c1.721,9.829-2.048,20.03,4.355,28.528c8.192-4.18,7.871-17.976,6.208-26.395C226.252,343.065,205.396,316.668,185.509,305.47z"/>
		<path fill-rule="evenodd" clip-rule="evenodd" fill="#FFFFFF" d="M126.845,362.009c-1.434,3.143-0.527,9.293,4.097,9.897
			C131.533,368.734,131.679,362.619,126.845,362.009z"/>
		<path fill-rule="evenodd" clip-rule="evenodd" fill="#FFFFFF" d="M8.465,479.489c4.811,3.774,8.731,1.287,9.902-4.097
			C13.597,466.649,4.321,473.537,8.465,479.489z"/>
		<path fill-rule="evenodd" clip-rule="evenodd" fill="#FFFFFF" d="M178.925,316.777c-0.778,3.812,7.064,3.582,0.615,8.001
			c3.195,1.691,6.601-2.909,9.655,2.987c0.978-3.468-1.469-5.679,3.782-6.961c-4.273-0.842-5.151-2.23-7.761-6.473
			C185.169,317.942,181.33,318.019,178.925,316.777z"/>
		<path fill-rule="evenodd" clip-rule="evenodd" fill="#FFFFFF" d="M31.488,454.552c-2.64,1.978-3.628,4.015-1.101,6.169
			c1.481-0.046,2.991-0.949,4.518-2.505C33.77,456.994,32.623,455.77,31.488,454.552z"/>
		<path fill-rule="evenodd" clip-rule="evenodd" fill="#FFFFFF" d="M100.838,396.603c-2.622,3.459-6.053,6.887-2.12,10.566
			c3.219,0.19,1.627-2.917,5.49-5.134C101.768,400.181,104.021,398.481,100.838,396.603z"/>
		<path fill-rule="evenodd" clip-rule="evenodd" fill="#FFFFFF" d="M22.088,470.195c-1.217,2.324-0.163,4.725,1.534,7.146
			c2.61-3.752,8.937-3.038,6.468-7.762C27.566,465.589,24.7,471.658,22.088,470.195z"/>
		<path fill-rule="evenodd" clip-rule="evenodd" fill="#FFFFFF" d="M129.116,373.614c-0.866,4.016,0.34,9.078,4.951,10.809
			C136.718,381.095,133.458,374.411,129.116,373.614z"/>
		<path fill-rule="evenodd" clip-rule="evenodd" fill="#FFFFFF" d="M34.485,470.617c6.402-5.694,12.675-7.526,19.054-12.657
			c-6.812,0.327-13.823,6.733-20.647,7.278C29.276,466.895,33.173,468.803,34.485,470.617z"/>
		<path fill-rule="evenodd" clip-rule="evenodd" fill="#FFFFFF" d="M90.35,418.414c3.886,0.364,6.379-6.83,8.299-9.471
			C93.007,406.371,94.236,415.464,90.35,418.414z"/>
		<path fill-rule="evenodd" clip-rule="evenodd" fill="#FFFFFF" d="M236.868,281.5c-4.927,3.017,3.137,9.417,5.876,9.949
			C244.746,287.644,240.953,283.114,236.868,281.5z"/>
		<path fill-rule="evenodd" clip-rule="evenodd" fill="#FFFFFF" d="M36.192,472.449c-1.216,1.141-2.434,2.282-3.657,3.422
			c1.691,2.395,3.434,3.379,5.191,3.725C40.979,477.342,38.826,474.9,36.192,472.449z"/>
		<path fill-rule="evenodd" clip-rule="evenodd" fill="#FFFFFF" d="M113.005,404.105c-0.919,0.86-1.833,1.715-2.751,2.569
			c0.228,1.782,1.089,3.585,3.365,5.435c0.924-1.14,1.82-1.321,2.68-0.793C118.008,408.782,116.796,404.223,113.005,404.105z"/>
		<path fill-rule="evenodd" clip-rule="evenodd" fill="#FFFFFF" d="M217.345,308.327c5.419,5.902,10.488,19.892,15.28,20.022
			C234.352,321.706,223.122,312.604,217.345,308.327z"/>
		<path fill-rule="evenodd" clip-rule="evenodd" fill="#FFFFFF" d="M126.681,393.046c-1.767,4.286,7.093,3.427,3.301,7.204
			c2.34,0.853,4.81-2.307,7.028,2.012c0.598-2.938-0.263-5.922,2.066-8.795c-2.376,0.561-4.717-0.337-6.964-3.789
			C132.078,393.474,130.438,394.783,126.681,393.046z"/>
		<path fill-rule="evenodd" clip-rule="evenodd" fill="#FFFFFF" d="M209.96,316.941c2.411,2.42,0.187,3.269,3.417,3.664
			C217.58,318.029,212.81,312.927,209.96,316.941z"/>
		<path fill-rule="evenodd" clip-rule="evenodd" fill="#FFFFFF" d="M190.671,336.687c-1.99,4.424,5.255,3.663,0.608,7.997
			c2.646,0.398,5.291,0.806,7.831,4.703c0.826-1.28,0-6.923,3.711-5.198c-0.808-3.867-3.418-3.458-4.155-8.123
			C195.873,339.959,193.239,339.206,190.671,336.687z"/>
		<path fill-rule="evenodd" clip-rule="evenodd" fill="#FFFFFF" d="M59.467,466.14c-6.49,7.182-23.098,21.678-19.716,32.142
			C48.483,491.182,52.111,476.242,59.467,466.14z"/>
		<path fill-rule="evenodd" clip-rule="evenodd" fill="#FFFFFF" d="M30.481,510.385c1.499-0.797,2.944,0.268,4.459-0.737
			C45.65,496.619,16.623,497.749,30.481,510.385z"/>
		<path fill-rule="evenodd" clip-rule="evenodd" fill="#FFFFFF" d="M221.196,325.304c4.284,10.267,7.385,24.978,13.098,32.369
			C235.335,347.063,227.282,336.15,221.196,325.304z"/>
		<path fill-rule="evenodd" clip-rule="evenodd" fill="#FFFFFF" d="M190.062,354.399c-1.872,2.003,0.194,4.141,2.446,6.287
			c1.217-1.138,2.447-2.278,3.664-3.42C194.229,353.617,192.133,354.533,190.062,354.399z"/>
		<path fill-rule="evenodd" clip-rule="evenodd" fill="#FFFFFF" d="M160.759,381.781c-2.908,3.965-1.03,10.596,4.091,9.894
			C164.51,387.795,165.376,383.42,160.759,381.781z"/>
		<path fill-rule="evenodd" clip-rule="evenodd" fill="#FFFFFF" d="M126.394,427.615c4.395,5.629,9.639,0.364,9.896-4.098
			C133.083,423.915,126.957,424.191,126.394,427.615z"/>
		<path fill-rule="evenodd" clip-rule="evenodd" fill="#FFFFFF" d="M204.12,358.422c1.006,6.245,3.394,12.529,5.565,18.81
			C214.162,371.174,207.875,364.758,204.12,358.422z"/>
		<path fill-rule="evenodd" clip-rule="evenodd" fill="#FFFFFF" d="M235.195,331.098c-5.361,3.365-2.014,7.026-0.363,10.628
			C238.777,338.314,238.894,334.772,235.195,331.098z"/>
		<path fill-rule="evenodd" clip-rule="evenodd" fill="#FFFFFF" d="M257.047,314.103c-3.487,3.131,0.235,6.513,2.33,9.834
			c1.533-1.654,2.985-0.681,4.518-2.507C262.524,318.79,260.547,314.208,257.047,314.103z"/>
		<path fill-rule="evenodd" clip-rule="evenodd" fill="#FFFFFF" d="M104.793,463.243c6.392,8.147,15.556,30.684,28.36,26.681
			C126.53,484.902,114.052,472.848,104.793,463.243z"/>
		<path fill-rule="evenodd" clip-rule="evenodd" fill="#FFFFFF" d="M236.552,343.557c-0.948,0.562-0.538,1.165-0.069,1.772
			c0.859,1.213-0.943,2.333-1.891,3.483c3.342,0.141,2.254,2.208,4.278,4.579c0.106-2.326,2.283-4.391,4.518-2.508
			c1.663-2.012-3.57-4.253-0.679-6.229C240.695,343.235,238.449,348.496,236.552,343.557z"/>
		<path fill-rule="evenodd" clip-rule="evenodd" fill="#FFFFFF" d="M133.002,442.034c-1.721,1.119-0.767,2.337-1.896,3.477
			c2.868,2.739,5.747,4.863,8.802,2.072C137.157,443.678,137.18,442.082,133.002,442.034z"/>
		<path fill-rule="evenodd" clip-rule="evenodd" fill="#FFFFFF" d="M264.691,324.116c-1.218,1.141-2.447,2.283-3.664,3.423
			c1.381,3.001,0.854,5.939,3.253,8.977c2.167-1.996,1.218-4.096,4.636-6.051C265.627,328.289,267.974,326.299,264.691,324.116z"/>
		<path fill-rule="evenodd" clip-rule="evenodd" fill="#FFFFFF" d="M91.607,485.857c3.015,8.55,2.916,23.842,13.269,27.05
			C103.729,503.999,95.816,494.862,91.607,485.857z"/>
		<path fill-rule="evenodd" clip-rule="evenodd" fill="#FFFFFF" d="M82.392,496.18c-3.793,5.379-1.253,7.888,4.101,9.896
			C87.26,502.043,87.774,495.489,82.392,496.18z"/>
		<path fill-rule="evenodd" clip-rule="evenodd" fill="#FFFFFF" d="M194.065,393.554c-0.925,0.854-1.838,1.713-2.751,2.569
			c0.375,3.673,2.751,10.75,7.579,11.78C201.462,403.263,196.547,398.367,194.065,393.554z"/>
		<path fill-rule="evenodd" clip-rule="evenodd" fill="#FFFFFF" d="M212.313,378.209c-4.554,2.803-1.306,5.865-2.072,8.796
			C213.436,387.625,215.028,380.726,212.313,378.209z"/>
		<path fill-rule="evenodd" clip-rule="evenodd" fill="#FFFFFF" d="M233.931,368.301c4.571-2.505,2.739-5.227,2.926-7.883
			C232.058,358.826,231.326,364.801,233.931,368.301z"/>
		<path fill-rule="evenodd" clip-rule="evenodd" fill="#FFFFFF" d="M144.425,445.077c-2.674,1.98-0.573,4.121,0.68,6.234
			c1.475-0.052,2.984-0.948,4.517-2.511C147.949,444.978,147.785,445.985,144.425,445.077z"/>
		<path fill-rule="evenodd" clip-rule="evenodd" fill="#FFFFFF" d="M100.474,486.155c-5.033,3.159-0.164,9.234,3.419,3.662
			C102.751,488.595,101.61,487.373,100.474,486.155z"/>
		<path fill-rule="evenodd" clip-rule="evenodd" fill="#FFFFFF" d="M124.153,467.445c-2.394,1.99-4.6,3.985-2.868,6.107
			c2.26,3.257,4.693,1.103,7.151-1.525C126.447,468.608,127.431,469.668,124.153,467.445z"/>
		<path fill-rule="evenodd" clip-rule="evenodd" fill="#FFFFFF" d="M78.247,513.777c2.283,2.423,4.542,5.555,6.906,5.555
			c1.527-1.43,3.054-2.851,4.587-4.278C89.484,507.973,79.014,505.713,78.247,513.777z"/>
		<path fill-rule="evenodd" clip-rule="evenodd" fill="#FFFFFF" d="M265.071,339.206c0.889,2.984,2.581,5.996-0.299,8.858
			c2.634,0.686,5.45-3.908,7.936,1.153c2.096-3.365-0.199-4.625,4.636-6.049c-2.307-1.251-6.806-0.961-4.272-4.579
			C270.461,337.23,267.564,344.06,265.071,339.206z"/>
		<path fill-rule="evenodd" clip-rule="evenodd" fill="#FFFFFF" d="M198.835,409.678c-2.113,2.883,2.428,5.991,3.242,8.977
			C207.571,415.517,201.685,407.859,198.835,409.678z"/>
		<path fill-rule="evenodd" clip-rule="evenodd" fill="#FFFFFF" d="M204.763,417.858c-3.008,1.451,7.983,18.945,13.449,21.735
			C215.648,438.282,211.991,425.816,204.763,417.858z"/>
		<path fill-rule="evenodd" clip-rule="evenodd" fill="#FFFFFF" d="M156.517,219.359c-6.356,4.161-3.453,13.329-3.348,20.281
			c0.093,7.331-0.86,15.757,1.896,22.236C153.239,247.626,157.98,233.592,156.517,219.359z"/>
		<path fill-rule="evenodd" clip-rule="evenodd" fill="#FFFFFF" d="M138.07,240.019c-4.88,2.545,1.112,7.075,2.33,9.832
			c3.371,7.564,9.194,23.406,12.418,26.136C148.481,264.603,147.224,248.61,138.07,240.019z"/>
		<path fill-rule="evenodd" clip-rule="evenodd" fill="#FFFFFF" d="M184.25,238.034c6.561,5.619,4.805,11.667,11.98,12.819
			c7.035-7.991-0.667-19.356-9.785-25.162c-27.132,2.742-31.041,37.204-27.576,54.937c0.749,2.861,0.825,2.861,1.767,0.058
			C160.192,267.361,162.896,239.275,184.25,238.034z"/>
		<path fill-rule="evenodd" clip-rule="evenodd" fill="#FFFFFF" d="M177.842,244.023c-7.631,6.845-8.965,21.563-11.704,31.527
			c7.086-4.205,12.747-16.108,22.953-23.167c-4.402-1.142-9.001,3.792-13.56,7.523C175.22,254.576,176.121,249.288,177.842,244.023z
			"/>
		<path fill-rule="evenodd" clip-rule="evenodd" fill="#FFFFFF" d="M200.936,243.032c8.041-1.849,16.258-8.837,24.182-7.16
			C220.91,228.875,208.672,233.147,200.936,243.032z"/>
		<path fill-rule="evenodd" clip-rule="evenodd" fill="#FFFFFF" d="M81.086,456.231c7.677,10.869,19.716,23.011,27.266,32.85
			C105.8,476.874,98.239,464.5,92.75,452.193c16.989,4.624,34.002,8.521,50.95,14.14c-12.927-10.89-33.604-20.073-49.551-29.167
			c6.268-3.588,17.434-14.292,26.376-19.5c-10.915-0.586-22.052,5.323-33.101,8.63c-4.085-15.215-0.855-30.179-4.67-45.385
			c-2.622,13.806-4.577,27.63-7.614,41.424c-7.696-9.083-11.43-15.725-20.419-25.522c2.967,10.742,8.65,21.571,13.098,32.365
			c-5.338,0.484-10.64-0.095-15.89-2.307c0.732,5.554,9.206,6.666,12.952,10.188c-5.776,4.912-11.446,6.345-17.211,10.951
			c6.7,2.761,13.53,2.008,20.277,3.341c0.024,15.966-1.744,31.867-3.388,47.773C71.775,488.425,74.631,469.91,81.086,456.231z"/>
		<path fill-rule="evenodd" clip-rule="evenodd" fill="#FFFFFF" d="M165.856,335.843c3.208,13.409,5.537,26.792,13.718,40.371
			c0.896-1.45-0.07-2.961,1.029-4.401c3.605,7.81,4.355,15.521,9.85,23.391c6.478-6.455-0.791-14.825-2.827-21.377
			c-4.237-13.679-8.111-27.764-10.955-42.94c-2.329-12.417,1.007-25.451-14.069-29.735c-12.653,14.052-1.252,28.923,1.194,43.489
			C167.08,345.264,163.914,338.2,165.856,335.843z"/>
		<path fill-rule="evenodd" clip-rule="evenodd" fill="#FFFFFF" d="M130.438,334.644c-3.137,4.724-9.141,21.432-0.908,26.57
			C129.174,352.336,128.214,343.434,130.438,334.644z"/>
		<path fill-rule="evenodd" clip-rule="evenodd" fill="#FFFFFF" d="M206.086,274.246c1.943,2.438,7.707,2.568,12.278,3.964
			c4.893,1.487,9.645,4.578,14.052,4.021C227.248,273.461,214.466,273.95,206.086,274.246z"/>
		<path fill-rule="evenodd" clip-rule="evenodd" fill="#FFFFFF" d="M32.084,436.838c2.195,5.343,11.577,0.678,16.796,1.458
			C50.087,438.166,36.802,434.573,32.084,436.838z"/>
		<path fill-rule="evenodd" clip-rule="evenodd" fill="#FFFFFF" d="M156.586,347.944c-2.399,2.531-0.415,10.789,0.317,16.864
			c0.737,6.143-0.035,15.166,5.688,15.263C161.421,369.391,157.991,358.633,156.586,347.944z"/>
		<path fill-rule="evenodd" clip-rule="evenodd" fill="#FFFFFF" d="M228.693,287.422c8.802,5.975,17.48,17.094,25.733,25.705
			c4.319-2.295-0.843-7.884-2.329-9.833C246.607,296.145,234.352,289.072,228.693,287.422z"/>
		<path fill-rule="evenodd" clip-rule="evenodd" fill="#FFFFFF" d="M112.963,431.594c3.938-0.877,11.272,1.078,12.513-3.118
			C121.438,425.7,117.153,429.92,112.963,431.594z"/>
		<path fill-rule="evenodd" clip-rule="evenodd" fill="#FFFFFF" d="M107.404,438.505c3.3,2.5,18.417,9.527,21.993,5.173
			C125.528,438.81,114.239,441.701,107.404,438.505z"/>
		<path fill-rule="evenodd" clip-rule="evenodd" fill="#FFFFFF" d="M157.406,402.066c-0.877,1.145,0.357,1.393,0.86,0.917
			c3.131,2.469,2.359,4.804,1.534,7.138c3.289-1.064,6.53-0.783,9.65,2.997c-1.042-3.878-3.617-7.812,3.055-11.428
			c-3.71-0.511-7.433-0.363-8.685-5.614C163.024,399.236,161.526,403.494,157.406,402.066z"/>
		<path fill-rule="evenodd" clip-rule="evenodd" fill="#FFFFFF" d="M84.03,474.069c-2.44,2.734-5.701,17.335,0.199,20.401
			C87.81,487.793,81.864,480.795,84.03,474.069z"/>
	</g>
	<g display="inline">
		<path fill-rule="evenodd" clip-rule="evenodd" fill="#FFFFFF" d="M409.432,42.262c12.954,3.028,11.781,20.19,15.637,32.323
			C419.246,64.968,410.463,53.25,409.432,42.262z"/>
		<path fill-rule="evenodd" clip-rule="evenodd" fill="#FFFFFF" d="M451.136,42.262c5.899,12.043-7.917,21.804-9.387,33.364
			C440.375,64.166,443.891,48.576,451.136,42.262z"/>
		<path fill-rule="evenodd" clip-rule="evenodd" fill="#FFFFFF" d="M476.16,42.262c-0.332,8.359-6.954,10.429-9.387,16.685
			C465.804,53.435,469.576,43.686,476.16,42.262z"/>
		<path fill-rule="evenodd" clip-rule="evenodd" fill="#FFFFFF" d="M394.825,47.476c1.047,0,2.089,0,3.13,0
			c13.307,11.364,19.188,30.168,25.021,49.007c-4.1-6.826-9.845-13.973-15.628-21.898C401.506,66.592,392.234,56.979,394.825,47.476
			z"/>
		<path fill-rule="evenodd" clip-rule="evenodd" fill="#FFFFFF" d="M427.152,51.646c1.042,0,2.084,0,3.126,0
			c4.84,12.329,2.439,33.439,4.167,40.664c-3.369-0.91-2.6-5.808-3.121-8.339c-1.728-8.369-3.544-19.012-5.213-29.197
			C425.818,53.089,427.094,52.978,427.152,51.646z"/>
		<path fill-rule="evenodd" clip-rule="evenodd" fill="#FFFFFF" d="M397.955,78.756c-7.259-7.342-20.228-8.967-22.935-20.854
			C387.78,55.655,393.979,68.766,397.955,78.756z"/>
		<path fill-rule="evenodd" clip-rule="evenodd" fill="#FFFFFF" d="M455.303,65.203c0.642,18.062-12.128,31.63-16.68,47.964
			c-0.381-17.069,3.719-38.675,13.554-49.009C453.861,63.864,453.968,65.144,455.303,65.203z"/>
		<path fill-rule="evenodd" clip-rule="evenodd" fill="#FFFFFF" d="M491.797,64.158c-2.834,9.676-13.744,11.278-20.853,16.683
			C476.694,74.078,480.404,65.278,491.797,64.158z"/>
		<path fill-rule="evenodd" clip-rule="evenodd" fill="#FFFFFF" d="M503.268,75.625c-3.443,5.249-12.046,5.342-17.723,8.345
			C489.159,79.462,497.493,71.356,503.268,75.625z"/>
		<path fill-rule="evenodd" clip-rule="evenodd" fill="#FFFFFF" d="M407.348,114.207c-12.21-11.429-29.309-17.967-40.673-30.236
			c0-1.045,0-2.083,0-3.13c0.838-0.55,1.695-1.086,3.132-1.042C386.87,86.716,397.581,99.99,407.348,114.207z"/>
		<path fill-rule="evenodd" clip-rule="evenodd" fill="#FFFFFF" d="M477.2,89.182c-6.46,17.171-25.097,22.174-34.41,36.495
			c-1.041-4.708,4.577-12.48,9.387-18.768c4.392-5.742,9.523-12.559,13.553-15.64C468.39,89.238,472.508,86.882,477.2,89.182z"/>
		<path fill-rule="evenodd" clip-rule="evenodd" fill="#FFFFFF" d="M498.057,90.227c-4.536,10.063-18.897,10.297-27.112,16.682
			c-0.764-3.629,14.582-18.065,20.853-18.766C494.333,87.855,496.223,88.574,498.057,90.227z"/>
		<path fill-rule="evenodd" clip-rule="evenodd" fill="#FFFFFF" d="M428.194,127.763c-5.666-4.869-7.761-12.093-12.513-17.727
			c-4.542-5.384-11.393-8.875-14.595-15.64c0.534-1.543,1.538-2.626,2.083-4.17c0.696,0,1.393,0,2.085,0
			C417.187,98.455,423.988,111.809,428.194,127.763z"/>
		<path fill-rule="evenodd" clip-rule="evenodd" fill="#FFFFFF" d="M510.569,104.823c-5.228,6.986-16.328,6.054-25.024,8.344
			c-8.733,2.293-16.533,6.319-23.981,8.34c7.391-5.618,21.236-15.136,32.322-18.768C498.384,101.261,507.747,97.637,510.569,104.823
			z"/>
		<path fill-rule="evenodd" clip-rule="evenodd" fill="#FFFFFF" d="M411.511,128.805c-15.082-10.633-42.654-8.785-56.296-20.854
			c-0.302-1.682,0.979-1.794,1.033-3.127C380.708,102.636,398.662,115.913,411.511,128.805z"/>
		<path fill-rule="evenodd" clip-rule="evenodd" fill="#FFFFFF" d="M523.082,115.251c-1.315,7.129-8.247,3.286-11.47,3.125
			c-6.479-0.321-11.139-0.981-18.773-1.042C499.996,112.68,515.02,110.241,523.082,115.251z"/>
		<path fill-rule="evenodd" clip-rule="evenodd" fill="#FFFFFF" d="M595.024,119.421c2.945-0.164,2.614,2.948,4.173,4.169
			c-5.668,11.363-12.698,21.366-18.774,32.323C581.933,144.555,590.531,131.263,595.024,119.421z"/>
		<path fill-rule="evenodd" clip-rule="evenodd" fill="#FFFFFF" d="M503.268,126.716c-1.14,5.526-8.589,4.82-13.556,5.216
			c-13.888,1.113-28.422-0.421-39.619,1.044C462.981,127.242,490.268,115.959,503.268,126.716z"/>
		<path fill-rule="evenodd" clip-rule="evenodd" fill="#FFFFFF" d="M400.045,130.889c-12.683,1.227-29.776,3.588-42.745,1.044
			c0.837-8.478,12.473-6.847,19.805-6.256C385.722,126.371,394.845,129.812,400.045,130.889z"/>
		<path fill-rule="evenodd" clip-rule="evenodd" fill="#FFFFFF" d="M576.256,132.977c1.772-0.384,1.967,0.813,2.084,2.084
			c-5.473,7.736-7.892,18.52-13.554,26.066C566.042,153.34,570.521,139.759,576.256,132.977z"/>
		<path fill-rule="evenodd" clip-rule="evenodd" fill="#FFFFFF" d="M526.208,143.401c-13.242,3.417-21.48-6.948-35.453-6.256
			C499.792,133.036,524.523,133.43,526.208,143.401z"/>
		<path fill-rule="evenodd" clip-rule="evenodd" fill="#FFFFFF" d="M402.129,139.23c-2.084,3.649-8.939,2.724-14.597,4.17
			c-11.333,2.903-26.085,13.846-38.589,10.428C357.64,139.927,380.269,139.969,402.129,139.23z"/>
		<path fill-rule="evenodd" clip-rule="evenodd" fill="#FFFFFF" d="M465.729,141.317c15.289-0.423,35.259,2.113,47.967,8.34
			c3.864,1.896,10.379,3.855,9.386,9.386c-9.849,4.611-18.617-4.668-27.117-8.342C486.129,146.449,475.843,144.958,465.729,141.317z
			"/>
		<path fill-rule="evenodd" clip-rule="evenodd" fill="#FFFFFF" d="M415.682,141.317c1.198,0.37,2.64,1.835,1.043,2.084
			c-12.503,2.848-21.967,14.106-35.448,12.512c0.093-7.064,8.842-8.803,14.596-10.426
			C402.382,143.654,410.087,143.62,415.682,141.317z"/>
		<path fill-rule="evenodd" clip-rule="evenodd" fill="#FFFFFF" d="M534.548,144.447c4.095,1.465,1.231,9.886,2.088,14.596
			C533.501,156.451,532.565,149.039,534.548,144.447z"/>
		<path fill-rule="evenodd" clip-rule="evenodd" fill="#FFFFFF" d="M445.917,145.487c7.077,3.308,15.476,8.581,20.856,14.598
			c4.459,4.976,9.736,12.229,8.344,19.81c-8.072-2.278-11.296-10.998-15.638-16.682
			C454.903,157.242,448.954,152.388,445.917,145.487z"/>
		<path fill-rule="evenodd" clip-rule="evenodd" fill="#FFFFFF" d="M418.812,147.573c2.663-0.046,1.271,0.774,1.042,2.084
			c-11.606,5.558-19.693,14.309-28.155,22.94c-8.086,8.252-14.701,19.172-26.065,23.982c1.455-14.231,13.312-22.044,21.898-29.197
			C396.968,159.518,406.816,152.256,418.812,147.573z"/>
		<path fill-rule="evenodd" clip-rule="evenodd" fill="#FFFFFF" d="M428.194,148.615c0.487,4.83-4.674,8.389-7.298,12.512
			c-2.722,4.274-4.854,9.002-7.297,13.556c-4.86,9.048-7.864,21.55-17.728,25.024C396.54,176.672,414.719,162.3,428.194,148.615z"/>
		<path fill-rule="evenodd" clip-rule="evenodd" fill="#FFFFFF" d="M435.492,148.615c3.715,9.805,12.425,24.688,7.298,36.495
			c-6.412-1.314-6.563-12.328-7.298-19.81C434.83,158.513,434.723,152.052,435.492,148.615z"/>
		<path fill-rule="evenodd" clip-rule="evenodd" fill="#FFFFFF" d="M464.688,152.787c7.304,0.73,16.233,5.497,23.982,10.426
			c6.816,4.333,16.904,10.017,15.639,18.766c-8.316,0.248-13.759-8.301-19.806-13.554
			C478.048,162.828,471.145,157.529,464.688,152.787z"/>
		<path fill-rule="evenodd" clip-rule="evenodd" fill="#FFFFFF" d="M443.837,158.001c9.771,18.029,21.466,34.149,22.937,60.478
			c-10.001-1.733-12.035-17.697-14.597-27.113C449.1,180.051,446.485,168.157,443.837,158.001z"/>
		<path fill-rule="evenodd" clip-rule="evenodd" fill="#FFFFFF" d="M502.226,161.127c8.32,3.583,20.442,8.635,18.768,18.768
			c-8.71-2.234-10.735-11.458-16.684-16.682C503.501,162.5,501.607,163.24,502.226,161.127z"/>
		<path fill-rule="evenodd" clip-rule="evenodd" fill="#FFFFFF" d="M605.447,163.213c-4.897,4.487-10.287,8.479-17.721,10.426
			C592.585,169.885,597.648,157.322,605.447,163.213z"/>
		<path fill-rule="evenodd" clip-rule="evenodd" fill="#FFFFFF" d="M373.974,162.174c-5.906,6.251-10.657,13.67-20.852,15.638
			C356.229,168.749,364.834,165.192,373.974,162.174z"/>
		<path fill-rule="evenodd" clip-rule="evenodd" fill="#FFFFFF" d="M431.324,164.257c3.248,7.61,6.505,24.869,2.08,33.365
			c-4.792-4.786-4.188-11.149-4.168-14.602C429.266,178.206,430.375,172.953,431.324,164.257z"/>
		<path fill-rule="evenodd" clip-rule="evenodd" fill="#FFFFFF" d="M555.399,166.341c3.232,0.243,3.257,3.697,4.167,6.256
			c3.312-0.867,5.307-3.042,7.304-5.214c1.329,5.424-3.646,10.456-6.253,15.637c-2.638,5.244-3.578,11.919-8.344,14.602
			c-0.838-10.633-3.32-19.62-5.219-29.197c2.785,1.047,3.438,4.206,5.219,6.258C553.69,172.276,555.271,170.032,555.399,166.341z"/>
		<path fill-rule="evenodd" clip-rule="evenodd" fill="#FFFFFF" d="M457.386,168.425c10.059,13.259,25.428,26.675,25.03,46.923
			c-9.48-1.986-11.35-14.133-14.602-21.896C464.202,184.827,460.258,176.418,457.386,168.425z"/>
		<path fill-rule="evenodd" clip-rule="evenodd" fill="#FFFFFF" d="M570.005,168.425c2.444,6.31,0.214,14.191,0,16.685
			c4.206-0.999,8.295-2.128,12.502-3.13c-1.801,5.15-6.806,7.093-9.376,11.473c5.243-0.728,7.264,1.77,12.512,1.039
			c-6.747,3.686-17.084,3.778-26.076,5.217C562.762,188.994,566.397,178.727,570.005,168.425z"/>
		<path fill-rule="evenodd" clip-rule="evenodd" fill="#FFFFFF" d="M422.976,170.511c1.78-0.382,1.977,0.815,2.093,2.086
			c-4.313,17.235-3.758,39.342-13.558,51.09c-7.601-5.136-1.709-17.395,1.046-26.066
			C415.722,187.641,419.884,177.797,422.976,170.511z"/>
		<path fill-rule="evenodd" clip-rule="evenodd" fill="#FFFFFF" d="M484.504,177.812c7.619,7.38,19.893,15.477,17.722,29.196
			C492.669,200.922,490.623,187.329,484.504,177.812z"/>
		<path fill-rule="evenodd" clip-rule="evenodd" fill="#FFFFFF" d="M391.699,183.02c-0.535,5.415-4.265,12.011-7.297,18.774
			c-2.674,5.964-4.543,15.399-11.471,16.685C373.306,200.771,383.569,192.967,391.699,183.02z"/>
		<path fill-rule="evenodd" clip-rule="evenodd" fill="#FFFFFF" d="M632.556,183.02c-2.142,14.971-27.683,7.189-35.452,11.471
			c-1.335-2.986,4.187-3.5,6.26-4.167C612.015,187.548,623.958,185.426,632.556,183.02z"/>
		<path fill-rule="evenodd" clip-rule="evenodd" fill="#FFFFFF" d="M549.147,196.58c1.544,0.886,2.24,2.624,2.084,5.214
			c2.61,0.175,3.263-1.602,4.168-3.13c2.322,0.438,0.818,5.533,0,6.255c3.934,0.801,4.99-1.271,8.345-1.042
			c-1.052,2.78-4.207,3.437-6.256,5.215c1.299,2.18,3.033,3.917,5.214,5.213c-1.393,2.965-4.636-0.803-6.256-1.044
			c-2.342,0.441-0.024,5.533-2.089,6.256c-1.218-1.565-3.008-2.548-3.126-5.212c-2.609-0.175-3.271,1.602-4.177,3.126
			c-3.047-0.884,0.628-3.355,0-5.214c-3.286-0.507-3.681,1.879-7.294,1.043c1.559-2.616,4.685-3.658,7.294-5.214
			c-1.554-1.565-1.859-4.391-4.168-5.211c0.887-2.456,4.577,0.866,6.261,1.042C549.431,199.554,547.775,199.817,549.147,196.58z"/>
		<path fill-rule="evenodd" clip-rule="evenodd" fill="#FFFFFF" d="M442.79,199.708c5.151,4.735,7.459,21.735,3.127,29.194
			C437.993,224.077,444.962,212.597,442.79,199.708z"/>
		<path fill-rule="evenodd" clip-rule="evenodd" fill="#FFFFFF" d="M637.774,209.092c-16.427,0.187-21.889-1.495-40.671-1.045
			c9.979-4.272,24.809-3.697,36.494-6.253C634.726,204.493,637.375,205.669,637.774,209.092z"/>
		<path fill-rule="evenodd" clip-rule="evenodd" fill="#FFFFFF" d="M502.226,214.306c-3.724,3.574-10.059,4.538-15.639,6.256
			C486.987,213.658,496.374,215.751,502.226,214.306z"/>
		<path fill-rule="evenodd" clip-rule="evenodd" fill="#FFFFFF" d="M542.887,216.39c-3.266,9.245-7.618,17.403-10.423,27.108
			c-2.614-5.069,0.56-13.316,1.042-18.766c-5.312-3.191-11.855,1.326-18.77,0C523.291,221.122,532.604,218.264,542.887,216.39z"/>
		<path fill-rule="evenodd" clip-rule="evenodd" fill="#FFFFFF" d="M549.147,217.432c5.541,8.705,8.355,20.151,11.47,31.28
			c-2.667-2.201-4.615-5.117-6.26-8.34c-2.365,0.76-3.115,3.135-4.167,5.214c-2.504-3.651-1.616-5.1-2.085-11.47
			c-3.203-0.049-8.266,7.005-11.47,10.426C537.162,236.024,546.276,227.081,549.147,217.432z"/>
		<path fill-rule="evenodd" clip-rule="evenodd" fill="#FFFFFF" d="M558.524,217.432c8.248,3.23,13.954,8.992,21.898,12.517
			c-1.995,2.926-5.433-1.436-8.339-1.046c-1.894,2.308,2.965,6.723,3.131,10.428c-3.535-1.329-6.622-3.116-9.387-5.214
			c-3.302,1.911-0.906,9.522-3.126,12.512C560.633,237.578,559.314,227.772,558.524,217.432z"/>
		<path fill-rule="evenodd" clip-rule="evenodd" fill="#FFFFFF" d="M591.894,217.432c8.521,1.305,26.69,0.209,39.625,3.13
			c-0.511,3.291,1.874,3.681,1.037,7.298c-10.429-1.397-21.689-5.005-31.275-7.298C598.052,219.788,593.154,221.531,591.894,217.432
			z"/>
		<path fill-rule="evenodd" clip-rule="evenodd" fill="#FFFFFF" d="M500.142,227.86c3.978,2.7-4.266,4.445-7.303,6.256
			c-4.08,2.434-8.102,5.71-11.465,6.256c-0.425-2.008-4.047-0.823-3.131-4.172C485.866,233.741,493.315,231.117,500.142,227.86z"/>
		<path fill-rule="evenodd" clip-rule="evenodd" fill="#FFFFFF" d="M596.065,229.948c8.604,2.868,18.126,4.811,26.071,8.34
			c-2.921,7.799-9.064,2.249-13.559,0C603.962,235.976,597.97,233.156,596.065,229.948z"/>
		<path fill-rule="evenodd" clip-rule="evenodd" fill="#FFFFFF" d="M581.465,239.33c8.676,1.417,16.978,12.215,26.072,16.682
			c-0.229,3.357,1.844,4.411,1.041,8.342C598.058,257.495,591.168,247.008,581.465,239.33z"/>
		<path fill-rule="evenodd" clip-rule="evenodd" fill="#FFFFFF" d="M568.963,243.498c6.559,8.383,11.616,18.271,16.68,28.154
			C573.423,268.926,574.679,252.724,568.963,243.498z"/>
		<path fill-rule="evenodd" clip-rule="evenodd" fill="#FFFFFF" d="M515.78,248.712c1.731,4.542-4.908,9.671-6.258,14.601
			C504.026,258.448,513.891,252.933,515.78,248.712z"/>
		<path fill-rule="evenodd" clip-rule="evenodd" fill="#FFFFFF" d="M546.018,248.712c1.559,5.146,0.077,13.3-1.042,20.856
			C536.782,266.092,545.156,255.552,546.018,248.712z"/>
		<path fill-rule="evenodd" clip-rule="evenodd" fill="#FFFFFF" d="M529.333,254.967c-0.886,4.689-0.657,19.489-9.386,19.811
			C521.948,267.044,526.052,261.423,529.333,254.967z"/>
		<path fill-rule="evenodd" clip-rule="evenodd" fill="#FFFFFF" d="M479.284,56.863c3.379,10.745-8.145,17.495-14.596,25.024
			c-6.689,7.794-12.034,17.448-17.727,25.021c-1.183-0.2-0.579-1.044,0-1.044c3.073-8.881,8.301-20.098,13.556-29.197
			C464.912,69.054,470.327,59.034,479.284,56.863z"/>
		<path fill-rule="evenodd" clip-rule="evenodd" fill="#FFFFFF" d="M556.446,135.061c4.153,2.75-0.268,14.089-1.047,18.768
			C554.522,149.589,554.279,144.788,556.446,135.061z"/>
		<path fill-rule="evenodd" clip-rule="evenodd" fill="#FFFFFF" d="M608.578,140.275c-7.395,9.985-14.98,19.775-23.981,28.149
			c0.642-1.616,5.642-9.56,9.381-15.638C597.396,147.237,600.667,136.439,608.578,140.275z"/>
		<path fill-rule="evenodd" clip-rule="evenodd" fill="#FFFFFF" d="M524.124,181.979c2.619-1.193,8.899,2.887,12.512,4.172
			c-0.01-4.51-2.425-6.617-2.088-11.468c4.396,0.473,4.8,4.93,8.339,6.254c0.298-4.221,1.792-7.247,2.089-11.471
			c2.459,9.905,0.073,25.258,2.079,30.241C537.97,195.241,532.356,187.305,524.124,181.979z"/>
		<path fill-rule="evenodd" clip-rule="evenodd" fill="#FFFFFF" d="M622.137,172.597c-6.528,5.637-16.037,8.294-22.939,13.554
			C602.36,182.057,613.339,167.846,622.137,172.597z"/>
		<path fill-rule="evenodd" clip-rule="evenodd" fill="#FFFFFF" d="M524.124,210.133c-3.185-2.035-7.161-3.267-10.428-5.214
			c3.515-2.385,9.683-2.128,13.553-4.172c-1.247-6.397-5.307-9.981-6.256-16.68c7.025,7.22,12.779,15.715,19.81,22.94
			c-7.322,6.227-18.086,9.021-26.066,14.596C514.271,218.323,521.952,214.243,524.124,210.133z"/>
		<path fill-rule="evenodd" clip-rule="evenodd" fill="#FFFFFF" d="M562.702,208.047c8.768-3.396,17.264-7.062,26.066-10.426
			c-1.831,3.383-5.215,5.214-8.346,7.297c1.909,3.306,5.746,4.679,9.387,6.257c-2.021,3.191-7.624,2.804-12.512,3.13
			c0.886,5.365,3.067,9.44,5.209,13.554C576.685,224.637,567.658,215.611,562.702,208.047z"/>
		<path fill-rule="evenodd" clip-rule="evenodd" fill="#FFFFFF" d="M519.947,233.074c0.175,4.207-5.682,8.243-9.378,12.512
			c-3.621,4.172-6.776,11.242-11.471,10.426C500.063,242.381,514.125,241.842,519.947,233.074z"/>
	</g>
	<g display="inline">
		<path d="M423.03,256.7c-11.806,41.285-54.85,65.187-96.146,53.374c-41.284-11.81-65.194-54.851-53.381-96.146
			c11.813-41.284,54.854-65.179,96.152-53.374C410.941,172.366,434.834,215.409,423.03,256.7z"/>
		<path d="M513.797,300.309c-18.368-10.201-16.319,12.245-16.319,12.245c-22.321-6.505-25.411,18.882-24.838,38.025
			c-4.173,8.659-40.158,49.59-48.858,50.566c-15.704,1.751-55.642-30.685-69.801-38.502c-29.194-16.096-23.965-61.594-65.894-21.744
			c-15.044-39.874-34.049-79.833-44.14-121.277c-6.165-25.361-12.344-50.713-18.509-76.067c-3.6-14.796,29.804-38.266,15.271-56.506
			c-7.448-9.353-0.673-1.395-1.354-14.257c-1.007-19.119-44.233-10.484-54.118-7.264c-42.963,13.975-3.281,71.228,18.02,88.875
			c16.709,34.56,18.715,79.571,32.625,116.455c10.12,26.814,20.253,53.636,30.365,80.45c8.228,21.805-44.799,74.846-49.455,105.003
			c-6.051,39.16,46.188,117.385,18.914,146.069c-7.179,7.546-24.299,2.614-27.87,16.922c-3.6,14.363,2.112,43.934,8.801,57.029
			c24.249,47.395,57.228,26.899,39.541-19.586c-3.416-8.979-13.825-26.354-6.463-34.105c7.172-7.54,22.138-17.941,19.275-30.309
			c-5.655-24.461-11.311-48.923-16.965-73.384c31.562,14.362,76.481,82.435,76.481,118.367c0,27.438-1.637,55.408,0.078,82.789
			c-26.95,8.185,7.881,72.549,15.618,84.588c10.688,16.639,31.987,14.974,42.028-2.006c10.862-18.367-8.057-45.26-18.658-59.184
			c-19.125-25.112-14.952-39.271-14.952-73.257c0-60.851-22.278-89.322-54.067-141.916c56.096-8.582,49.588-102.687,48.229-142.119
			c29.081,16.037,70.254,56.608,98.074,27.836c12.939-13.39,28.897-38.299,45.365-46.965
			C533.085,366.94,562.373,327.3,513.797,300.309C495.429,290.107,532.157,310.516,513.797,300.309z M500.021,313.063
			C501.821,313.425,503.331,313.729,500.021,313.063L500.021,313.063z"/>
	</g>
</g>
<g id="Disengaged" display="none">
	<g display="inline">
		<g>
			<path opacity="0.8" fill="#FFFFFF" d="M618,284.432C618,260.998,599.003,242,575.569,242h-59.139
				C492.997,242,474,260.998,474,284.432v192.136C474,500.003,492.997,519,516.431,519h59.139C599.003,519,618,500.003,618,476.568
				V284.432z M564,427h-36v-92h36V427z"/>
			<path fill="#FFFFFF" d="M537.771,379.045l-40.148,24.079c-9.722-9.186-24.974-10.009-35.654-1.363
				c-11.649,9.421-13.449,26.508-4.02,38.153c9.422,11.649,26.512,13.457,38.152,4.036c8.013-6.482,11.37-16.585,9.618-26.049
				l40.711-24.417c0.347-0.21,0.664-0.433,0.973-0.682c3.204-2.596,4.104-7.224,1.919-10.869
				C546.931,377.945,541.756,376.646,537.771,379.045z"/>
			<path fill-rule="evenodd" clip-rule="evenodd" d="M242.981,396.65c46.857,0,84.839-37.981,84.839-84.834
				c0-46.854-37.982-84.84-84.839-84.84c-46.863,0-84.844,37.985-84.844,84.84C158.137,358.669,196.118,396.65,242.981,396.65z"/>
			<path fill-rule="evenodd" clip-rule="evenodd" d="M357.485,451.494c-0.505,0.605-0.771,0.912-0.926,1.097
				C356.867,452.223,357.485,451.494,357.485,451.494z"/>
			<path fill-rule="evenodd" clip-rule="evenodd" d="M356.56,452.591C356.38,452.81,356.337,452.853,356.56,452.591L356.56,452.591z
				"/>
			<g opacity="0.5">
				<path d="M520.583,285.016c0.262-2.403,0.841-4.464,1.734-6.186c0.896-1.719,2.181-3.059,3.87-4.027
					c1.687-0.965,3.95-1.448,6.794-1.448c2.837,0,5.107,0.483,6.787,1.448c1.688,0.968,2.974,2.309,3.874,4.027
					c0.89,1.722,1.472,3.782,1.738,6.186c0.258,2.404,0.394,5.03,0.394,7.871c0,2.879-0.136,5.509-0.394,7.896
					c-0.267,2.391-0.849,4.443-1.738,6.161c-0.9,1.722-2.186,3.038-3.874,3.95c-1.68,0.913-3.95,1.367-6.787,1.367
					c-2.844,0-5.107-0.454-6.794-1.367c-1.689-0.912-2.974-2.228-3.87-3.95c-0.894-1.718-1.473-3.77-1.734-6.161
					c-0.266-2.387-0.394-5.017-0.394-7.896C520.189,290.046,520.317,287.42,520.583,285.016z M527.951,299.334
					c0.12,1.774,0.37,3.213,0.738,4.319s0.891,1.915,1.576,2.42c0.686,0.51,1.594,0.767,2.716,0.767
					c1.124,0,2.023-0.257,2.709-0.767c0.684-0.505,1.212-1.315,1.585-2.42c0.368-1.105,0.607-2.545,0.736-4.319
					c0.121-1.77,0.181-3.92,0.181-6.448s-0.06-4.667-0.181-6.423c-0.129-1.752-0.368-3.191-0.736-4.318
					c-0.373-1.123-0.901-1.937-1.585-2.446c-0.686-0.51-1.585-0.763-2.709-0.763c-1.122,0-2.03,0.253-2.716,0.763
					c-0.686,0.509-1.208,1.323-1.576,2.446c-0.368,1.127-0.618,2.566-0.738,4.318c-0.118,1.756-0.179,3.895-0.179,6.423
					S527.833,297.565,527.951,299.334z"/>
				<path d="M568.148,299.836h0.103v-25.745h6.949v37.592h-8.637l-9.264-26.324h-0.103v26.324h-6.948v-37.592h8.738L568.148,299.836
					z"/>
			</g>
			<g opacity="0.5">
				<path d="M511.852,463.396c0.262-2.403,0.839-4.465,1.734-6.188c0.896-1.717,2.186-3.058,3.87-4.027
					c1.688-0.963,3.95-1.448,6.794-1.448c2.841,0,5.107,0.485,6.787,1.448c1.688,0.969,2.974,2.31,3.872,4.027
					c0.896,1.723,1.475,3.784,1.74,6.188c0.267,2.404,0.394,5.03,0.394,7.869c0,2.881-0.127,5.512-0.394,7.897
					c-0.266,2.391-0.845,4.443-1.74,6.161c-0.898,1.722-2.185,3.037-3.872,3.95c-1.68,0.912-3.946,1.366-6.787,1.366
					c-2.844,0-5.106-0.454-6.794-1.366c-1.685-0.913-2.974-2.229-3.87-3.95c-0.896-1.718-1.473-3.771-1.734-6.161
					c-0.266-2.386-0.394-5.017-0.394-7.897C511.458,468.427,511.586,465.801,511.852,463.396z M519.22,477.715
					c0.12,1.774,0.368,3.214,0.737,4.319c0.369,1.104,0.892,1.915,1.577,2.421c0.687,0.509,1.593,0.766,2.716,0.766
					c1.124,0,2.021-0.257,2.707-0.766c0.686-0.506,1.209-1.316,1.578-2.421c0.368-1.105,0.616-2.545,0.736-4.319
					c0.128-1.77,0.188-3.921,0.188-6.449c0-2.525-0.061-4.664-0.188-6.421c-0.12-1.752-0.368-3.192-0.736-4.319
					c-0.369-1.121-0.893-1.936-1.578-2.446c-0.686-0.509-1.583-0.763-2.707-0.763c-1.123,0-2.029,0.254-2.716,0.763
					c-0.686,0.511-1.208,1.325-1.577,2.446c-0.369,1.127-0.617,2.567-0.737,4.319c-0.12,1.757-0.184,3.896-0.184,6.421
					C519.036,473.794,519.1,475.945,519.22,477.715z"/>
				<path d="M562.522,452.471v6.212H549.1v8.848h12.631v6.212H549.1v16.319h-7.584v-37.591H562.522z"/>
				<path d="M586.897,452.471v6.212h-13.419v8.848h12.63v6.212h-12.63v16.319h-7.584v-37.591H586.897z"/>
			</g>
			<path fill-rule="evenodd" clip-rule="evenodd" d="M239.519,431.054c-17.45,0.18-21.276-27.66-46.537-12.249
				c-16.161,9.854-112.996,53.568-100.546,76.712c5.51,10.244,22.51,35.021,38.294,60.556c-0.12,11.396,2.22,23.961-5.896,33.208
				c-16.135-2.828-35.329,21.829-16.187,35.261c0.412,8.65-10.325,7.352-7.025,18.568c7.711,7.78,26.079,3.625,33.007,12.283
				c16.357-3.891,21.726-15.462,26.837-31.028c-0.059,0.348-0.094,0.726-0.184,1.043c-12.18,41.215-24.031,82.474-37.595,123.251
				c-5.938,17.85-9.786,48.945-21.281,63.949c-22.369,16.381-68.048,28.106-78.862,55.689
				c-14.687,37.449,60.641,19.219,73.366,10.818c36.592-24.151,42.308-38.672,38.096-79.618l-0.565,0.211
				c9.01-27.074,18.736-53.997,26.82-81.365c6.645-22.472,13.29-44.946,19.931-67.419c6.958-23.534,29.005-9.169,52.213-13.548
				c0.849,24.962,3.406,50.437,2.413,75.39c-0.985,24.59-13.719,74.586-3.882,97.216c9.974,24.558,53.05,35.681,79.082,40.959
				c59.912,12.155,69.529-34.202,10.41-47.883c-13.406-3.102-62.681-4.784-62.03-21.078c1.045-26.22,3.47-52.703,2.58-78.944
				c-0.96-27.999-10.661-63.901,7.454-84.699c36.648-42.072,4.773-118.608-16.323-160.449 M172.554,459.035
				c-11.147,27.496-18.697,58.032-23.222,87.406c-1.35-1.067-2.682-1.938-3.967-2.597l-27.639-51.37L172.554,459.035z"/>
			<path fill-rule="evenodd" clip-rule="evenodd" d="M226.794,451.456c20.592,5.912,82.285,36.695,101.78,24.019
				c4.13-2.691,28.114-17.139,49.202-32.733c2.03,0.509,4.353,1.293,7.096,2.536c16.931,7.661,37.667,13.812,58.593,5.489
				c20.915-8.334-0.926-27.472-0.926-27.472l6.872-3.368c48.155-4.301,43.562-19.622,43.562-19.622
				c-6.024-21.619-42.175-12.721-42.175-12.721c-8.8-20.774-34.516-10.411-34.516-10.411c-15.561-9.43-34.381,8.594-44.334,19.391
				c-4.384,4.76-5.562,10.729-5.501,15.921c-20.745,15.848-40.737,39.609-69.639,31.216c-25.089-7.284-50.186-14.576-75.276-21.86"
				/>
		</g>
	</g>
</g>
<g id="Bored">
	<g>
		<g>
			<path d="M419.743,312.913c0,46.76-37.911,84.67-84.666,84.67c-46.765,0-84.675-37.911-84.675-84.67s37.911-84.666,84.675-84.666
				C381.832,228.247,419.743,266.153,419.743,312.913z"/>
			<path d="M269.994,785.199c0,0-82.858,12.606-90.068,25.218c-7.204,12.606-7.009,21.389,12.621,30.625
				c30.616,14.409,102.67-19.81,109.88-27.919c7.199-8.107,17.842-19.593,0-27.924C284.584,776.866,269.994,785.199,269.994,785.199
				z"/>
			<g>
				<path d="M453.735,832.041c-61.488-26.365-25.09-70.062-44.179-121.943c27.743-11.818,41.365-3.734,42.005-44.108
					C452.015,637.4,431,628.332,431,600.841c0-32.3,0-64.599,0-96.896c0-30.978-16.1-35.599-41.68-51.094
					c-29.723-17.994-53.408-62.077-81.495-17.651c-22.199,14.891-54.42,22.422-79.115,32.622
					c-25.527,10.548-28.187,2.158-51.841-14.114c-7.471-5.135-27.816-14.038-32.287-22.178c6.339-8.023,6.296-16.08-0.081-24.174
					c-0.323-21.503,4.773-8.503,13.951-23.192c-3.985-26.463-35.657-14.219-33.917,7.862c-5.431-6.715-9.454-14.186-12.069-22.403
					c6.183-4.736,22.27-17.947,12.82-27.715c-14.447-14.931-43.17,23.293-27.563,38.129c6.525,2.568,12.56,5.983,18.114,10.258
					c-5.554-4.27-11.589-7.69-18.104-10.258c2.007,1.917-14.396,20.059-15.046,21.229c-15.351,27.625,1.265,30.282,21.723,44.397
					c19.354,13.348,48.961,23.825,73.576,40.76c40.022,27.528,67.223,2.941,110.136-14.791
					c-13.202,29.08-23.996,60.942-25.242,93.107c-0.846,21.88,24.918,56.057,19.963,68.722
					c-13.791,35.241-28.133,59.181-20.866,96.302c3.657,18.675,7.314,37.35,10.965,56.033c3.781,19.316,29.522,14.054,25.728-5.331
					c-7.724-39.479-18.774-67.384-4.176-104.694c3.89-9.926,9.045-39.7,20.829-37.679c14.865,2.564,30.738,3.703,45.541-0.051
					c5.285,4.384-4.634,11.691,4.496,15.211c14.579,21.438,21.713,64.438,22.597,90.883c0.627,18.968,1.257,37.947,1.889,56.921
					c1.517,45.613,0.918,36.271,29.897,70.614c14.575,17.267,59.052,30.23,78.274,13.989
					C521.966,865.434,466.593,837.547,453.735,832.041C441.133,826.633,466.347,837.438,453.735,832.041z M117.354,343.286
					c-4.495,3.619,0.1,12.811-7.576,12.754C116.166,352.364,110.107,343.22,117.354,343.286z M106.692,373.403
					c8.256-11.898,17.195-14.324,17.12-29.917c8.236,10.195-12.84,23.772-17.187,30.021
					C106.616,373.502,106.702,373.403,106.692,373.403C109.821,368.894,106.702,373.403,106.692,373.403z M111.353,374.948
					c4.156,4.128,6.886,14.304,11.632,19.05C118.225,389.272,115.509,379.085,111.353,374.948z M393.355,655.274
					c1.203-0.065,1.953-0.121,1.953-0.121c-0.636,0.251-1.188,0.547-1.74,0.841L393.355,655.274
					C394.559,655.209,393.355,655.274,393.355,655.274z M403.993,624.607c-1.809,4.323-6.23,9.083-16.738,10.023
					c-3.244-19.173,13.677-38.441,13.182-61.518c-0.686-31.938-9.903-63.871-19.317-94.126
					C431.231,494.137,392.836,585.633,403.993,624.607C402.185,628.931,403.66,623.458,403.993,624.607z"/>
				<path d="M97.581,379.965L97.581,379.965c0.048,0.024,0.104,0.052,0.152,0.071C97.695,379.998,97.638,379.975,97.581,379.965
					C97.581,379.965,97.629,379.989,97.581,379.965z"/>
			</g>
			<g>
				<polygon fill-rule="evenodd" clip-rule="evenodd" fill="#FFFFFF" points="3.225,391.114 190.411,324.838 242.365,368.502 				
					"/>
				<polyline fill-rule="evenodd" clip-rule="evenodd" fill="#FFFFFF" points="112.931,315.74 156,310.223 156,332.738 
					2.951,391.114 				"/>
			</g>
			<g>
				<polygon fill-rule="evenodd" clip-rule="evenodd" fill="#FFFFFF" points="639.043,817.88 519.715,794.651 492.191,825.783 				
					"/>
				<polyline fill-rule="evenodd" clip-rule="evenodd" fill="#FFFFFF" points="565.688,782.162 538.998,782.727 541.034,796.363 
					639.043,817.88 				"/>
			</g>
			<g>
				<polygon fill-rule="evenodd" clip-rule="evenodd" fill="#FFFFFF" points="81.46,762.273 166.097,697.823 199.747,711.585 				
					"/>
				<polyline fill-rule="evenodd" clip-rule="evenodd" fill="#FFFFFF" points="125.181,705.832 146.344,695.934 150.034,707.426 
					81.46,762.273 				"/>
			</g>
		</g>
	</g>
</g>
<g id="Deflated" display="none">
	<g display="inline">
		<g>
			<g>
				<path fill-rule="evenodd" clip-rule="evenodd" fill="#FFFFFF" d="M252.869,116.532c3.873,1.667,7.553,14.889-1.323,12.789
					C248.236,125.954,251.097,119.594,252.869,116.532z"/>
				<path fill-rule="evenodd" clip-rule="evenodd" fill="#FFFFFF" d="M304.561,116.532c2.56,0.878,6.66,10.72,2.667,12.789
					C299.939,133.097,301.188,118.976,304.561,116.532z"/>
				<path fill-rule="evenodd" clip-rule="evenodd" fill="#FFFFFF" d="M344.273,116.532c1.872,1.18,6.292,9.152,3.188,12.259
					c-0.863,0.862-2.89,1.351-4.526,0.53C339.021,127.352,342.548,118.629,344.273,116.532z"/>
				<path fill-rule="evenodd" clip-rule="evenodd" fill="#FFFFFF" d="M370.112,116.532c3.913,1.621,7.541,14.901-1.332,12.789
					C365.482,125.954,368.344,119.594,370.112,116.532z"/>
				<path fill-rule="evenodd" clip-rule="evenodd" fill="#FFFFFF" d="M406.888,116.532c2.044,1.212,6.124,8.044,3.729,11.719
					c-0.897,1.384-3.524,2.095-5.332,0.801C401.712,126.513,405.578,119.116,406.888,116.532z"/>
				<path fill-rule="evenodd" clip-rule="evenodd" fill="#FFFFFF" d="M221.427,118.396c1.54,1.866,5.549,6.54,3.999,11.188
					c-0.587,1.774-3.238,2.914-5.336,1.869C216.033,129.404,219.94,120.696,221.427,118.396z"/>
				<path fill-rule="evenodd" clip-rule="evenodd" fill="#FFFFFF" d="M357.06,118.928c3.934,1.784,6.981,15.668-1.606,12.789
					C352.525,128.063,355.126,121.774,357.06,118.928z"/>
				<path fill-rule="evenodd" clip-rule="evenodd" fill="#FFFFFF" d="M319.487,119.458c3.348,1.751,7.923,13.844-0.803,13.061
					C314.508,129.745,317.678,122.541,319.487,119.458z"/>
				<path fill-rule="evenodd" clip-rule="evenodd" fill="#FFFFFF" d="M267.534,123.458c2.942,2.179,5.722,8.634,2.931,12.523
					C261.97,139.186,264.6,126.312,267.534,123.458z"/>
				<path fill-rule="evenodd" clip-rule="evenodd" fill="#FFFFFF" d="M357.06,133.848c2.322,1.455,6.537,10.309,2.668,12.794
					c-0.977,0.617-2.854,0.962-4.274,0C351.771,144.138,355.657,136.265,357.06,133.848z"/>
				<path fill-rule="evenodd" clip-rule="evenodd" fill="#FFFFFF" d="M319.487,137.317c3.849,1.778,6.837,13.908,0.264,13.319
					C314.03,150.132,317.48,140.003,319.487,137.317z"/>
				<path fill-rule="evenodd" clip-rule="evenodd" fill="#FFFFFF" d="M344.273,141.575c1.649,1.431,6.435,9.264,3.188,12.526
					c-0.867,0.878-2.903,1.348-4.526,0.533C338.857,152.584,342.763,143.856,344.273,141.575z"/>
				<path fill-rule="evenodd" clip-rule="evenodd" fill="#FFFFFF" d="M267.534,142.379c4.042,1.695,6.75,15.074-0.549,13.317
					C262.16,154.538,265.653,144.742,267.534,142.379z"/>
				<path fill-rule="evenodd" clip-rule="evenodd" fill="#FFFFFF" d="M221.427,143.707c1.613,1.725,5.895,7.391,3.732,11.726
					c-0.687,1.382-3.146,2.295-5.069,1.333C216.025,154.718,219.959,146.029,221.427,143.707z"/>
				<path fill-rule="evenodd" clip-rule="evenodd" fill="#FFFFFF" d="M407.155,149.307c2.097,1.778,6.538,10.141,2.66,12.786
					c-1.521,1.046-3.732,0.729-4.793-0.262C401.863,158.894,405.831,151.353,407.155,149.307z"/>
				<path fill-rule="evenodd" clip-rule="evenodd" fill="#FFFFFF" d="M370.379,152.77c1.807,2.153,6.302,8.661,3.199,12.255
					c-1.328,1.535-3.982,1.525-5.329,0.271C365.06,162.32,369.11,154.837,370.379,152.77z"/>
				<path fill-rule="evenodd" clip-rule="evenodd" fill="#FFFFFF" d="M253.135,154.634c2.113,1.777,6.51,10.163,2.67,12.788
					c-1.546,1.062-3.727,0.71-4.808-0.268C247.83,164.252,251.818,156.684,253.135,154.634z"/>
				<path fill-rule="evenodd" clip-rule="evenodd" fill="#FFFFFF" d="M304.824,158.898c3.427,2.023,6.551,13.499,0.276,13.324
					C299.207,172.054,302.287,161.388,304.824,158.898z"/>
				<path fill-rule="evenodd" clip-rule="evenodd" fill="#FFFFFF" d="M267.534,159.698c3.617,1.232,7.171,15.173-0.549,13.325
					C262.184,171.867,265.804,161.795,267.534,159.698z"/>
				<path fill-rule="evenodd" clip-rule="evenodd" fill="#FFFFFF" d="M407.155,170.088c1.795,2.137,6.308,8.692,3.201,12.257
					c-1.285,1.457-3.67,1.554-5.071,0.538C401.759,180.305,405.717,172.067,407.155,170.088z"/>
				<path fill-rule="evenodd" clip-rule="evenodd" fill="#FFFFFF" d="M304.824,176.223c1.979,1.898,6.564,10.124,2.667,12.788
					c-1.54,1.052-3.432,0.771-4.53,0C299.422,186.497,303.387,178.201,304.824,176.223z"/>
				<path fill-rule="evenodd" clip-rule="evenodd" fill="#FFFFFF" d="M344.273,177.283c2.56,2.459,5.586,8.451,2.923,12.793
					c-0.987,0.511-2.385,0.628-3.993,0.529C339.351,187.456,342.384,180.298,344.273,177.283z"/>
				<path fill-rule="evenodd" clip-rule="evenodd" fill="#FFFFFF" d="M221.427,182.616c2.602,2.423,4.721,6.583,3.732,11.722
					C217.236,200.934,217.447,186.1,221.427,182.616z"/>
				<path fill-rule="evenodd" clip-rule="evenodd" fill="#FFFFFF" d="M319.751,186.346c3.223,2.312,7.478,14.971-1.598,13.051
					C314.813,195.891,317.731,189.283,319.751,186.346z"/>
				<path fill-rule="evenodd" clip-rule="evenodd" fill="#FFFFFF" d="M267.534,194.072c3.733,2.227,6.623,13.63,0.263,13.317
					C262.073,207.119,265.428,196.824,267.534,194.072z"/>
				<path fill-rule="evenodd" clip-rule="evenodd" fill="#FFFFFF" d="M357.06,194.605c1.787,1.643,5.972,7.943,3.731,11.725
					c-0.865,1.466-3.551,2.283-5.338,1.06C351.76,204.862,355.657,197.033,357.06,194.605z"/>
				<path fill-rule="evenodd" clip-rule="evenodd" fill="#FFFFFF" d="M304.824,202.864c2.035,1.86,6.573,10.124,2.667,12.794
					c-1.506,1.027-3.451,0.785-4.53,0C299.453,213.088,303.38,204.866,304.824,202.864z"/>
			</g>
			<path fill-rule="evenodd" clip-rule="evenodd" fill="#FFFFFF" d="M398.211,66.187c1.768-19.34-18.108-17.042-31.152-21.571
				c13.03-47.593-51.316-57.271-67.102-26.791C288-3.586,247.732,4.638,242.432,29.396c-7.186,0-12.71-5.382-21.566,0
				c-20.786,17.223-28.951,94.353,31.157,74.713c-2.051,7.645,3.778,6.426,4.792,11c0,0,24.273,3.745,39,0.834
				c15.854,3.081,29.806-1.872,40.092-8.768c20.646,28.865,54.274,12.973,83.877,2.279
				C439.443,102.351,433.337,55.14,398.211,66.187z"/>
			<g>
				<path d="M391.004,303.938c6.078,45.956-26.257,88.146-72.227,94.219c-45.962,6.072-88.146-26.252-94.225-72.211
					c-6.07-45.968,26.26-88.154,72.221-94.23C342.745,225.64,384.929,257.974,391.004,303.938z"/>
				<path d="M465.127,626.641c-8.305-28.682,26.091-36.411,28.64-65.771c2.94-33.796-12.473-69.468-25.554-99.617
					c-12.637-29.112-53.868-112.638-83.369-51.665c-30.57,63.169-23.718,124.645-29.142,191.352
					c-1.063,12.986-2.875,26.305-20.496,27.394c-40.717,2.478-19.656,23.555,9.002,20.471c-12.477,4.915-7.257,19.581-4.307,28.514
					c8.132,24.605,7.39,25.174,28.569,21.498c6.545,23.662,13.099,47.338,19.654,70.997c-26.506-0.183-61.321,10.793-86.141,18.688
					c-11.43,3.636-34.14,14.99-20.365,31.182c18.453,21.68,54.444,11.287,76.667,3.697c31.714-10.833,64.988-24.186,54.689-61.4
					c-11.486-41.496-13.816-65.006-13.607-105.552c6.84,1.316,13.733,1.795,20.697,1.449c-4.096,24.947-10.228,45.937-3.371,70.327
					c7.542,26.818,31.027,61.761,5.81,78.992c-13.927,9.513-115.652,67.615-46.253,71.975c32.615,2.035,48.296-14.237,71.621-32.632
					c24.149-19.031,19.023-29.428,16.003-58.763l-3.064,1.117l-21.453-76.334c15.04-4.511,37.115-1.231,40.799-22.215
					C484.931,663.157,483.96,646.697,465.127,626.641C465.127,626.641,472.985,635.004,465.127,626.641z M382.182,617.467
					c-2.892-3.015-1.127-13.709-0.212-17.643C388.407,604.546,387.484,610.353,382.182,617.467
					C381.666,616.938,382.182,617.467,382.182,617.467z M417.687,637.322c-7.027,0.433-12.144,1.227-15.877,2.43
					c7.468-20.653,4.412-28.144,25.905-28.591C428.441,619.565,426.965,636.76,417.687,637.322
					C410.659,637.755,419.916,637.188,417.687,637.322z"/>
			</g>
		</g>
	</g>
</g>
<g id="Worried" display="none">
	<g display="inline">
		<path d="M404.497,294.793c-5.655,44.853-46.601,76.629-91.468,70.968c-44.857-5.66-76.631-46.605-70.976-91.46
			c5.665-44.855,46.605-76.635,91.468-70.974C378.384,208.986,410.152,249.935,404.497,294.793z"/>
		<path d="M456.888,505.66c0.951-17.801-42.419-44.799-53.237-54.613c-21.259-19.292-31.468-41.867-51.105-61.181
			c-22.613-22.232-99.478,72.991-119.539,92.154c5.812-28.583,19.288-55.183,25.285-80.999c7.921,8.455,10.687-31.479,10.54-31.104
			c2.984-7.562,6.821-37.899,0.63-42.885c-17.133-0.147-33.342,18.293-48.492,24.878c-24.318,10.565-11.623,24.409-6.209,43.536
			c13.229,26.373-3.392,65.523-8.754,91.897c-16.517,81.23,42.718,14.793,72.289-13.459c-7.057,22.16-12.301,46.044-10.231,69.447
			c1.004,11.302,5.025,33.709,15.271,46.003c6.667,8,8.334,6.834,10.972,8.062c1.528,21.604-14.972,59.604-21.992,81.209
			c-16.745,59.14-75.723,96.314-67.771,162.762c6.604,55.211,53.45,23.91,56.516-15.281c1.804-23.084-4.79-57.618,5.589-77.277
			c20.964-39.694,56.189-103.423,52.499-148.944c6.855-0.614,13.105-0.364,18.316,3.657c4.289,22.479,6.129,62.733,8.906,85.718
			c3.372,27.909,10.572,55.07,16.698,82.496c7.976,35.733-4.046,42.759-30.952,71.309c-61.402,65.154,31.866,71.047,51.821,16.977
			c10.142-27.483,25.446-31.229,10.619-60.025c1.37-9.972-4.342-23.249-6.44-32.637c-6.859-30.732-14.064-60.782-17.84-92.007
			c-2.998-24.793-7.023-57.852-8.06-76.196c4.201-5.897,15.535-7.712,27.567-8.333c38.377-2.003,5.887,28.645-4.009,44.862
			c-24.024,39.368,29.955,14.932,29.061-3.827c0.582,12.145-27.218,31.068-18.7,44.882c14.773,23.981,36.26-40.827,37.695-45.166
			c0,0-10.378,37.567,2.732,33.773C463.271,637.145,454.717,547.054,456.888,505.66C457.09,501.846,456.888,505.66,456.888,505.66z
			 M389.478,472.487c8.896,8.069,42.175,29.335,41.564,41.054c-1.387,26.468,3.015,46.709-7.579,54.91
			c-5.07,3.926-13.577,2.009-27.8,2.49C404.763,547.993,397.681,502.883,389.478,472.487z"/>
	</g>
	<g display="inline">
		<path fill="#F1F1ED" d="M548.146,364.002c-22.823-6.886-48.094,6.035-50.235,12.25c-1.265,3.671,10.493,5.461,22.264,6.978
			c-2.15-1.985-3.273-4.989-2.667-8.073c0.928-4.717,5.504-7.791,10.227-6.862c4.719,0.929,7.797,5.509,6.869,10.222
			c-0.531,2.695-2.265,4.818-4.52,6.003c4.338,0.6,8.076,1.235,10.308,2.002c9.326,3.212,18.63,0.768,20.767-5.447
			C563.299,374.859,557.586,366.854,548.146,364.002z"/>
		<path fill="#F1F1ED" d="M596.31,373.575c-9.825-0.876-18.104,4.43-18.436,10.995c-0.28,5.541,5.205,10.449,12.836,12.153
			c-1.833-1.974-2.747-4.755-2.188-7.603c0.928-4.718,5.504-7.791,10.227-6.862c4.717,0.929,7.797,5.509,6.867,10.226
			c-0.511,2.611-2.163,4.68-4.313,5.889c13.291,2.918,36.785,10.813,37.059,5.277C638.689,397.084,620.055,375.683,596.31,373.575z"
			/>
	</g>
	<g display="inline">
		<path fill="#F1F1ED" d="M485.846,56.367c-3.596-12.312-14.746-19.881-24.896-16.911c-10.15,2.971-15.461,15.356-11.856,27.662
			c0.887,3.038,2.235,5.78,3.913,8.153c0.005-0.219-0.037-0.422-0.023-0.64c0.449-6.395,5.996-11.217,12.396-10.771
			c6.394,0.445,11.217,5.996,10.771,12.392c-0.237,3.381-1.923,6.296-4.382,8.251c0.74-0.109,1.487-0.256,2.222-0.468
			C484.14,81.064,489.456,68.682,485.846,56.367z"/>
		<path fill="#F1F1ED" d="M529.32,46.233c-10.123-4.437-22.698,1.909-28.09,14.188c-3.443,7.854-3.083,16.19,0.248,22.372
			c0.089-6.621,5.475-11.969,12.115-11.969c6.708,0,12.141,5.437,12.141,12.135c0,3.159-1.235,6.011-3.217,8.172
			c6.324-2.053,12.146-7.258,15.377-14.623C543.279,64.23,539.443,50.679,529.32,46.233z"/>
	</g>
	<g display="inline">
		<path fill="#F1F1ED" d="M122.816,156.992c0-6.125,4.969-11.089,11.093-11.089c3.407,0,6.414,1.563,8.446,3.979
			c4.88-6.102,8.351-11.15,8.351-11.15s-8.525-1.657-18.762-6.413c-10.237-4.751-23.357-7.135-31.799,0.635
			c-8.445,7.768-19.117,17.696-19.117,17.696c13.343,24.642,34.085,21.998,45.855,14.86
			C124.423,163.478,122.816,160.437,122.816,156.992z"/>
		<path fill="#F1F1ED" d="M45.208,171.544c0-6.125,4.969-11.089,11.094-11.089c3.989,0,7.46,2.121,9.417,5.286
			c1.553-3.278,2.832-7.058,3.685-11.5c0,0-13.168-6.244-23.57-11.095c-10.397-4.851-22.177,1.383-30.499,9.009
			c-8.323,7.627-15.95,11.786-15.95,11.786s12.481,9.705,24.267,15.943c6.276,3.326,17.061,5.017,26.725,1.005
			C47.277,178.923,45.208,175.484,45.208,171.544z"/>
	</g>
</g>
<g id="Fustrated" display="none">
	<g display="inline">
		<path d="M400.56,318.976c-5.626,44.588-46.332,76.182-90.938,70.556c-44.598-5.63-76.187-46.335-70.57-90.929
			c5.634-44.598,46.34-76.187,90.938-70.565C374.597,233.667,406.181,274.374,400.56,318.976z"/>
		<g>
			<path d="M423.231,837.846c0.056,0.033,0.098,0.065,0.151,0.098C429.138,841.407,426.108,839.576,423.231,837.846z"/>
			<path d="M423.383,837.943c-5.539-3.346-2.914-1.767-0.151-0.098c-60.594-36.748-8.607-93.389-26.431-149.419
				c-9.3-29.245-31.271-63.823-13.302-87.321c30.12-39.378-0.483-112.029-15.345-151.749c24.293,9.071,58.619,30.739,84.592,30.739
				c24.565,0,6.11-91.467,5.011-104.663c-0.388-4.659,0.3-16.541-0.192-26.698c1.099-20.934,3.54-64.816,4.658-69.282
				c1.455-5.869,3.788-23.453-20.117-23.453h-12.462c0,0-18.05-19.271-20.091-4.413c-2.039,14.857-20.523,40.192-7.017,45.193
				l4.581,13.148c0,0,7.201,18.496,16.148,22.597l5.885,26.338c0,0,0.63,3.38,2.434,6.62c2.307,27.738,4.617,55.465,6.926,83.205
				c-18.723-6.991-37.443-13.986-56.161-20.982c-10.944-4.084-51.502-27.881-59.522-25.846
				c-15.614,3.956-32.525,16.471-50.817,20.905c-24.292,5.892-48.582,11.786-72.874,17.676c1.884-26.31,3.773-52.62,5.658-78.93
				c2.24-3.167,3.222-6.758,3.222-6.758l8.09-25.798c9.258-3.336,18-21.269,18-21.269l5.689-12.936
				c13.881-3.846-2.368-31.078-3.148-46.053c-0.78-14.975-20.318,1.839-20.318,1.839l-12.416-1.055
				c-23.745-2.91-23.052,16.573-22.094,22.541c0.611,3.76,0.571,32.383,0.457,53.043c-3.884,12.233-1.282,41.741-1.897,50.366
				c-0.753,10.494-16.414,97.541,8.715,91.482c20.569,7.623,80.426-19.512,102.779-24.932
				c-14.606,29.814-26.063,62.672-29.003,95.908c-2.075,23.514,22.246,60.038,17.427,74.403
				c-11.426,34.048-30.892,70.337-28.92,106.708c1.375,25.341,2.747,50.68,4.12,76.022c0.78,14.396-24.78,14.281-36.288,17.183
				c-17.316,4.362-59.683,9.154-60.569,33.451c-1.359,37.329,71.347,12.115,85.104,6.088c54.281-23.792,35.704-46.393,32.954-97.24
				c-2.61-48.188,5.899-75.626,21.478-122.062c5.658-16.86,46.438-24.799,50.89-10.806c7.055,22.181,14.104,44.361,21.158,66.541
				c10.262,32.265-0.675,77.214-2.238,110.892l-0.732-0.387c-10.566,43.165,5.289,79.669,52.702,95.4
				C484.637,915.55,458.271,858.951,423.383,837.943z"/>
		</g>
	</g>
	<path display="inline" opacity="0.8" fill-rule="evenodd" clip-rule="evenodd" fill="#FFFFFF" d="M321.474,4.167
		c-11.549,29.085-24.371,56.897-31.46,90.447c10.426,4.62,23.594,0,23.594,0s-23.979,36.318-31.46,58.988
		c6.913,2.262,23.596,3.933,23.596,3.933l-23.596,51.123c0,0,42.575-49.184,62.921-74.718c-11.505-1.162-27.528,0-27.528,0
		s41.409-45.104,58.988-70.785c-9.363,2.657-39.325,3.933-39.325,3.933s32.207-43.823,47.189-66.853
		C359.385-2.488,347.451,4.427,321.474,4.167z"/>
</g>
</svg>
