<?xml version="1.0" encoding="utf-8"?>
<!-- Generator: Adobe Illustrator 16.0.4, SVG Export Plug-In . SVG Version: 6.00 Build 0)  -->
<!DOCTYPE svg PUBLIC "-//W3C//DTD SVG 1.1//EN" "http://www.w3.org/Graphics/SVG/1.1/DTD/svg11.dtd">
<svg version="1.1" xmlns="http://www.w3.org/2000/svg" xmlns:xlink="http://www.w3.org/1999/xlink" x="0px" y="0px" width="640px"
	 height="900px" viewBox="0 0 640 900" enable-background="new 0 0 640 900" xml:space="preserve">
<g id="Bored">
	<g>
    <g>
      <polygon fill="#FFFFFF" points="328.225,841.114 515.4110000000001,774.838 567.365,818.502"/>
      <polyline fill="#FFFFFF" points="437.931,765.74 481,760.223 481,782.738 327.951,841.114"/>
      <polygon fill="#FFFFFF" points="964.043,1267.88 844.715,1244.6509999999998 817.191,1275.783"/>
      <polyline fill="#FFFFFF" points="890.688,1232.162 863.998,1232.7269999999999 866.034,1246.363 964.043,1267.88"/>
      <polygon fill="#FFFFFF" points="406.46,1212.2730000000001 491.097,1147.8229999999999 524.7470000000001,1161.585"/>
      <polyline fill="#FFFFFF" points="450.181,1155.8319999999999 471.344,1145.934 475.034,1157.426 406.46,1212.2730000000001"/>
    </g>
    <g>
			<path d="M419.743,312.913c0,46.76-37.911,84.67-84.666,84.67c-46.765,0-84.675-37.911-84.675-84.67s37.911-84.666,84.675-84.666
				C381.832,228.247,419.743,266.153,419.743,312.913z"/>
		  <g>
			  <path d="M453.735,832.041c-61.488-26.365-25.091-70.062-44.18-121.943c27.743-11.817,41.365-3.733,42.005-44.107
				  C452.015,637.4,431,628.332,431,600.841c0-32.3,0-64.599,0-96.896c0-30.979-16.1-35.6-41.68-51.095
				  c-29.723-17.993-53.408-62.076-81.495-17.65c-22.199,14.891-54.42,22.422-79.115,32.622
				  c-25.527,10.548-28.187,2.158-51.841-14.114c-7.471-5.135-27.816-14.038-32.287-22.178c6.339-8.023,6.296-16.08-0.081-24.174
				  c-0.323-21.504,4.773-8.504,13.951-23.192c-3.985-26.463-35.657-14.219-33.917,7.862c-5.431-6.716-9.454-14.187-12.069-22.403
				  c6.183-4.736,22.27-17.947,12.82-27.715c-14.447-14.932-43.17,23.293-27.563,38.129c6.525,2.568,12.56,5.982,18.114,10.258
				  c-5.554-4.27-11.589-7.689-18.104-10.258c2.007,1.917-14.396,20.059-15.046,21.229c-15.351,27.625,1.265,30.282,21.723,44.397
				  c19.354,13.348,48.961,23.825,73.576,40.76c40.022,27.528,67.223,2.941,110.136-14.791
				  c-13.202,29.08-23.996,60.942-25.242,93.107c-0.846,21.88,24.918,56.057,19.963,68.722
				  c-13.791,35.241-28.133,59.181-20.866,96.302c3.657,18.675,7.314,37.351,10.965,56.033c3.781,19.316,29.522,14.054,25.728-5.331
				  c-7.724-39.479-18.774-67.384-4.176-104.693c3.89-9.927,9.045-39.7,20.829-37.68c14.864,2.564,30.737,3.703,45.541-0.051
				  c5.284,4.384-4.634,11.691,4.495,15.211c14.58,21.438,21.714,64.438,22.598,90.883c0.627,18.968,1.257,37.947,1.889,56.921
				  c1.518,45.613,0.918,36.271,29.897,70.614c14.575,17.268,59.052,30.23,78.273,13.989
				  C521.966,865.434,466.593,837.547,453.735,832.041C441.133,826.633,466.347,837.438,453.735,832.041z M117.354,343.286
				  c-4.495,3.619,0.1,12.811-7.576,12.754C116.166,352.364,110.107,343.22,117.354,343.286z M106.692,373.403
				  c8.256-11.898,17.195-14.324,17.12-29.917c8.236,10.194-12.84,23.771-17.187,30.021
				  C106.616,373.502,106.702,373.403,106.692,373.403C109.821,368.894,106.702,373.403,106.692,373.403z M111.353,374.948
				  c4.156,4.128,6.886,14.304,11.632,19.05C118.225,389.272,115.509,379.085,111.353,374.948z M393.355,655.274
				  c1.203-0.065,1.953-0.121,1.953-0.121c-0.637,0.251-1.188,0.547-1.74,0.841L393.355,655.274
				  C394.559,655.209,393.355,655.274,393.355,655.274z M403.993,624.607c-1.81,4.322-6.23,9.083-16.738,10.022
				  c-3.243-19.173,13.677-38.44,13.183-61.518c-0.687-31.938-9.903-63.871-19.317-94.126
				  C431.23,494.137,392.836,585.633,403.993,624.607C402.185,628.931,403.66,623.458,403.993,624.607z"/>
			  <path d="M97.581,379.965L97.581,379.965c0.048,0.024,0.104,0.052,0.152,0.071C97.695,379.998,97.638,379.975,97.581,379.965
				  C97.581,379.965,97.629,379.989,97.581,379.965z"/>
		  </g>
		  <path d="M269.994,785.199c0,0-82.858,12.605-90.068,25.218c-7.204,12.606-7.009,21.389,12.621,30.625
			  c30.616,14.409,102.67-19.81,109.88-27.919c7.199-8.107,17.842-19.593,0-27.924C284.584,776.866,269.994,785.199,269.994,785.199
			  z"/>
	  </g>
	</g>
</g>
</svg>
