<?xml version="1.0" encoding="utf-8"?>
<!-- Generator: Adobe Illustrator 16.0.4, SVG Export Plug-In . SVG Version: 6.00 Build 0)  -->
<!DOCTYPE svg PUBLIC "-//W3C//DTD SVG 1.1//EN" "http://www.w3.org/Graphics/SVG/1.1/DTD/svg11.dtd">
<svg version="1.1" xmlns="http://www.w3.org/2000/svg" xmlns:xlink="http://www.w3.org/1999/xlink" x="0px" y="0px" width="640px"
	 height="900px" viewBox="0 0 640 900" enable-background="new 0 0 640 900" xml:space="preserve">
<g id="Deflated">
	<g>
		<g>
			<g>
				<path fill-rule="evenodd" clip-rule="evenodd" fill="#FFFFFF" d="M252.869,116.532c3.873,1.667,7.553,14.889-1.323,12.789
					C248.236,125.954,251.097,119.594,252.869,116.532z"/>
				<path fill-rule="evenodd" clip-rule="evenodd" fill="#FFFFFF" d="M304.561,116.532c2.56,0.878,6.66,10.72,2.667,12.789
					C299.939,133.097,301.188,118.976,304.561,116.532z"/>
				<path fill-rule="evenodd" clip-rule="evenodd" fill="#FFFFFF" d="M344.273,116.532c1.872,1.18,6.292,9.152,3.188,12.259
					c-0.863,0.862-2.89,1.351-4.526,0.53C339.021,127.352,342.548,118.629,344.273,116.532z"/>
				<path fill-rule="evenodd" clip-rule="evenodd" fill="#FFFFFF" d="M370.112,116.532c3.913,1.621,7.541,14.901-1.332,12.789
					C365.482,125.954,368.344,119.594,370.112,116.532z"/>
				<path fill-rule="evenodd" clip-rule="evenodd" fill="#FFFFFF" d="M406.888,116.532c2.044,1.212,6.124,8.044,3.729,11.719
					c-0.897,1.384-3.524,2.095-5.332,0.801C401.712,126.513,405.578,119.116,406.888,116.532z"/>
				<path fill-rule="evenodd" clip-rule="evenodd" fill="#FFFFFF" d="M221.427,118.396c1.54,1.866,5.549,6.54,3.999,11.188
					c-0.587,1.774-3.238,2.914-5.336,1.869C216.033,129.404,219.94,120.696,221.427,118.396z"/>
				<path fill-rule="evenodd" clip-rule="evenodd" fill="#FFFFFF" d="M357.06,118.928c3.934,1.784,6.981,15.668-1.606,12.789
					C352.525,128.063,355.126,121.774,357.06,118.928z"/>
				<path fill-rule="evenodd" clip-rule="evenodd" fill="#FFFFFF" d="M319.487,119.458c3.348,1.751,7.923,13.844-0.803,13.061
					C314.508,129.745,317.678,122.541,319.487,119.458z"/>
				<path fill-rule="evenodd" clip-rule="evenodd" fill="#FFFFFF" d="M267.534,123.458c2.942,2.179,5.722,8.634,2.931,12.523
					C261.97,139.186,264.6,126.312,267.534,123.458z"/>
				<path fill-rule="evenodd" clip-rule="evenodd" fill="#FFFFFF" d="M357.06,133.848c2.322,1.455,6.537,10.309,2.668,12.794
					c-0.977,0.617-2.854,0.962-4.274,0C351.771,144.138,355.657,136.265,357.06,133.848z"/>
				<path fill-rule="evenodd" clip-rule="evenodd" fill="#FFFFFF" d="M319.487,137.317c3.849,1.778,6.837,13.908,0.264,13.319
					C314.03,150.132,317.48,140.003,319.487,137.317z"/>
				<path fill-rule="evenodd" clip-rule="evenodd" fill="#FFFFFF" d="M344.273,141.575c1.649,1.431,6.435,9.264,3.188,12.526
					c-0.867,0.878-2.903,1.348-4.526,0.533C338.857,152.584,342.763,143.856,344.273,141.575z"/>
				<path fill-rule="evenodd" clip-rule="evenodd" fill="#FFFFFF" d="M267.534,142.379c4.042,1.695,6.75,15.074-0.549,13.317
					C262.16,154.538,265.653,144.742,267.534,142.379z"/>
				<path fill-rule="evenodd" clip-rule="evenodd" fill="#FFFFFF" d="M221.427,143.707c1.613,1.725,5.895,7.391,3.732,11.726
					c-0.687,1.382-3.146,2.295-5.069,1.333C216.025,154.718,219.959,146.029,221.427,143.707z"/>
				<path fill-rule="evenodd" clip-rule="evenodd" fill="#FFFFFF" d="M407.155,149.307c2.097,1.778,6.538,10.141,2.66,12.786
					c-1.521,1.046-3.732,0.729-4.793-0.262C401.863,158.894,405.831,151.353,407.155,149.307z"/>
				<path fill-rule="evenodd" clip-rule="evenodd" fill="#FFFFFF" d="M370.379,152.77c1.807,2.153,6.302,8.661,3.199,12.255
					c-1.328,1.535-3.982,1.525-5.329,0.271C365.06,162.32,369.11,154.837,370.379,152.77z"/>
				<path fill-rule="evenodd" clip-rule="evenodd" fill="#FFFFFF" d="M253.135,154.634c2.113,1.777,6.51,10.163,2.67,12.788
					c-1.546,1.062-3.727,0.71-4.808-0.268C247.83,164.252,251.818,156.684,253.135,154.634z"/>
				<path fill-rule="evenodd" clip-rule="evenodd" fill="#FFFFFF" d="M304.824,158.898c3.427,2.023,6.551,13.499,0.276,13.324
					C299.207,172.054,302.287,161.388,304.824,158.898z"/>
				<path fill-rule="evenodd" clip-rule="evenodd" fill="#FFFFFF" d="M267.534,159.698c3.617,1.232,7.171,15.173-0.549,13.325
					C262.184,171.867,265.804,161.795,267.534,159.698z"/>
				<path fill-rule="evenodd" clip-rule="evenodd" fill="#FFFFFF" d="M407.155,170.088c1.795,2.137,6.308,8.692,3.201,12.257
					c-1.285,1.457-3.67,1.554-5.071,0.538C401.759,180.305,405.717,172.067,407.155,170.088z"/>
				<path fill-rule="evenodd" clip-rule="evenodd" fill="#FFFFFF" d="M304.824,176.223c1.979,1.898,6.564,10.124,2.667,12.788
					c-1.54,1.052-3.432,0.771-4.53,0C299.422,186.497,303.387,178.201,304.824,176.223z"/>
				<path fill-rule="evenodd" clip-rule="evenodd" fill="#FFFFFF" d="M344.273,177.283c2.56,2.459,5.586,8.451,2.923,12.793
					c-0.987,0.511-2.385,0.628-3.993,0.529C339.351,187.456,342.384,180.298,344.273,177.283z"/>
				<path fill-rule="evenodd" clip-rule="evenodd" fill="#FFFFFF" d="M221.427,182.616c2.602,2.423,4.721,6.583,3.732,11.722
					C217.236,200.934,217.447,186.1,221.427,182.616z"/>
				<path fill-rule="evenodd" clip-rule="evenodd" fill="#FFFFFF" d="M319.751,186.346c3.223,2.312,7.478,14.971-1.598,13.051
					C314.813,195.891,317.731,189.283,319.751,186.346z"/>
				<path fill-rule="evenodd" clip-rule="evenodd" fill="#FFFFFF" d="M267.534,194.072c3.733,2.227,6.623,13.63,0.263,13.317
					C262.073,207.119,265.428,196.824,267.534,194.072z"/>
				<path fill-rule="evenodd" clip-rule="evenodd" fill="#FFFFFF" d="M357.06,194.605c1.787,1.643,5.972,7.943,3.731,11.725
					c-0.865,1.466-3.551,2.283-5.338,1.06C351.76,204.862,355.657,197.033,357.06,194.605z"/>
				<path fill-rule="evenodd" clip-rule="evenodd" fill="#FFFFFF" d="M304.824,202.864c2.035,1.86,6.573,10.124,2.667,12.794
					c-1.506,1.027-3.451,0.785-4.53,0C299.453,213.088,303.38,204.866,304.824,202.864z"/>
			</g>
			<path fill-rule="evenodd" clip-rule="evenodd" fill="#FFFFFF" d="M398.211,66.187c1.768-19.34-18.108-17.042-31.152-21.571
				c13.03-47.593-51.316-57.271-67.102-26.791C288-3.586,247.732,4.638,242.432,29.396c-7.186,0-12.71-5.382-21.566,0
				c-20.786,17.223-28.951,94.353,31.157,74.713c-2.051,7.645,3.778,6.426,4.792,11c0,0,24.273,3.745,39,0.834
				c15.854,3.081,29.806-1.872,40.092-8.768c20.646,28.865,54.274,12.973,83.877,2.279
				C439.443,102.351,433.337,55.14,398.211,66.187z"/>
			<g>
				<path d="M391.004,303.938c6.078,45.956-26.257,88.146-72.227,94.219c-45.962,6.072-88.146-26.252-94.225-72.211
					c-6.07-45.968,26.26-88.154,72.221-94.23C342.745,225.64,384.929,257.974,391.004,303.938z"/>
				<path d="M465.127,626.641c-8.305-28.682,26.091-36.411,28.64-65.771c2.94-33.796-12.473-69.468-25.554-99.617
					c-12.637-29.112-53.868-112.638-83.369-51.665c-30.57,63.169-23.718,124.645-29.142,191.352
					c-1.063,12.986-2.875,26.305-20.496,27.394c-40.717,2.478-19.656,23.555,9.002,20.471c-12.477,4.915-7.257,19.581-4.307,28.514
					c8.132,24.605,7.39,25.174,28.569,21.498c6.545,23.662,13.099,47.338,19.654,70.997c-26.506-0.183-61.321,10.793-86.141,18.688
					c-11.43,3.636-34.14,14.99-20.365,31.182c18.453,21.68,54.444,11.287,76.667,3.697c31.714-10.833,64.988-24.186,54.689-61.4
					c-11.486-41.496-13.816-65.006-13.607-105.552c6.84,1.316,13.733,1.795,20.697,1.449c-4.096,24.947-10.228,45.937-3.371,70.327
					c7.542,26.818,31.027,61.761,5.81,78.992c-13.927,9.513-115.652,67.615-46.253,71.975c32.615,2.035,48.296-14.237,71.621-32.632
					c24.149-19.031,19.023-29.428,16.003-58.763l-3.064,1.117l-21.453-76.334c15.04-4.511,37.115-1.231,40.799-22.215
					C484.931,663.157,483.96,646.697,465.127,626.641C465.127,626.641,472.985,635.004,465.127,626.641z M382.182,617.467
					c-2.892-3.015-1.127-13.709-0.212-17.643C388.407,604.546,387.484,610.353,382.182,617.467
					C381.666,616.938,382.182,617.467,382.182,617.467z M417.687,637.322c-7.027,0.433-12.144,1.227-15.877,2.43
					c7.468-20.653,4.412-28.144,25.905-28.591C428.441,619.565,426.965,636.76,417.687,637.322
					C410.659,637.755,419.916,637.188,417.687,637.322z"/>
			</g>
		</g>
	</g>
</g>
</svg>
