<?xml version="1.0" encoding="utf-8"?>
<!-- Generator: Adobe Illustrator 16.0.4, SVG Export Plug-In . SVG Version: 6.00 Build 0)  -->
<!DOCTYPE svg PUBLIC "-//W3C//DTD SVG 1.1//EN" "http://www.w3.org/Graphics/SVG/1.1/DTD/svg11.dtd">
<svg version="1.1" xmlns="http://www.w3.org/2000/svg" xmlns:xlink="http://www.w3.org/1999/xlink" x="0px" y="0px" width="640px"
	 height="900px" viewBox="0 0 640 900" enable-background="new 0 0 640 900" xml:space="preserve">
<g id="Disengaged">
	<g>
		<g>
      <path fill-rule="evenodd" clip-rule="evenodd" d="M226.794,451.456c20.592,5.912,82.285,36.695,101.78,24.019
				c4.13-2.691,28.114-17.139,49.202-32.733c2.03,0.509,4.353,1.293,7.096,2.536c16.931,7.661,37.667,13.812,58.593,5.489
				c20.915-8.334-0.926-27.472-0.926-27.472l6.872-3.368c48.155-4.301,43.562-19.622,43.562-19.622
				c-6.024-21.619-42.175-12.721-42.175-12.721c-8.8-20.774-34.516-10.411-34.516-10.411c-15.561-9.43-34.381,8.594-44.334,19.391
				c-4.384,4.76-5.562,10.729-5.501,15.921c-20.745,15.848-40.737,39.609-69.639,31.216c-25.089-7.284-50.186-14.576-75.276-21.86"
				/>
      <path fill-rule="evenodd" clip-rule="evenodd" d="M239.519,431.054c-17.45,0.18-21.276-27.66-46.537-12.249
				c-16.161,9.854-112.996,53.568-100.546,76.712c5.51,10.244,22.51,35.021,38.294,60.556c-0.12,11.396,2.22,23.961-5.896,33.208
				c-16.135-2.828-35.329,21.829-16.187,35.261c0.412,8.65-10.325,7.352-7.025,18.568c7.711,7.78,26.079,3.625,33.007,12.283
				c16.357-3.891,21.726-15.462,26.837-31.028c-0.059,0.348-0.094,0.726-0.184,1.043c-12.18,41.215-24.031,82.474-37.595,123.251
				c-5.938,17.85-9.786,48.945-21.281,63.949c-22.369,16.381-68.048,28.106-78.862,55.689
				c-14.687,37.449,60.641,19.219,73.366,10.818c36.592-24.151,42.308-38.672,38.096-79.618l-0.565,0.211
				c9.01-27.074,18.736-53.997,26.82-81.365c6.645-22.472,13.29-44.946,19.931-67.419c6.958-23.534,29.005-9.169,52.213-13.548
				c0.849,24.962,3.406,50.437,2.413,75.39c-0.985,24.59-13.719,74.586-3.882,97.216c9.974,24.558,53.05,35.681,79.082,40.959
				c59.912,12.155,69.529-34.202,10.41-47.883c-13.406-3.102-62.681-4.784-62.03-21.078c1.045-26.22,3.47-52.703,2.58-78.944
				c-0.96-27.999-10.661-63.901,7.454-84.699c36.648-42.072,4.773-118.608-16.323-160.449 M172.554,459.035
				c-11.147,27.496-18.697,58.032-23.222,87.406c-1.35-1.067-2.682-1.938-3.967-2.597l-27.639-51.37L172.554,459.035z"/>
      <g opacity="0.5">
				<path d="M511.852,463.396c0.262-2.403,0.839-4.465,1.734-6.188c0.896-1.717,2.186-3.058,3.87-4.027
					c1.688-0.963,3.95-1.448,6.794-1.448c2.841,0,5.107,0.485,6.787,1.448c1.688,0.969,2.974,2.31,3.872,4.027
					c0.896,1.723,1.475,3.784,1.74,6.188c0.267,2.404,0.394,5.03,0.394,7.869c0,2.881-0.127,5.512-0.394,7.897
					c-0.266,2.391-0.845,4.443-1.74,6.161c-0.898,1.722-2.185,3.037-3.872,3.95c-1.68,0.912-3.946,1.366-6.787,1.366
					c-2.844,0-5.106-0.454-6.794-1.366c-1.685-0.913-2.974-2.229-3.87-3.95c-0.896-1.718-1.473-3.771-1.734-6.161
					c-0.266-2.386-0.394-5.017-0.394-7.897C511.458,468.427,511.586,465.801,511.852,463.396z M519.22,477.715
					c0.12,1.774,0.368,3.214,0.737,4.319c0.369,1.104,0.892,1.915,1.577,2.421c0.687,0.509,1.593,0.766,2.716,0.766
					c1.124,0,2.021-0.257,2.707-0.766c0.686-0.506,1.209-1.316,1.578-2.421c0.368-1.105,0.616-2.545,0.736-4.319
					c0.128-1.77,0.188-3.921,0.188-6.449c0-2.525-0.061-4.664-0.188-6.421c-0.12-1.752-0.368-3.192-0.736-4.319
					c-0.369-1.121-0.893-1.936-1.578-2.446c-0.686-0.509-1.583-0.763-2.707-0.763c-1.123,0-2.029,0.254-2.716,0.763
					c-0.686,0.511-1.208,1.325-1.577,2.446c-0.369,1.127-0.617,2.567-0.737,4.319c-0.12,1.757-0.184,3.896-0.184,6.421
					C519.036,473.794,519.1,475.945,519.22,477.715z"/>
				<path d="M562.522,452.471v6.212H549.1v8.848h12.631v6.212H549.1v16.319h-7.584v-37.591H562.522z"/>
				<path d="M586.897,452.471v6.212h-13.419v8.848h12.63v6.212h-12.63v16.319h-7.584v-37.591H586.897z"/>
			</g>
      <g opacity="0.5">
				<path d="M520.583,285.016c0.262-2.403,0.841-4.464,1.734-6.186c0.896-1.719,2.181-3.059,3.87-4.027
					c1.687-0.965,3.95-1.448,6.794-1.448c2.837,0,5.107,0.483,6.787,1.448c1.688,0.968,2.974,2.309,3.874,4.027
					c0.89,1.722,1.472,3.782,1.738,6.186c0.258,2.404,0.394,5.03,0.394,7.871c0,2.879-0.136,5.509-0.394,7.896
					c-0.267,2.391-0.849,4.443-1.738,6.161c-0.9,1.722-2.186,3.038-3.874,3.95c-1.68,0.913-3.95,1.367-6.787,1.367
					c-2.844,0-5.107-0.454-6.794-1.367c-1.689-0.912-2.974-2.228-3.87-3.95c-0.894-1.718-1.473-3.77-1.734-6.161
					c-0.266-2.387-0.394-5.017-0.394-7.896C520.189,290.046,520.317,287.42,520.583,285.016z M527.951,299.334
					c0.12,1.774,0.37,3.213,0.738,4.319s0.891,1.915,1.576,2.42c0.686,0.51,1.594,0.767,2.716,0.767
					c1.124,0,2.023-0.257,2.709-0.767c0.684-0.505,1.212-1.315,1.585-2.42c0.368-1.105,0.607-2.545,0.736-4.319
					c0.121-1.77,0.181-3.92,0.181-6.448s-0.06-4.667-0.181-6.423c-0.129-1.752-0.368-3.191-0.736-4.318
					c-0.373-1.123-0.901-1.937-1.585-2.446c-0.686-0.51-1.585-0.763-2.709-0.763c-1.122,0-2.03,0.253-2.716,0.763
					c-0.686,0.509-1.208,1.323-1.576,2.446c-0.368,1.127-0.618,2.566-0.738,4.318c-0.118,1.756-0.179,3.895-0.179,6.423
					S527.833,297.565,527.951,299.334z"/>
				<path d="M568.148,299.836h0.103v-25.745h6.949v37.592h-8.637l-9.264-26.324h-0.103v26.324h-6.948v-37.592h8.738L568.148,299.836
					z"/>
			</g>
      <path fill-rule="evenodd" clip-rule="evenodd" d="M356.56,452.591C356.38,452.81,356.337,452.853,356.56,452.591L356.56,452.591z
				"/>
      <path fill-rule="evenodd" clip-rule="evenodd" d="M357.485,451.494c-0.505,0.605-0.771,0.912-0.926,1.097
				C356.867,452.223,357.485,451.494,357.485,451.494z"/>
      <path fill-rule="evenodd" clip-rule="evenodd" d="M242.981,396.65c46.857,0,84.839-37.981,84.839-84.834
				c0-46.854-37.982-84.84-84.839-84.84c-46.863,0-84.844,37.985-84.844,84.84C158.137,358.669,196.118,396.65,242.981,396.65z"/>
      <path fill="#FFFFFF" d="M537.771,379.045l-40.148,24.079c-9.722-9.186-24.974-10.009-35.654-1.363
				c-11.649,9.421-13.449,26.508-4.02,38.153c9.422,11.649,26.512,13.457,38.152,4.036c8.013-6.482,11.37-16.585,9.618-26.049
				l40.711-24.417c0.347-0.21,0.664-0.433,0.973-0.682c3.204-2.596,4.104-7.224,1.919-10.869
				C546.931,377.945,541.756,376.646,537.771,379.045z"/>
      
			<path opacity="0.8" fill="#FFFFFF" d="M618,284.432C618,260.998,599.003,242,575.569,242h-59.139
				C492.997,242,474,260.998,474,284.432v192.136C474,500.003,492.997,519,516.431,519h59.139C599.003,519,618,500.003,618,476.568
				V284.432z M564,427h-36v-92h36V427z"/>
		</g>
	</g>
</g>
</svg>
