<?xml version="1.0" encoding="utf-8"?>
<!-- Generator: Adobe Illustrator 16.0.4, SVG Export Plug-In . SVG Version: 6.00 Build 0)  -->
<!DOCTYPE svg PUBLIC "-//W3C//DTD SVG 1.1//EN" "http://www.w3.org/Graphics/SVG/1.1/DTD/svg11.dtd">
<svg version="1.1" xmlns="http://www.w3.org/2000/svg" xmlns:xlink="http://www.w3.org/1999/xlink" x="0px" y="0px" width="640px"
	 height="900px" viewBox="0 0 640 900" enable-background="new 0 0 640 900" xml:space="preserve">
<g id="Engaged">
	<g>
    <path d="M408.688,321.201c5.88,46.626,48.447,79.662,95.095,73.777c46.635-5.88,79.675-48.449,73.789-95.08
			c-5.887-46.641-48.456-79.68-95.092-73.797C435.84,231.981,402.811,274.565,408.688,321.201z"/>
		<path d="M594.874,772.305c-26.243-14.315-54.985-25.156-82.185-37.553c-19.484-8.876-21.639-57.218-26.621-76.543
			c-2.092-8.098-11.173-27.476-9.28-35.951c19.05-11.216,27.253-32.787,29.883-53.708c5.799-46.37-7.508-98.128-26.995-140.058
			c18.068-1.337,57.762,3.261,45.854-25.694c-12.906-31.408-25.822-62.823-38.737-94.231c-9.367-22.787-36.246-24.949-24.771,2.978
			c12.518,30.458,25.042,60.915,37.56,91.375c-20.597,1.515-64.228,12.581-82.259,5.145c-31.178-12.861-62.356-25.723-93.534-38.584
			c7.332-13.978,35.475-48.879,30.334-65.382c-10.762-34.533-50.302,51.695-53.252,57.322
			c-16.436,31.323,89.065,72.778,116.712,71.626c-25.04,36.361-45.833,86.267-49.737,130.179
			c-1.42,15.959,15.225,43.784,8.068,53.045c-13.485,17.432-26.963,34.856-40.437,52.293
			c-16.905,21.855-37.562,36.262-23.175,63.537c14.891,28.214,31.886,56.346,44.285,85.584c-27.917,8.244-65.9,0.337-90.453,10.686
			c-7.401,3.118-10.172,17.715-5.567,23.833c14.83,19.726,65.145,14.703,86.029,14.108c111.128-3.17-19.427-106.087-15.814-151.656
			c1.622-20.45,47.316-61.193,60.11-77.731c13.13-16.986,14.51-8.112,36.482-6.471c29.653,2.214,25.338-3.532,32.707,25.044
			c4.553,17.645,10.21,86.85,29.348,95.565c16.642,17.668,60.031,27.355,82.456,37.581c-6.477,7.98-14.269,23.824-23.004,29.041
			c-16.7-1.407-31.54,0.77-44.882,10.716c-15.532,40.198,79.518,17.858,93.475,6.855
			C616.544,820.235,637.409,765.334,594.874,772.305C594.642,772.179,605.423,770.574,594.874,772.305z"/>
		<path d="M326.289,307.676c0,0-8.256-21.017-10.014-47.497c-1.76-26.479-2.593-49.771,10.014-47.501
			c0,0,3.228-20.228,12.603-20.228l9.375,11.255c0,0,7.27-0.799,8.321,8.973c1.054,9.775-4.801,62.272,0,62.272
			c0,0,36.77-20.628,37.661-5.626c0.892,14.997-7.839,14.431-39.485,45C323.121,344.893,326.289,307.676,326.289,307.676z"/>
		<g>
			<path fill="#FFFFFF" d="M188.683,449.504c-1.235-7.658-0.591-13.061,2.005-16.539c1.027-1.379,2.759-2.948,5.518-3.684
				c2.172-1.325,4.54-1.77,6.7-1.77c6.96,0,14.727,4.73,19.866,7.861c1.473,0.9,2.719,1.674,3.627,2.103
				c1.23,0.587,6.226,1.687,12.705,1.687c5.718,0,15.669-0.9,22.522-6.297c4.138-5.46,6.234-12.669,6.084-21.097
				c-0.116-6.208-1.038-11.605-2.675-16.144c-2.253-5.258-5.335-9.49-9.143-12.553c-3.713-2.554-8.221-3.914-13.479-3.914
				c-5.916,0-12.408,1.676-19.295,4.981c-9.94,4.771-16.985,6.997-22.161,6.997c-7.469,0-10.668-4.376-12.086-9.563
				c-3.177-6.666-2.58-17.553,1.732-32.988c2.475-11.612,5.884-23.531,7.636-29.391l-26.398-7.202
				c-1.002-0.3-1.903-0.518-2.865-0.789c-7.258-1.541-14.258-2.67-19.227-2.67l-0.55,0.008c-3.281,0.057-6.459,0.237-8.899,0.809
				c-0.733,0.451-1.338,1.016-1.749,1.717c-1.084,1.847-1.957,6.618,4.332,17.833c7.752,13.822,8.751,28.323,2.731,39.79
				c-0.873,1.666-1.917,3.228-3.062,4.716c-3.508,5.199-9.858,11.05-21.288,13.838c-4.063,1.236-8.464,2.113-13.22,2.559
				c-1.476,0.136-2.89,0.201-4.251,0.201c-8.565,0-15.652-2.75-20.871-7.958c-4.044-2.943-7.402-6.71-9.892-11.239
				c-6.109-11.079-5.799-25.665,0.758-36.029c8.044-12.746,9.633-18.98,9.442-21.999c-1.858-1.91-5.514-2.707-8.493-3.031
				c-1.295-0.141-2.693-0.192-4.099-0.211c-2.869,0.481-6.118,1.24-9.801,2.333c-26.028,7.724-37.314,11.396-41.848,12.942
				l3.093,168.887c0.102,5.621,1.834,8.154,3.924,9.285c1.92-0.022,3.305-0.38,3.305-0.38l58.409,0.019l115.42-1.669
				C198.362,491.229,188.665,469.043,188.683,449.504z"/>
			<path fill="#FFFFFF" d="M16.04,147.097l2.445,169.505c9.725-4.77,31.893-14.476,51.399-14.476c0.061,0,0.106,0.005,0.167,0.005
				c2.416-0.38,4.651-0.615,6.63-0.615c6.206,0,10.427,1.952,12.546,5.792c0.445,0.801,0.767,1.675,0.997,2.604
				c0.139,0.24,0.304,0.462,0.426,0.715c4.03,8.173-2.359,18.668-6.593,25.614c-0.896,1.475-1.668,2.718-2.103,3.624
				c-1.511,3.179-4.136,21.634,3.285,33.403c0.685,1.087,1.455,2.044,2.257,2.943c5.125,3.637,11.669,5.661,19.284,5.661h0.008
				l0.882-0.351c4.591-0.085,8.706-0.662,12.41-1.618c7.395-2.376,13.139-6.168,16.921-11.321
				c4.894-8.033,4.294-19.406-1.704-31.904c-7.09-14.77-8.659-23.468-5.256-28.98c1.646-2.678,4.258-4.219,7.333-5.141
				c6.689-3.419,18.038-2.877,34.004,1.638c11.439,2.461,23.094,5.798,28.861,7.522l7.209-26.404
				c6.777-22.619,3.883-29.918,2.33-32.01c-0.655-0.88-1.858-2.044-4.735-2.044c-2.469,0-6.996,0.883-14.507,5.094
				c-7.714,4.331-15.85,6.618-23.521,6.618c-16.195,0-34.521-10.889-37.377-41.457c-0.942-10.069,1.364-18.231,6.867-24.263
				c8.614-9.463,22.722-10.879,30.367-10.879c6.381,0,12.91,0.99,15.877,2.407c1.157,0.55,2.607,1.435,4.287,2.457
				c4.438,2.703,11.137,6.788,16.027,6.788c1.667,0,5.562-0.002,6.631-9.814c2.24-20.62-11.016-48.257-14.862-55.757l-169.089,3.105
				c-4.328,0.077-7.287,1.15-8.807,3.183c-2.165,2.915-1.052,7.38-1.035,7.42L16.04,147.097z"/>
			<path fill="#FFFFFF" d="M387.479,315.715c-5.688,1.899-17.335,5.607-40.241,12.415c-7.387,2.19-13.257,3.257-17.943,3.257
				c-6.212,0-10.434-1.948-12.549-5.786c-3.392-6.15-0.553-15.786,9.212-31.237c5.163-8.171,5.38-19.567,0.531-28.362
				c-5.07-9.21-14.771-14.279-27.304-14.279l-0.885,0.004c-14.205,0.26-24.328,4.638-29.285,12.67
				c-4.946,8.037-4.365,19.372,1.658,31.918c7.091,14.768,8.66,23.422,5.262,28.935c-3.527,5.726-11.337,6.345-19.027,6.484
				l-0.681,0.01c-13.873,0-40.693-7.617-50.499-10.547l-7.201,26.403c-0.261,0.871-0.481,1.676-0.715,2.507
				c-1.644,7.661-2.83,15.068-2.74,20.134c0.073,4.046,0.347,6.875,0.796,8.869c0.11,0.19,0.222,0.36,0.324,0.497
				c0.653,0.877,1.856,2.044,4.74,2.044c2.469,0,6.989-0.889,14.503-5.095c7.718-4.331,15.852-6.62,23.523-6.62
				c7.269,0,14.957,2.22,21.491,7.408c4.365,3.149,7.853,7.578,10.328,13.109c2.777,5.622,4.77,12.507,5.556,20.939
				c0.942,10.072-1.37,18.234-6.862,24.267c-0.709,0.781-1.509,1.422-2.284,2.094c-0.76,0.971-1.575,1.901-2.442,2.784
				c-6.416,6.536-15.584,10.286-25.161,10.286l0,0c-6.72,0-13.096-1.786-18.448-5.165c-9.919-6.267-17.163-9.446-21.521-9.446
				c-0.146,0-0.244,0.027-0.375,0.033c-1.268,1.268-2.449,3.705-2.958,8.451c-0.155,1.406-0.224,2.854-0.239,4.312
				c0.455,2.61,1.192,5.768,2.331,9.597c7.725,26.024,11.404,37.311,12.953,41.847l168.904-3.1c4.326-0.082,7.289-1.154,8.798-3.187
				c0.019-0.021,0.028-0.042,0.044-0.067c0.871-3.512,0.027-6.813,0.027-6.813l0.015-58.183L387.479,315.715z"/>
		</g>
		<path fill="#FFFFFF" d="M539.574,119.014c0,0,15.539,0.024,11.107,16.971L507.25,301.778c0,0-38.365,9.022-62.054-0.521
			c-23.706-9.533,0.605-26.511,5.357-31.936c4.748-5.414,21.354-47.277-15.01-53.943c-36.356-6.661-52.417,17.236-45.794,44.69
			c6.616,27.451-7.308,31.899-37.933,12.448l-26.712-16.047c0,0,21.516-32.948,25.6-48.548c4.089-15.599,3.294-23.427-26.162-18.28
			c-29.447,5.142-48.036-11.154-39.626-43.247c8.404-32.091,40.823-32.177,54.838-16.598c14.023,15.58,32.412,30.872,31.84-8.808
			c-0.559-39.682-1.341-47.028-1.341-47.028L539.574,119.014z"/>
	</g>
</g>
</svg>
