<?xml version="1.0" encoding="utf-8"?>
<!-- Generator: Adobe Illustrator 16.0.4, SVG Export Plug-In . SVG Version: 6.00 Build 0)  -->
<!DOCTYPE svg PUBLIC "-//W3C//DTD SVG 1.1//EN" "http://www.w3.org/Graphics/SVG/1.1/DTD/svg11.dtd">
<svg version="1.1" xmlns="http://www.w3.org/2000/svg" xmlns:xlink="http://www.w3.org/1999/xlink" x="0px" y="0px" width="640px"
	 height="900px" viewBox="0 0 640 900" enable-background="new 0 0 640 900" xml:space="preserve">
<g id="Excited">
  <g>
		<path d="M423.03,256.7c-11.806,41.285-54.85,65.187-96.146,53.374c-41.284-11.81-65.194-54.851-53.381-96.146
			c11.813-41.284,54.854-65.179,96.152-53.374C410.941,172.366,434.834,215.409,423.03,256.7z"/>
		<path d="M513.797,300.309c-18.368-10.201-16.319,12.245-16.319,12.245c-22.321-6.505-25.411,18.882-24.838,38.025
			c-4.173,8.659-40.158,49.59-48.858,50.566c-15.704,1.751-55.642-30.685-69.801-38.502c-29.194-16.096-23.965-61.594-65.894-21.744
			c-15.044-39.874-34.049-79.833-44.14-121.277c-6.165-25.361-12.344-50.713-18.509-76.067c-3.6-14.796,29.804-38.266,15.271-56.506
			c-7.448-9.353-0.673-1.395-1.354-14.257c-1.007-19.119-44.233-10.484-54.118-7.264c-42.963,13.975-3.281,71.228,18.02,88.875
			c16.709,34.56,18.715,79.571,32.625,116.455c10.12,26.814,20.253,53.636,30.365,80.45c8.228,21.805-44.799,74.846-49.455,105.003
			c-6.051,39.16,46.188,117.385,18.914,146.069c-7.179,7.546-24.299,2.614-27.87,16.922c-3.6,14.363,2.112,43.934,8.801,57.029
			c24.249,47.395,57.228,26.899,39.541-19.586c-3.416-8.979-13.825-26.354-6.463-34.105c7.172-7.54,22.138-17.941,19.275-30.309
			c-5.655-24.461-11.311-48.923-16.965-73.384c31.562,14.362,76.481,82.435,76.481,118.367c0,27.438-1.637,55.408,0.078,82.789
			c-26.95,8.185,7.881,72.549,15.618,84.588c10.688,16.639,31.987,14.974,42.028-2.006c10.862-18.367-8.057-45.26-18.658-59.184
			c-19.125-25.112-14.952-39.271-14.952-73.257c0-60.851-22.278-89.322-54.067-141.916c56.096-8.582,49.588-102.687,48.229-142.119
			c29.081,16.037,70.254,56.608,98.074,27.836c12.939-13.39,28.897-38.299,45.365-46.965
			C533.085,366.94,562.373,327.3,513.797,300.309C495.429,290.107,532.157,310.516,513.797,300.309z M500.021,313.063
			C501.821,313.425,503.331,313.729,500.021,313.063L500.021,313.063z"/>
	</g>
	<g>
		<path fill-rule="evenodd" clip-rule="evenodd" fill="#FFFFFF" d="M148.546,192.486c-1.428,2.622,9.188,4.759,3.248,8.977
			c3.494,1.599,7.216-3.628,10.563,2.131c1.562-2.607-3.792-5.448,1.165-7.941c-5.062-1.522-5.156-3.09-7.708-8.24
			C156.3,191.335,152.303,195.025,148.546,192.486z"/>
		<path fill-rule="evenodd" clip-rule="evenodd" fill="#FFFFFF" d="M126.453,216.565c-0.872,0.857,0.339,1.787,0.796,2.69
			c0.849,1.211-0.955,2.334-1.89,3.481c3.417,0.428,4.594,0.776,6.051,4.638c0.304-0.793,1.393-5.571,3.658-3.421
			c0.655-2.347-2.64-4.822-3.307-7.204C129.924,218.781,128.156,218.719,126.453,216.565z"/>
		<path fill-rule="evenodd" clip-rule="evenodd" fill="#FFFFFF" d="M142.576,211.792c-2.364,2.8,1.744,2.977,1.534,7.146
			c1.241-1.791,2.394-0.901,3.546,0.12c0.281-1.325,0.597-2.64,1.827-1.712c2.13-1.703-2.622-3.64-3.359-5.436
			C144.876,213.704,143.724,212.811,142.576,211.792z"/>
		<path fill-rule="evenodd" clip-rule="evenodd" fill="#FFFFFF" d="M69.13,285.566c-1.873,2.3-2.084,4.659-5.548,6.906
			c5.84,1.96,7.806,1.141,12.395,0.421c1.709-2.312-4.822-4.892-1.528-7.146C72.758,283.214,70.756,290.152,69.13,285.566z"/>
		<path fill-rule="evenodd" clip-rule="evenodd" fill="#FFFFFF" d="M130.438,230.004c-3.581,2.537,4.109,5.458,2.382,8.059
			c1.691,2.376,3.6-1.451,5.308,0.182C138.644,233.878,134.312,230.447,130.438,230.004z"/>
		<path fill-rule="evenodd" clip-rule="evenodd" fill="#FFFFFF" d="M154,214.841c5.711,3.33,6.765-3.746,8.245-7.707
			C156.328,205.354,155.065,210.402,154,214.841z"/>
		<path fill-rule="evenodd" clip-rule="evenodd" fill="#FFFFFF" d="M122.128,239.477c-0.392,3.225-1.241,1.004-3.664,3.421
			c3.745,2.668,3.289,1.685,7.825,4.699C128.484,243.032,125.874,243.441,122.128,239.477z"/>
		<path fill-rule="evenodd" clip-rule="evenodd" fill="#FFFFFF" d="M77.873,289.409c3.851-0.357,7.808-3.038,7.327-6.845
			C81.455,279.802,77.347,286.79,77.873,289.409z"/>
		<path fill-rule="evenodd" clip-rule="evenodd" fill="#FFFFFF" d="M104.49,262.819c-0.784,1.159,1.076,2.405-0.118,3.546
			c1.949,3.453,4.155-0.59,6.11,2.868c0.175-3.348-0.843-2.358,2.797-4.338c-3.353-0.905-3.522,0.102-5.185-3.726
			C106.865,262.462,105.637,263.743,104.49,262.819z"/>
		<path fill-rule="evenodd" clip-rule="evenodd" fill="#FFFFFF" d="M121.847,274.049c5.139-3.078-0.386-6.517,4.758-9.592
			c13.009,1.496,17.668,15.028,26.587,26.617c-3.793-16.077-12.899-42.155-32.281-41.885
			C111.155,257.078,112.355,270.919,121.847,274.049z"/>
		<path fill-rule="evenodd" clip-rule="evenodd" fill="#FFFFFF" d="M86.054,283.477c10.874,0.135,21.227-5.635,32.072-4.23
			c5.518,0.712,11.224,3.411,16.608,6.768C122.924,274.518,98.73,270.521,86.054,283.477z"/>
		<path fill-rule="evenodd" clip-rule="evenodd" fill="#FFFFFF" d="M168.232,213.548c-1.872,2.007,0.193,4.144,2.447,6.291
			c1.75-1.272,0.913-3.781,2.751-2.57C175.139,213.952,169.567,212.948,168.232,213.548z"/>
		<path fill-rule="evenodd" clip-rule="evenodd" fill="#FFFFFF" d="M84.375,333.082c6.888-4.897,3.471-12.957,5.975-19.307
			c9-22.798,36.899-30.11,55.632-19.397c-13.402-14.815-44.688-13.82-60.53,6.814C79.3,309.21,74.315,325.368,84.375,333.082z"/>
		<path fill-rule="evenodd" clip-rule="evenodd" fill="#FFFFFF" d="M18.239,374.29c1.644,1.239,0.608,2.385,1.649,3.608
			c1.991,2.435,4.085,1.548,6.182,1.095C31.581,373.937,22.733,366.965,18.239,374.29z"/>
		<path fill-rule="evenodd" clip-rule="evenodd" fill="#FFFFFF" d="M47.371,352.224c-1.229,1.142-2.447,2.284-3.664,3.423
			c1.393,2.278,2.891,1.84,4.336,2.805C50.711,356.479,49.864,354.38,47.371,352.224z"/>
		<path fill-rule="evenodd" clip-rule="evenodd" fill="#FFFFFF" d="M134.301,272.701c-1.218,1.138-2.434,2.279-3.658,3.42
			c5.753,4.601,11.571,7.479,17.236,14.772C150.073,285.057,137.918,278.734,134.301,272.701z"/>
		<path fill-rule="evenodd" clip-rule="evenodd" fill="#FFFFFF" d="M104.94,301.854c-0.421,3.423-0.779,4.594-4.641,6.051
			c2.715,0.012,4.846,3.137,1.592,5.373c3.687,0.75,4.787-2.083,9.837-2.326C109.294,305.008,113.068,307.167,104.94,301.854z"/>
		<path fill-rule="evenodd" clip-rule="evenodd" fill="#FFFFFF" d="M31.37,379.168c-1.393,2.317-1.152,4.695-2.001,7.029
			c5.963,7.876,15.438,18.832,25.61,29.249c0.867-0.859-0.339-1.791-0.795-2.691c-0.855-0.916-1.71-1.833-2.57-2.75
			c-4.846-9.325-12.893-18.758-17.668-28.087C33.091,381.001,32.236,380.086,31.37,379.168z"/>
		<path fill-rule="evenodd" clip-rule="evenodd" fill="#FFFFFF" d="M198.911,224.339c-0.919,0.857-1.838,1.715-2.751,2.569
			c2.271,2.792,4.554,5.104,7.023,2.013C203.235,226.619,201.205,224.446,198.911,224.339z"/>
		<path fill-rule="evenodd" clip-rule="evenodd" fill="#FFFFFF" d="M124.668,295.427c-1.75,1.42-0.89,2.927-2.81,4.337
			c1.698,2.4,3.43,3.383,5.197,3.726C132.078,299.28,129.163,295.896,124.668,295.427z"/>
		<path fill-rule="evenodd" clip-rule="evenodd" fill="#FFFFFF" d="M59.526,359.731c-2.136,1.998-4.272,3.993-6.408,5.989
			c1.229,3.586,1.674,7.151,4.952,10.809c1.241-1.638,2.387-0.608,3.604-1.65C63.916,369.928,60.948,364.808,59.526,359.731z"/>
		<path fill-rule="evenodd" clip-rule="evenodd" fill="#FFFFFF" d="M136.15,296.704c-1.329,2.318,4.073,4.869-0.239,7.087
			c2.024,1.416,4.231-2.593,6.174,1.094c2.142-0.978,1.288-6.239,4.576-4.278c1.755-4.213-7.193-0.438-3.36-5.434
			C140.996,293.468,138.408,300.005,136.15,296.704z"/>
		<path fill-rule="evenodd" clip-rule="evenodd" fill="#FFFFFF" d="M116.849,395.371c3.716-9.033-4.588-15.511-7.221-22.412
			c-7.83-20.552-0.046-55.28,32.334-64.527C100.891,309.942,76.965,370.8,116.849,395.371z"/>
		<path fill-rule="evenodd" clip-rule="evenodd" fill="#FFFFFF" d="M30.715,398.656c-3.113,4.583,0.257,8.007,4.951,10.815
			c1.756-1.422,0.89-2.928,2.81-4.342C35.935,401.605,33.326,400.33,30.715,398.656z"/>
		<path fill-rule="evenodd" clip-rule="evenodd" fill="#FFFFFF" d="M13.135,420.235c2.727,0.176,6.473-3.542,2.874-6.117
			C13.276,413.949,9.536,417.666,13.135,420.235z"/>
		<path fill-rule="evenodd" clip-rule="evenodd" fill="#FFFFFF" d="M76.878,370.958c1.509-0.796,2.95,0.266,4.459-0.733
			C89.589,359.027,64.91,360.009,76.878,370.958z"/>
		<path fill-rule="evenodd" clip-rule="evenodd" fill="#FFFFFF" d="M155.814,292.052c4.003,4.251,8.556,0.006,4.589-4.279
			C158.096,287.72,155.92,289.751,155.814,292.052z"/>
		<path fill-rule="evenodd" clip-rule="evenodd" fill="#FFFFFF" d="M59.731,380.134c2.258,5.103,3.675,10.172,7.455,15.325
			c1.323-5.569-3.417-11.347-2.088-16.917C63.371,377.139,61.568,377.929,59.731,380.134z"/>
		<path fill-rule="evenodd" clip-rule="evenodd" fill="#FFFFFF" d="M233.615,246.8c-13.888-8.558-30.192,1.517-44.829,14.444
			c-1.873,1.27-1.077,2.622-0.059,1.773c0.913-0.86,1.832-1.715,2.745-2.569C205.161,249.116,223.204,248.621,233.615,246.8z"/>
		<path fill-rule="evenodd" clip-rule="evenodd" fill="#FFFFFF" d="M164.054,284.35c-0.573,2.639,4.776,5.481-1.146,7.941
			c2.364,1.627,9.387-0.328,8.672,5.613c3.664-1.001-0.812-9.211,7.386-8.615c-2.458-0.778-8.755-2.347-5.992-6.414
			C170.042,282.377,166.886,288.177,164.054,284.35z"/>
		<path fill-rule="evenodd" clip-rule="evenodd" fill="#FFFFFF" d="M5.632,432.395c-0.175,2.652,1.417,5.368,4.155,8.118
			c3.102-3.774,8.545,1.902,8.978-3.241C16.95,430.845,10.209,434.205,5.632,432.395z"/>
		<path fill-rule="evenodd" clip-rule="evenodd" fill="#FFFFFF" d="M229.021,225.364c-2.559,1.686-0.427,3.529-3.722,5.191
			c2.025,1.388,4.167-0.784,6.11,2.874c1.223-1.299,2.453-2.581,3.605-1.656c0.638-2.048-1.435-4.187-2.44-6.291
			C231.321,227.277,230.162,226.382,229.021,225.364z"/>
		<path fill-rule="evenodd" clip-rule="evenodd" fill="#FFFFFF" d="M130.978,318.697c-1.358,2.615,5.466,5.507,0.608,8.006
			c2.312,1.72,4.921-5.502,7.093,0.236c1.855-1.248-1.199-6.961,1.943-5.252c2.984-3.253-5.478-1.264-2.505-4.517
			C135.811,315.46,133.224,321.997,130.978,318.697z"/>
		<path fill-rule="evenodd" clip-rule="evenodd" fill="#FFFFFF" d="M121.637,332.572c-6.824,5.887-12.67,23.532-4.564,29.994
			C119.519,352.599,115.445,342.41,121.637,332.572z"/>
		<path fill-rule="evenodd" clip-rule="evenodd" fill="#FFFFFF" d="M40.19,406.961c-2.441,5.975,7.134,6.778,10.27,10.991
			C50.561,413.27,43.099,409.706,40.19,406.961z"/>
		<path fill-rule="evenodd" clip-rule="evenodd" fill="#FFFFFF" d="M178.416,279.515c19.489-10.715,39.012-19.319,57.786-4.25
			c9.129,7.34,14.384,22.054,25.849,22.159c6.585-5.589,2.453-12.694-0.314-16.861C242.388,251.396,202.353,253.579,178.416,279.515
			z"/>
		<path fill-rule="evenodd" clip-rule="evenodd" fill="#FFFFFF" d="M147.218,310.38c2.252,3.266,4.617,3.345,7.087,0.24
			C154.795,305.436,147.078,305.172,147.218,310.38z"/>
		<path fill-rule="evenodd" clip-rule="evenodd" fill="#FFFFFF" d="M26.337,423.342c1.651,1.534,0.68,2.979,2.504,4.519
			c1.833-1.69,3.5,1.411,5.373-1.592C35.115,422.279,30.422,417.525,26.337,423.342z"/>
		<path fill-rule="evenodd" clip-rule="evenodd" fill="#FFFFFF" d="M187.328,278.042c-3.458,1.954,1.839,4.202-2.861,6.115
			c2.598,1.651,5.396-2.229,7.877,2.924c0.865-0.857-0.339-1.783-0.797-2.686c1.885-3.175,3.583-0.929,5.438-3.363
			C191.922,280.382,192.426,277.371,187.328,278.042z"/>
		<path fill-rule="evenodd" clip-rule="evenodd" fill="#FFFFFF" d="M22.428,433.846c-1.72,1.124-0.761,2.341-1.884,3.489
			c2.809,4.125,5.834,2.142,8.854,0.298C29.545,433.73,24.951,436.087,22.428,433.846z"/>
		<path fill-rule="evenodd" clip-rule="evenodd" fill="#FFFFFF" d="M146.86,321.013c-10.64,13.605-13.976,39.627,0.826,54.116
			c8.9-6.549,0.954-16.394-1.001-23.086C143.653,341.591,142.635,331.607,146.86,321.013z"/>
		<path fill-rule="evenodd" clip-rule="evenodd" fill="#FFFFFF" d="M11.204,451.204c3.124,3.905,6.39,3.312,9.773-0.555
			c-0.356-1.2-0.732-2.393,0.117-3.54C17.202,439.494,8.043,445.856,11.204,451.204z"/>
		<path fill-rule="evenodd" clip-rule="evenodd" fill="#FFFFFF" d="M253.899,354.788c8.234-12.512-0.503-35.362-13.414-49.227
			c-16.819-18.075-42.324-22.997-59.857-12.673c19.652-7.813,45.402,3.614,56.873,22.327c3.909,6.368,5.067,14.402,6.368,21.496
			C245.12,343.489,244.506,353.238,253.899,354.788z"/>
		<path fill-rule="evenodd" clip-rule="evenodd" fill="#FFFFFF" d="M237.103,248.691c-0.644,4.156,0.316,4.227-2.014,7.03
			c2.382-0.563,4.717,0.329,6.964,3.779c-0.222-4.992,2.529-4.114,6.403-5.993c-2.364-1.012-7.819-1.598-5.127-5.493
			C241.351,245.314,239,253.666,237.103,248.691z"/>
		<path fill-rule="evenodd" clip-rule="evenodd" fill="#FFFFFF" d="M205.044,278.644c-2.271,1.401-1.838,2.89-2.804,4.341
			c1.727,1.405,3.522,0.609,5.373-1.592C206.752,280.475,205.899,279.56,205.044,278.644z"/>
		<path fill-rule="evenodd" clip-rule="evenodd" fill="#FFFFFF" d="M115.293,362.508c-2.353,4.646,1.369,9.503,6.613,14.414
			C120.864,371.514,121.052,365.696,115.293,362.508z"/>
		<path fill-rule="evenodd" clip-rule="evenodd" fill="#FFFFFF" d="M150.032,331.759c-1.065,1.739,1.919,3.61-1.943,5.255
			c3.395,0.036,3.418,3.089,5.126,5.496c1.258-2.318,0.966-6.816,4.589-4.278c3.102-1.674-4.694-3.708-1.591-5.376
			C154.152,332.484,152.057,333.369,150.032,331.759z"/>
		<path fill-rule="evenodd" clip-rule="evenodd" fill="#FFFFFF" d="M188.376,299.36c0.866,3.904,5.911,2.4,5.935,8.181
			c0.058-4.107,3.809-1.415,6.232-0.675c2.353-2.876-4.184-6.051,2.066-8.8c-2.598-1.65-5.39,2.227-7.876-2.926
			C194.978,299.581,192.192,299.536,188.376,299.36z"/>
		<path fill-rule="evenodd" clip-rule="evenodd" fill="#FFFFFF" d="M185.509,305.47c18.16,16.902,30.947,37.181,34.435,57.034
			c1.721,9.829-2.048,20.03,4.355,28.528c8.192-4.18,7.871-17.976,6.208-26.395C226.252,343.065,205.396,316.668,185.509,305.47z"/>
		<path fill-rule="evenodd" clip-rule="evenodd" fill="#FFFFFF" d="M126.845,362.009c-1.434,3.143-0.527,9.293,4.097,9.897
			C131.533,368.734,131.679,362.619,126.845,362.009z"/>
		<path fill-rule="evenodd" clip-rule="evenodd" fill="#FFFFFF" d="M8.465,479.489c4.811,3.774,8.731,1.287,9.902-4.097
			C13.597,466.649,4.321,473.537,8.465,479.489z"/>
		<path fill-rule="evenodd" clip-rule="evenodd" fill="#FFFFFF" d="M178.925,316.777c-0.778,3.812,7.064,3.582,0.615,8.001
			c3.195,1.691,6.601-2.909,9.655,2.987c0.978-3.468-1.469-5.679,3.782-6.961c-4.273-0.842-5.151-2.23-7.761-6.473
			C185.169,317.942,181.33,318.019,178.925,316.777z"/>
		<path fill-rule="evenodd" clip-rule="evenodd" fill="#FFFFFF" d="M31.488,454.552c-2.64,1.978-3.628,4.015-1.101,6.169
			c1.481-0.046,2.991-0.949,4.518-2.505C33.77,456.994,32.623,455.77,31.488,454.552z"/>
		<path fill-rule="evenodd" clip-rule="evenodd" fill="#FFFFFF" d="M100.838,396.603c-2.622,3.459-6.053,6.887-2.12,10.566
			c3.219,0.19,1.627-2.917,5.49-5.134C101.768,400.181,104.021,398.481,100.838,396.603z"/>
		<path fill-rule="evenodd" clip-rule="evenodd" fill="#FFFFFF" d="M22.088,470.195c-1.217,2.324-0.163,4.725,1.534,7.146
			c2.61-3.752,8.937-3.038,6.468-7.762C27.566,465.589,24.7,471.658,22.088,470.195z"/>
		<path fill-rule="evenodd" clip-rule="evenodd" fill="#FFFFFF" d="M129.116,373.614c-0.866,4.016,0.34,9.078,4.951,10.809
			C136.718,381.095,133.458,374.411,129.116,373.614z"/>
		<path fill-rule="evenodd" clip-rule="evenodd" fill="#FFFFFF" d="M34.485,470.617c6.402-5.694,12.675-7.526,19.054-12.657
			c-6.812,0.327-13.823,6.733-20.647,7.278C29.276,466.895,33.173,468.803,34.485,470.617z"/>
		<path fill-rule="evenodd" clip-rule="evenodd" fill="#FFFFFF" d="M90.35,418.414c3.886,0.364,6.379-6.83,8.299-9.471
			C93.007,406.371,94.236,415.464,90.35,418.414z"/>
		<path fill-rule="evenodd" clip-rule="evenodd" fill="#FFFFFF" d="M236.868,281.5c-4.927,3.017,3.137,9.417,5.876,9.949
			C244.746,287.644,240.953,283.114,236.868,281.5z"/>
		<path fill-rule="evenodd" clip-rule="evenodd" fill="#FFFFFF" d="M36.192,472.449c-1.216,1.141-2.434,2.282-3.657,3.422
			c1.691,2.395,3.434,3.379,5.191,3.725C40.979,477.342,38.826,474.9,36.192,472.449z"/>
		<path fill-rule="evenodd" clip-rule="evenodd" fill="#FFFFFF" d="M113.005,404.105c-0.919,0.86-1.833,1.715-2.751,2.569
			c0.228,1.782,1.089,3.585,3.365,5.435c0.924-1.14,1.82-1.321,2.68-0.793C118.008,408.782,116.796,404.223,113.005,404.105z"/>
		<path fill-rule="evenodd" clip-rule="evenodd" fill="#FFFFFF" d="M217.345,308.327c5.419,5.902,10.488,19.892,15.28,20.022
			C234.352,321.706,223.122,312.604,217.345,308.327z"/>
		<path fill-rule="evenodd" clip-rule="evenodd" fill="#FFFFFF" d="M126.681,393.046c-1.767,4.286,7.093,3.427,3.301,7.204
			c2.34,0.853,4.81-2.307,7.028,2.012c0.598-2.938-0.263-5.922,2.066-8.795c-2.376,0.561-4.717-0.337-6.964-3.789
			C132.078,393.474,130.438,394.783,126.681,393.046z"/>
		<path fill-rule="evenodd" clip-rule="evenodd" fill="#FFFFFF" d="M209.96,316.941c2.411,2.42,0.187,3.269,3.417,3.664
			C217.58,318.029,212.81,312.927,209.96,316.941z"/>
		<path fill-rule="evenodd" clip-rule="evenodd" fill="#FFFFFF" d="M190.671,336.687c-1.99,4.424,5.255,3.663,0.608,7.997
			c2.646,0.398,5.291,0.806,7.831,4.703c0.826-1.28,0-6.923,3.711-5.198c-0.808-3.867-3.418-3.458-4.155-8.123
			C195.873,339.959,193.239,339.206,190.671,336.687z"/>
		<path fill-rule="evenodd" clip-rule="evenodd" fill="#FFFFFF" d="M59.467,466.14c-6.49,7.182-23.098,21.678-19.716,32.142
			C48.483,491.182,52.111,476.242,59.467,466.14z"/>
		<path fill-rule="evenodd" clip-rule="evenodd" fill="#FFFFFF" d="M30.481,510.385c1.499-0.797,2.944,0.268,4.459-0.737
			C45.65,496.619,16.623,497.749,30.481,510.385z"/>
		<path fill-rule="evenodd" clip-rule="evenodd" fill="#FFFFFF" d="M221.196,325.304c4.284,10.267,7.385,24.978,13.098,32.369
			C235.335,347.063,227.282,336.15,221.196,325.304z"/>
		<path fill-rule="evenodd" clip-rule="evenodd" fill="#FFFFFF" d="M190.062,354.399c-1.872,2.003,0.194,4.141,2.446,6.287
			c1.217-1.138,2.447-2.278,3.664-3.42C194.229,353.617,192.133,354.533,190.062,354.399z"/>
		<path fill-rule="evenodd" clip-rule="evenodd" fill="#FFFFFF" d="M160.759,381.781c-2.908,3.965-1.03,10.596,4.091,9.894
			C164.51,387.795,165.376,383.42,160.759,381.781z"/>
		<path fill-rule="evenodd" clip-rule="evenodd" fill="#FFFFFF" d="M126.394,427.615c4.395,5.629,9.639,0.364,9.896-4.098
			C133.083,423.915,126.957,424.191,126.394,427.615z"/>
		<path fill-rule="evenodd" clip-rule="evenodd" fill="#FFFFFF" d="M204.12,358.422c1.006,6.245,3.394,12.529,5.565,18.81
			C214.162,371.174,207.875,364.758,204.12,358.422z"/>
		<path fill-rule="evenodd" clip-rule="evenodd" fill="#FFFFFF" d="M235.195,331.098c-5.361,3.365-2.014,7.026-0.363,10.628
			C238.777,338.314,238.894,334.772,235.195,331.098z"/>
		<path fill-rule="evenodd" clip-rule="evenodd" fill="#FFFFFF" d="M257.047,314.103c-3.487,3.131,0.235,6.513,2.33,9.834
			c1.533-1.654,2.985-0.681,4.518-2.507C262.524,318.79,260.547,314.208,257.047,314.103z"/>
		<path fill-rule="evenodd" clip-rule="evenodd" fill="#FFFFFF" d="M104.793,463.243c6.392,8.147,15.556,30.684,28.36,26.681
			C126.53,484.902,114.052,472.848,104.793,463.243z"/>
		<path fill-rule="evenodd" clip-rule="evenodd" fill="#FFFFFF" d="M236.552,343.557c-0.948,0.562-0.538,1.165-0.069,1.772
			c0.859,1.213-0.943,2.333-1.891,3.483c3.342,0.141,2.254,2.208,4.278,4.579c0.106-2.326,2.283-4.391,4.518-2.508
			c1.663-2.012-3.57-4.253-0.679-6.229C240.695,343.235,238.449,348.496,236.552,343.557z"/>
		<path fill-rule="evenodd" clip-rule="evenodd" fill="#FFFFFF" d="M133.002,442.034c-1.721,1.119-0.767,2.337-1.896,3.477
			c2.868,2.739,5.747,4.863,8.802,2.072C137.157,443.678,137.18,442.082,133.002,442.034z"/>
		<path fill-rule="evenodd" clip-rule="evenodd" fill="#FFFFFF" d="M264.691,324.116c-1.218,1.141-2.447,2.283-3.664,3.423
			c1.381,3.001,0.854,5.939,3.253,8.977c2.167-1.996,1.218-4.096,4.636-6.051C265.627,328.289,267.974,326.299,264.691,324.116z"/>
		<path fill-rule="evenodd" clip-rule="evenodd" fill="#FFFFFF" d="M91.607,485.857c3.015,8.55,2.916,23.842,13.269,27.05
			C103.729,503.999,95.816,494.862,91.607,485.857z"/>
		<path fill-rule="evenodd" clip-rule="evenodd" fill="#FFFFFF" d="M82.392,496.18c-3.793,5.379-1.253,7.888,4.101,9.896
			C87.26,502.043,87.774,495.489,82.392,496.18z"/>
		<path fill-rule="evenodd" clip-rule="evenodd" fill="#FFFFFF" d="M194.065,393.554c-0.925,0.854-1.838,1.713-2.751,2.569
			c0.375,3.673,2.751,10.75,7.579,11.78C201.462,403.263,196.547,398.367,194.065,393.554z"/>
		<path fill-rule="evenodd" clip-rule="evenodd" fill="#FFFFFF" d="M212.313,378.209c-4.554,2.803-1.306,5.865-2.072,8.796
			C213.436,387.625,215.028,380.726,212.313,378.209z"/>
		<path fill-rule="evenodd" clip-rule="evenodd" fill="#FFFFFF" d="M233.931,368.301c4.571-2.505,2.739-5.227,2.926-7.883
			C232.058,358.826,231.326,364.801,233.931,368.301z"/>
		<path fill-rule="evenodd" clip-rule="evenodd" fill="#FFFFFF" d="M144.425,445.077c-2.674,1.98-0.573,4.121,0.68,6.234
			c1.475-0.052,2.984-0.948,4.517-2.511C147.949,444.978,147.785,445.985,144.425,445.077z"/>
		<path fill-rule="evenodd" clip-rule="evenodd" fill="#FFFFFF" d="M100.474,486.155c-5.033,3.159-0.164,9.234,3.419,3.662
			C102.751,488.595,101.61,487.373,100.474,486.155z"/>
		<path fill-rule="evenodd" clip-rule="evenodd" fill="#FFFFFF" d="M124.153,467.445c-2.394,1.99-4.6,3.985-2.868,6.107
			c2.26,3.257,4.693,1.103,7.151-1.525C126.447,468.608,127.431,469.668,124.153,467.445z"/>
		<path fill-rule="evenodd" clip-rule="evenodd" fill="#FFFFFF" d="M78.247,513.777c2.283,2.423,4.542,5.555,6.906,5.555
			c1.527-1.43,3.054-2.851,4.587-4.278C89.484,507.973,79.014,505.713,78.247,513.777z"/>
		<path fill-rule="evenodd" clip-rule="evenodd" fill="#FFFFFF" d="M265.071,339.206c0.889,2.984,2.581,5.996-0.299,8.858
			c2.634,0.686,5.45-3.908,7.936,1.153c2.096-3.365-0.199-4.625,4.636-6.049c-2.307-1.251-6.806-0.961-4.272-4.579
			C270.461,337.23,267.564,344.06,265.071,339.206z"/>
		<path fill-rule="evenodd" clip-rule="evenodd" fill="#FFFFFF" d="M198.835,409.678c-2.113,2.883,2.428,5.991,3.242,8.977
			C207.571,415.517,201.685,407.859,198.835,409.678z"/>
		<path fill-rule="evenodd" clip-rule="evenodd" fill="#FFFFFF" d="M204.763,417.858c-3.008,1.451,7.983,18.945,13.449,21.735
			C215.648,438.282,211.991,425.816,204.763,417.858z"/>
		<path fill-rule="evenodd" clip-rule="evenodd" fill="#FFFFFF" d="M156.517,219.359c-6.356,4.161-3.453,13.329-3.348,20.281
			c0.093,7.331-0.86,15.757,1.896,22.236C153.239,247.626,157.98,233.592,156.517,219.359z"/>
		<path fill-rule="evenodd" clip-rule="evenodd" fill="#FFFFFF" d="M138.07,240.019c-4.88,2.545,1.112,7.075,2.33,9.832
			c3.371,7.564,9.194,23.406,12.418,26.136C148.481,264.603,147.224,248.61,138.07,240.019z"/>
		<path fill-rule="evenodd" clip-rule="evenodd" fill="#FFFFFF" d="M184.25,238.034c6.561,5.619,4.805,11.667,11.98,12.819
			c7.035-7.991-0.667-19.356-9.785-25.162c-27.132,2.742-31.041,37.204-27.576,54.937c0.749,2.861,0.825,2.861,1.767,0.058
			C160.192,267.361,162.896,239.275,184.25,238.034z"/>
		<path fill-rule="evenodd" clip-rule="evenodd" fill="#FFFFFF" d="M177.842,244.023c-7.631,6.845-8.965,21.563-11.704,31.527
			c7.086-4.205,12.747-16.108,22.953-23.167c-4.402-1.142-9.001,3.792-13.56,7.523C175.22,254.576,176.121,249.288,177.842,244.023z
			"/>
		<path fill-rule="evenodd" clip-rule="evenodd" fill="#FFFFFF" d="M200.936,243.032c8.041-1.849,16.258-8.837,24.182-7.16
			C220.91,228.875,208.672,233.147,200.936,243.032z"/>
		<path fill-rule="evenodd" clip-rule="evenodd" fill="#FFFFFF" d="M81.086,456.231c7.677,10.869,19.716,23.011,27.266,32.85
			C105.8,476.874,98.239,464.5,92.75,452.193c16.989,4.624,34.002,8.521,50.95,14.14c-12.927-10.89-33.604-20.073-49.551-29.167
			c6.268-3.588,17.434-14.292,26.376-19.5c-10.915-0.586-22.052,5.323-33.101,8.63c-4.085-15.215-0.855-30.179-4.67-45.385
			c-2.622,13.806-4.577,27.63-7.614,41.424c-7.696-9.083-11.43-15.725-20.419-25.522c2.967,10.742,8.65,21.571,13.098,32.365
			c-5.338,0.484-10.64-0.095-15.89-2.307c0.732,5.554,9.206,6.666,12.952,10.188c-5.776,4.912-11.446,6.345-17.211,10.951
			c6.7,2.761,13.53,2.008,20.277,3.341c0.024,15.966-1.744,31.867-3.388,47.773C71.775,488.425,74.631,469.91,81.086,456.231z"/>
		<path fill-rule="evenodd" clip-rule="evenodd" fill="#FFFFFF" d="M165.856,335.843c3.208,13.409,5.537,26.792,13.718,40.371
			c0.896-1.45-0.07-2.961,1.029-4.401c3.605,7.81,4.355,15.521,9.85,23.391c6.478-6.455-0.791-14.825-2.827-21.377
			c-4.237-13.679-8.111-27.764-10.955-42.94c-2.329-12.417,1.007-25.451-14.069-29.735c-12.653,14.052-1.252,28.923,1.194,43.489
			C167.08,345.264,163.914,338.2,165.856,335.843z"/>
		<path fill-rule="evenodd" clip-rule="evenodd" fill="#FFFFFF" d="M130.438,334.644c-3.137,4.724-9.141,21.432-0.908,26.57
			C129.174,352.336,128.214,343.434,130.438,334.644z"/>
		<path fill-rule="evenodd" clip-rule="evenodd" fill="#FFFFFF" d="M206.086,274.246c1.943,2.438,7.707,2.568,12.278,3.964
			c4.893,1.487,9.645,4.578,14.052,4.021C227.248,273.461,214.466,273.95,206.086,274.246z"/>
		<path fill-rule="evenodd" clip-rule="evenodd" fill="#FFFFFF" d="M32.084,436.838c2.195,5.343,11.577,0.678,16.796,1.458
			C50.087,438.166,36.802,434.573,32.084,436.838z"/>
		<path fill-rule="evenodd" clip-rule="evenodd" fill="#FFFFFF" d="M156.586,347.944c-2.399,2.531-0.415,10.789,0.317,16.864
			c0.737,6.143-0.035,15.166,5.688,15.263C161.421,369.391,157.991,358.633,156.586,347.944z"/>
		<path fill-rule="evenodd" clip-rule="evenodd" fill="#FFFFFF" d="M228.693,287.422c8.802,5.975,17.48,17.094,25.733,25.705
			c4.319-2.295-0.843-7.884-2.329-9.833C246.607,296.145,234.352,289.072,228.693,287.422z"/>
		<path fill-rule="evenodd" clip-rule="evenodd" fill="#FFFFFF" d="M112.963,431.594c3.938-0.877,11.272,1.078,12.513-3.118
			C121.438,425.7,117.153,429.92,112.963,431.594z"/>
		<path fill-rule="evenodd" clip-rule="evenodd" fill="#FFFFFF" d="M107.404,438.505c3.3,2.5,18.417,9.527,21.993,5.173
			C125.528,438.81,114.239,441.701,107.404,438.505z"/>
		<path fill-rule="evenodd" clip-rule="evenodd" fill="#FFFFFF" d="M157.406,402.066c-0.877,1.145,0.357,1.393,0.86,0.917
			c3.131,2.469,2.359,4.804,1.534,7.138c3.289-1.064,6.53-0.783,9.65,2.997c-1.042-3.878-3.617-7.812,3.055-11.428
			c-3.71-0.511-7.433-0.363-8.685-5.614C163.024,399.236,161.526,403.494,157.406,402.066z"/>
		<path fill-rule="evenodd" clip-rule="evenodd" fill="#FFFFFF" d="M84.03,474.069c-2.44,2.734-5.701,17.335,0.199,20.401
			C87.81,487.793,81.864,480.795,84.03,474.069z"/>
	</g>
	<g>
		<path fill-rule="evenodd" clip-rule="evenodd" fill="#FFFFFF" d="M409.432,42.262c12.954,3.028,11.781,20.19,15.637,32.323
			C419.246,64.968,410.463,53.25,409.432,42.262z"/>
		<path fill-rule="evenodd" clip-rule="evenodd" fill="#FFFFFF" d="M451.136,42.262c5.899,12.043-7.917,21.804-9.387,33.364
			C440.375,64.166,443.891,48.576,451.136,42.262z"/>
		<path fill-rule="evenodd" clip-rule="evenodd" fill="#FFFFFF" d="M476.16,42.262c-0.332,8.359-6.954,10.429-9.387,16.685
			C465.804,53.435,469.576,43.686,476.16,42.262z"/>
		<path fill-rule="evenodd" clip-rule="evenodd" fill="#FFFFFF" d="M394.825,47.476c1.047,0,2.089,0,3.13,0
			c13.307,11.364,19.188,30.168,25.021,49.007c-4.1-6.826-9.845-13.973-15.628-21.898C401.506,66.592,392.234,56.979,394.825,47.476
			z"/>
		<path fill-rule="evenodd" clip-rule="evenodd" fill="#FFFFFF" d="M427.152,51.646c1.042,0,2.084,0,3.126,0
			c4.84,12.329,2.439,33.439,4.167,40.664c-3.369-0.91-2.6-5.808-3.121-8.339c-1.728-8.369-3.544-19.012-5.213-29.197
			C425.818,53.089,427.094,52.978,427.152,51.646z"/>
		<path fill-rule="evenodd" clip-rule="evenodd" fill="#FFFFFF" d="M397.955,78.756c-7.259-7.342-20.228-8.967-22.935-20.854
			C387.78,55.655,393.979,68.766,397.955,78.756z"/>
		<path fill-rule="evenodd" clip-rule="evenodd" fill="#FFFFFF" d="M455.303,65.203c0.642,18.062-12.128,31.63-16.68,47.964
			c-0.381-17.069,3.719-38.675,13.554-49.009C453.861,63.864,453.968,65.144,455.303,65.203z"/>
		<path fill-rule="evenodd" clip-rule="evenodd" fill="#FFFFFF" d="M491.797,64.158c-2.834,9.676-13.744,11.278-20.853,16.683
			C476.694,74.078,480.404,65.278,491.797,64.158z"/>
		<path fill-rule="evenodd" clip-rule="evenodd" fill="#FFFFFF" d="M503.268,75.625c-3.443,5.249-12.046,5.342-17.723,8.345
			C489.159,79.462,497.493,71.356,503.268,75.625z"/>
		<path fill-rule="evenodd" clip-rule="evenodd" fill="#FFFFFF" d="M407.348,114.207c-12.21-11.429-29.309-17.967-40.673-30.236
			c0-1.045,0-2.083,0-3.13c0.838-0.55,1.695-1.086,3.132-1.042C386.87,86.716,397.581,99.99,407.348,114.207z"/>
		<path fill-rule="evenodd" clip-rule="evenodd" fill="#FFFFFF" d="M477.2,89.182c-6.46,17.171-25.097,22.174-34.41,36.495
			c-1.041-4.708,4.577-12.48,9.387-18.768c4.392-5.742,9.523-12.559,13.553-15.64C468.39,89.238,472.508,86.882,477.2,89.182z"/>
		<path fill-rule="evenodd" clip-rule="evenodd" fill="#FFFFFF" d="M498.057,90.227c-4.536,10.063-18.897,10.297-27.112,16.682
			c-0.764-3.629,14.582-18.065,20.853-18.766C494.333,87.855,496.223,88.574,498.057,90.227z"/>
		<path fill-rule="evenodd" clip-rule="evenodd" fill="#FFFFFF" d="M428.194,127.763c-5.666-4.869-7.761-12.093-12.513-17.727
			c-4.542-5.384-11.393-8.875-14.595-15.64c0.534-1.543,1.538-2.626,2.083-4.17c0.696,0,1.393,0,2.085,0
			C417.187,98.455,423.988,111.809,428.194,127.763z"/>
		<path fill-rule="evenodd" clip-rule="evenodd" fill="#FFFFFF" d="M510.569,104.823c-5.228,6.986-16.328,6.054-25.024,8.344
			c-8.733,2.293-16.533,6.319-23.981,8.34c7.391-5.618,21.236-15.136,32.322-18.768C498.384,101.261,507.747,97.637,510.569,104.823
			z"/>
		<path fill-rule="evenodd" clip-rule="evenodd" fill="#FFFFFF" d="M411.511,128.805c-15.082-10.633-42.654-8.785-56.296-20.854
			c-0.302-1.682,0.979-1.794,1.033-3.127C380.708,102.636,398.662,115.913,411.511,128.805z"/>
		<path fill-rule="evenodd" clip-rule="evenodd" fill="#FFFFFF" d="M523.082,115.251c-1.315,7.129-8.247,3.286-11.47,3.125
			c-6.479-0.321-11.139-0.981-18.773-1.042C499.996,112.68,515.02,110.241,523.082,115.251z"/>
		<path fill-rule="evenodd" clip-rule="evenodd" fill="#FFFFFF" d="M595.024,119.421c2.945-0.164,2.614,2.948,4.173,4.169
			c-5.668,11.363-12.698,21.366-18.774,32.323C581.933,144.555,590.531,131.263,595.024,119.421z"/>
		<path fill-rule="evenodd" clip-rule="evenodd" fill="#FFFFFF" d="M503.268,126.716c-1.14,5.526-8.589,4.82-13.556,5.216
			c-13.888,1.113-28.422-0.421-39.619,1.044C462.981,127.242,490.268,115.959,503.268,126.716z"/>
		<path fill-rule="evenodd" clip-rule="evenodd" fill="#FFFFFF" d="M400.045,130.889c-12.683,1.227-29.776,3.588-42.745,1.044
			c0.837-8.478,12.473-6.847,19.805-6.256C385.722,126.371,394.845,129.812,400.045,130.889z"/>
		<path fill-rule="evenodd" clip-rule="evenodd" fill="#FFFFFF" d="M576.256,132.977c1.772-0.384,1.967,0.813,2.084,2.084
			c-5.473,7.736-7.892,18.52-13.554,26.066C566.042,153.34,570.521,139.759,576.256,132.977z"/>
		<path fill-rule="evenodd" clip-rule="evenodd" fill="#FFFFFF" d="M526.208,143.401c-13.242,3.417-21.48-6.948-35.453-6.256
			C499.792,133.036,524.523,133.43,526.208,143.401z"/>
		<path fill-rule="evenodd" clip-rule="evenodd" fill="#FFFFFF" d="M402.129,139.23c-2.084,3.649-8.939,2.724-14.597,4.17
			c-11.333,2.903-26.085,13.846-38.589,10.428C357.64,139.927,380.269,139.969,402.129,139.23z"/>
		<path fill-rule="evenodd" clip-rule="evenodd" fill="#FFFFFF" d="M465.729,141.317c15.289-0.423,35.259,2.113,47.967,8.34
			c3.864,1.896,10.379,3.855,9.386,9.386c-9.849,4.611-18.617-4.668-27.117-8.342C486.129,146.449,475.843,144.958,465.729,141.317z
			"/>
		<path fill-rule="evenodd" clip-rule="evenodd" fill="#FFFFFF" d="M415.682,141.317c1.198,0.37,2.64,1.835,1.043,2.084
			c-12.503,2.848-21.967,14.106-35.448,12.512c0.093-7.064,8.842-8.803,14.596-10.426
			C402.382,143.654,410.087,143.62,415.682,141.317z"/>
		<path fill-rule="evenodd" clip-rule="evenodd" fill="#FFFFFF" d="M534.548,144.447c4.095,1.465,1.231,9.886,2.088,14.596
			C533.501,156.451,532.565,149.039,534.548,144.447z"/>
		<path fill-rule="evenodd" clip-rule="evenodd" fill="#FFFFFF" d="M445.917,145.487c7.077,3.308,15.476,8.581,20.856,14.598
			c4.459,4.976,9.736,12.229,8.344,19.81c-8.072-2.278-11.296-10.998-15.638-16.682
			C454.903,157.242,448.954,152.388,445.917,145.487z"/>
		<path fill-rule="evenodd" clip-rule="evenodd" fill="#FFFFFF" d="M418.812,147.573c2.663-0.046,1.271,0.774,1.042,2.084
			c-11.606,5.558-19.693,14.309-28.155,22.94c-8.086,8.252-14.701,19.172-26.065,23.982c1.455-14.231,13.312-22.044,21.898-29.197
			C396.968,159.518,406.816,152.256,418.812,147.573z"/>
		<path fill-rule="evenodd" clip-rule="evenodd" fill="#FFFFFF" d="M428.194,148.615c0.487,4.83-4.674,8.389-7.298,12.512
			c-2.722,4.274-4.854,9.002-7.297,13.556c-4.86,9.048-7.864,21.55-17.728,25.024C396.54,176.672,414.719,162.3,428.194,148.615z"/>
		<path fill-rule="evenodd" clip-rule="evenodd" fill="#FFFFFF" d="M435.492,148.615c3.715,9.805,12.425,24.688,7.298,36.495
			c-6.412-1.314-6.563-12.328-7.298-19.81C434.83,158.513,434.723,152.052,435.492,148.615z"/>
		<path fill-rule="evenodd" clip-rule="evenodd" fill="#FFFFFF" d="M464.688,152.787c7.304,0.73,16.233,5.497,23.982,10.426
			c6.816,4.333,16.904,10.017,15.639,18.766c-8.316,0.248-13.759-8.301-19.806-13.554
			C478.048,162.828,471.145,157.529,464.688,152.787z"/>
		<path fill-rule="evenodd" clip-rule="evenodd" fill="#FFFFFF" d="M443.837,158.001c9.771,18.029,21.466,34.149,22.937,60.478
			c-10.001-1.733-12.035-17.697-14.597-27.113C449.1,180.051,446.485,168.157,443.837,158.001z"/>
		<path fill-rule="evenodd" clip-rule="evenodd" fill="#FFFFFF" d="M502.226,161.127c8.32,3.583,20.442,8.635,18.768,18.768
			c-8.71-2.234-10.735-11.458-16.684-16.682C503.501,162.5,501.607,163.24,502.226,161.127z"/>
		<path fill-rule="evenodd" clip-rule="evenodd" fill="#FFFFFF" d="M605.447,163.213c-4.897,4.487-10.287,8.479-17.721,10.426
			C592.585,169.885,597.648,157.322,605.447,163.213z"/>
		<path fill-rule="evenodd" clip-rule="evenodd" fill="#FFFFFF" d="M373.974,162.174c-5.906,6.251-10.657,13.67-20.852,15.638
			C356.229,168.749,364.834,165.192,373.974,162.174z"/>
		<path fill-rule="evenodd" clip-rule="evenodd" fill="#FFFFFF" d="M431.324,164.257c3.248,7.61,6.505,24.869,2.08,33.365
			c-4.792-4.786-4.188-11.149-4.168-14.602C429.266,178.206,430.375,172.953,431.324,164.257z"/>
		<path fill-rule="evenodd" clip-rule="evenodd" fill="#FFFFFF" d="M555.399,166.341c3.232,0.243,3.257,3.697,4.167,6.256
			c3.312-0.867,5.307-3.042,7.304-5.214c1.329,5.424-3.646,10.456-6.253,15.637c-2.638,5.244-3.578,11.919-8.344,14.602
			c-0.838-10.633-3.32-19.62-5.219-29.197c2.785,1.047,3.438,4.206,5.219,6.258C553.69,172.276,555.271,170.032,555.399,166.341z"/>
		<path fill-rule="evenodd" clip-rule="evenodd" fill="#FFFFFF" d="M457.386,168.425c10.059,13.259,25.428,26.675,25.03,46.923
			c-9.48-1.986-11.35-14.133-14.602-21.896C464.202,184.827,460.258,176.418,457.386,168.425z"/>
		<path fill-rule="evenodd" clip-rule="evenodd" fill="#FFFFFF" d="M570.005,168.425c2.444,6.31,0.214,14.191,0,16.685
			c4.206-0.999,8.295-2.128,12.502-3.13c-1.801,5.15-6.806,7.093-9.376,11.473c5.243-0.728,7.264,1.77,12.512,1.039
			c-6.747,3.686-17.084,3.778-26.076,5.217C562.762,188.994,566.397,178.727,570.005,168.425z"/>
		<path fill-rule="evenodd" clip-rule="evenodd" fill="#FFFFFF" d="M422.976,170.511c1.78-0.382,1.977,0.815,2.093,2.086
			c-4.313,17.235-3.758,39.342-13.558,51.09c-7.601-5.136-1.709-17.395,1.046-26.066
			C415.722,187.641,419.884,177.797,422.976,170.511z"/>
		<path fill-rule="evenodd" clip-rule="evenodd" fill="#FFFFFF" d="M484.504,177.812c7.619,7.38,19.893,15.477,17.722,29.196
			C492.669,200.922,490.623,187.329,484.504,177.812z"/>
		<path fill-rule="evenodd" clip-rule="evenodd" fill="#FFFFFF" d="M391.699,183.02c-0.535,5.415-4.265,12.011-7.297,18.774
			c-2.674,5.964-4.543,15.399-11.471,16.685C373.306,200.771,383.569,192.967,391.699,183.02z"/>
		<path fill-rule="evenodd" clip-rule="evenodd" fill="#FFFFFF" d="M632.556,183.02c-2.142,14.971-27.683,7.189-35.452,11.471
			c-1.335-2.986,4.187-3.5,6.26-4.167C612.015,187.548,623.958,185.426,632.556,183.02z"/>
		<path fill-rule="evenodd" clip-rule="evenodd" fill="#FFFFFF" d="M549.147,196.58c1.544,0.886,2.24,2.624,2.084,5.214
			c2.61,0.175,3.263-1.602,4.168-3.13c2.322,0.438,0.818,5.533,0,6.255c3.934,0.801,4.99-1.271,8.345-1.042
			c-1.052,2.78-4.207,3.437-6.256,5.215c1.299,2.18,3.033,3.917,5.214,5.213c-1.393,2.965-4.636-0.803-6.256-1.044
			c-2.342,0.441-0.024,5.533-2.089,6.256c-1.218-1.565-3.008-2.548-3.126-5.212c-2.609-0.175-3.271,1.602-4.177,3.126
			c-3.047-0.884,0.628-3.355,0-5.214c-3.286-0.507-3.681,1.879-7.294,1.043c1.559-2.616,4.685-3.658,7.294-5.214
			c-1.554-1.565-1.859-4.391-4.168-5.211c0.887-2.456,4.577,0.866,6.261,1.042C549.431,199.554,547.775,199.817,549.147,196.58z"/>
		<path fill-rule="evenodd" clip-rule="evenodd" fill="#FFFFFF" d="M442.79,199.708c5.151,4.735,7.459,21.735,3.127,29.194
			C437.993,224.077,444.962,212.597,442.79,199.708z"/>
		<path fill-rule="evenodd" clip-rule="evenodd" fill="#FFFFFF" d="M637.774,209.092c-16.427,0.187-21.889-1.495-40.671-1.045
			c9.979-4.272,24.809-3.697,36.494-6.253C634.726,204.493,637.375,205.669,637.774,209.092z"/>
		<path fill-rule="evenodd" clip-rule="evenodd" fill="#FFFFFF" d="M502.226,214.306c-3.724,3.574-10.059,4.538-15.639,6.256
			C486.987,213.658,496.374,215.751,502.226,214.306z"/>
		<path fill-rule="evenodd" clip-rule="evenodd" fill="#FFFFFF" d="M542.887,216.39c-3.266,9.245-7.618,17.403-10.423,27.108
			c-2.614-5.069,0.56-13.316,1.042-18.766c-5.312-3.191-11.855,1.326-18.77,0C523.291,221.122,532.604,218.264,542.887,216.39z"/>
		<path fill-rule="evenodd" clip-rule="evenodd" fill="#FFFFFF" d="M549.147,217.432c5.541,8.705,8.355,20.151,11.47,31.28
			c-2.667-2.201-4.615-5.117-6.26-8.34c-2.365,0.76-3.115,3.135-4.167,5.214c-2.504-3.651-1.616-5.1-2.085-11.47
			c-3.203-0.049-8.266,7.005-11.47,10.426C537.162,236.024,546.276,227.081,549.147,217.432z"/>
		<path fill-rule="evenodd" clip-rule="evenodd" fill="#FFFFFF" d="M558.524,217.432c8.248,3.23,13.954,8.992,21.898,12.517
			c-1.995,2.926-5.433-1.436-8.339-1.046c-1.894,2.308,2.965,6.723,3.131,10.428c-3.535-1.329-6.622-3.116-9.387-5.214
			c-3.302,1.911-0.906,9.522-3.126,12.512C560.633,237.578,559.314,227.772,558.524,217.432z"/>
		<path fill-rule="evenodd" clip-rule="evenodd" fill="#FFFFFF" d="M591.894,217.432c8.521,1.305,26.69,0.209,39.625,3.13
			c-0.511,3.291,1.874,3.681,1.037,7.298c-10.429-1.397-21.689-5.005-31.275-7.298C598.052,219.788,593.154,221.531,591.894,217.432
			z"/>
		<path fill-rule="evenodd" clip-rule="evenodd" fill="#FFFFFF" d="M500.142,227.86c3.978,2.7-4.266,4.445-7.303,6.256
			c-4.08,2.434-8.102,5.71-11.465,6.256c-0.425-2.008-4.047-0.823-3.131-4.172C485.866,233.741,493.315,231.117,500.142,227.86z"/>
		<path fill-rule="evenodd" clip-rule="evenodd" fill="#FFFFFF" d="M596.065,229.948c8.604,2.868,18.126,4.811,26.071,8.34
			c-2.921,7.799-9.064,2.249-13.559,0C603.962,235.976,597.97,233.156,596.065,229.948z"/>
		<path fill-rule="evenodd" clip-rule="evenodd" fill="#FFFFFF" d="M581.465,239.33c8.676,1.417,16.978,12.215,26.072,16.682
			c-0.229,3.357,1.844,4.411,1.041,8.342C598.058,257.495,591.168,247.008,581.465,239.33z"/>
		<path fill-rule="evenodd" clip-rule="evenodd" fill="#FFFFFF" d="M568.963,243.498c6.559,8.383,11.616,18.271,16.68,28.154
			C573.423,268.926,574.679,252.724,568.963,243.498z"/>
		<path fill-rule="evenodd" clip-rule="evenodd" fill="#FFFFFF" d="M515.78,248.712c1.731,4.542-4.908,9.671-6.258,14.601
			C504.026,258.448,513.891,252.933,515.78,248.712z"/>
		<path fill-rule="evenodd" clip-rule="evenodd" fill="#FFFFFF" d="M546.018,248.712c1.559,5.146,0.077,13.3-1.042,20.856
			C536.782,266.092,545.156,255.552,546.018,248.712z"/>
		<path fill-rule="evenodd" clip-rule="evenodd" fill="#FFFFFF" d="M529.333,254.967c-0.886,4.689-0.657,19.489-9.386,19.811
			C521.948,267.044,526.052,261.423,529.333,254.967z"/>
		<path fill-rule="evenodd" clip-rule="evenodd" fill="#FFFFFF" d="M479.284,56.863c3.379,10.745-8.145,17.495-14.596,25.024
			c-6.689,7.794-12.034,17.448-17.727,25.021c-1.183-0.2-0.579-1.044,0-1.044c3.073-8.881,8.301-20.098,13.556-29.197
			C464.912,69.054,470.327,59.034,479.284,56.863z"/>
		<path fill-rule="evenodd" clip-rule="evenodd" fill="#FFFFFF" d="M556.446,135.061c4.153,2.75-0.268,14.089-1.047,18.768
			C554.522,149.589,554.279,144.788,556.446,135.061z"/>
		<path fill-rule="evenodd" clip-rule="evenodd" fill="#FFFFFF" d="M608.578,140.275c-7.395,9.985-14.98,19.775-23.981,28.149
			c0.642-1.616,5.642-9.56,9.381-15.638C597.396,147.237,600.667,136.439,608.578,140.275z"/>
		<path fill-rule="evenodd" clip-rule="evenodd" fill="#FFFFFF" d="M524.124,181.979c2.619-1.193,8.899,2.887,12.512,4.172
			c-0.01-4.51-2.425-6.617-2.088-11.468c4.396,0.473,4.8,4.93,8.339,6.254c0.298-4.221,1.792-7.247,2.089-11.471
			c2.459,9.905,0.073,25.258,2.079,30.241C537.97,195.241,532.356,187.305,524.124,181.979z"/>
		<path fill-rule="evenodd" clip-rule="evenodd" fill="#FFFFFF" d="M622.137,172.597c-6.528,5.637-16.037,8.294-22.939,13.554
			C602.36,182.057,613.339,167.846,622.137,172.597z"/>
		<path fill-rule="evenodd" clip-rule="evenodd" fill="#FFFFFF" d="M524.124,210.133c-3.185-2.035-7.161-3.267-10.428-5.214
			c3.515-2.385,9.683-2.128,13.553-4.172c-1.247-6.397-5.307-9.981-6.256-16.68c7.025,7.22,12.779,15.715,19.81,22.94
			c-7.322,6.227-18.086,9.021-26.066,14.596C514.271,218.323,521.952,214.243,524.124,210.133z"/>
		<path fill-rule="evenodd" clip-rule="evenodd" fill="#FFFFFF" d="M562.702,208.047c8.768-3.396,17.264-7.062,26.066-10.426
			c-1.831,3.383-5.215,5.214-8.346,7.297c1.909,3.306,5.746,4.679,9.387,6.257c-2.021,3.191-7.624,2.804-12.512,3.13
			c0.886,5.365,3.067,9.44,5.209,13.554C576.685,224.637,567.658,215.611,562.702,208.047z"/>
		<path fill-rule="evenodd" clip-rule="evenodd" fill="#FFFFFF" d="M519.947,233.074c0.175,4.207-5.682,8.243-9.378,12.512
			c-3.621,4.172-6.776,11.242-11.471,10.426C500.063,242.381,514.125,241.842,519.947,233.074z"/>
	</g>
	
</g>
</svg>
