<?xml version="1.0" encoding="utf-8"?>
<!-- Generator: Adobe Illustrator 16.0.4, SVG Export Plug-In . SVG Version: 6.00 Build 0)  -->
<!DOCTYPE svg PUBLIC "-//W3C//DTD SVG 1.1//EN" "http://www.w3.org/Graphics/SVG/1.1/DTD/svg11.dtd">
<svg version="1.1" xmlns="http://www.w3.org/2000/svg" xmlns:xlink="http://www.w3.org/1999/xlink" x="0px" y="0px" width="640px"
	 height="900px" viewBox="0 0 640 900" enable-background="new 0 0 640 900" xml:space="preserve">
<g id="Frustrated">
	<g>
		<path d="M400.56,318.976c-5.626,44.588-46.332,76.182-90.938,70.556c-44.598-5.63-76.187-46.335-70.57-90.929
			c5.634-44.598,46.34-76.187,90.938-70.565C374.597,233.667,406.181,274.374,400.56,318.976z"/>
		<g>
			<path d="M423.231,837.846c0.056,0.033,0.098,0.065,0.151,0.098C429.138,841.407,426.108,839.576,423.231,837.846z"/>
			<path d="M423.383,837.943c-5.539-3.346-2.914-1.767-0.151-0.098c-60.594-36.748-8.607-93.389-26.431-149.419
				c-9.3-29.245-31.271-63.823-13.302-87.321c30.12-39.378-0.483-112.029-15.345-151.749c24.293,9.071,58.619,30.739,84.592,30.739
				c24.565,0,6.11-91.467,5.011-104.663c-0.388-4.659,0.3-16.541-0.192-26.698c1.099-20.934,3.54-64.816,4.658-69.282
				c1.455-5.869,3.788-23.453-20.117-23.453h-12.462c0,0-18.05-19.271-20.091-4.413c-2.039,14.857-20.523,40.192-7.017,45.193
				l4.581,13.148c0,0,7.201,18.496,16.148,22.597l5.885,26.338c0,0,0.63,3.38,2.434,6.62c2.307,27.738,4.617,55.465,6.926,83.205
				c-18.723-6.991-37.443-13.986-56.161-20.982c-10.944-4.084-51.502-27.881-59.522-25.846
				c-15.614,3.956-32.525,16.471-50.817,20.905c-24.292,5.892-48.582,11.786-72.874,17.676c1.884-26.31,3.773-52.62,5.658-78.93
				c2.24-3.167,3.222-6.758,3.222-6.758l8.09-25.798c9.258-3.336,18-21.269,18-21.269l5.689-12.936
				c13.881-3.846-2.368-31.078-3.148-46.053c-0.78-14.975-20.318,1.839-20.318,1.839l-12.416-1.055
				c-23.745-2.91-23.052,16.573-22.094,22.541c0.611,3.76,0.571,32.383,0.457,53.043c-3.884,12.233-1.282,41.741-1.897,50.366
				c-0.753,10.494-16.414,97.541,8.715,91.482c20.569,7.623,80.426-19.512,102.779-24.932
				c-14.606,29.814-26.063,62.672-29.003,95.908c-2.075,23.514,22.246,60.038,17.427,74.403
				c-11.426,34.048-30.892,70.337-28.92,106.708c1.375,25.341,2.747,50.68,4.12,76.022c0.78,14.396-24.78,14.281-36.288,17.183
				c-17.316,4.362-59.683,9.154-60.569,33.451c-1.359,37.329,71.347,12.115,85.104,6.088c54.281-23.792,35.704-46.393,32.954-97.24
				c-2.61-48.188,5.899-75.626,21.478-122.062c5.658-16.86,46.438-24.799,50.89-10.806c7.055,22.181,14.104,44.361,21.158,66.541
				c10.262,32.265-0.675,77.214-2.238,110.892l-0.732-0.387c-10.566,43.165,5.289,79.669,52.702,95.4
				C484.637,915.55,458.271,858.951,423.383,837.943z"/>
		</g>
	</g>
	<path opacity="0.8" fill-rule="evenodd" clip-rule="evenodd" fill="#FFFFFF" d="M321.474,4.167
		c-11.549,29.085-24.371,56.897-31.46,90.447c10.426,4.62,23.594,0,23.594,0s-23.979,36.318-31.46,58.988
		c6.913,2.262,23.596,3.933,23.596,3.933l-23.596,51.123c0,0,42.575-49.184,62.921-74.718c-11.505-1.162-27.528,0-27.528,0
		s41.409-45.104,58.988-70.785c-9.363,2.657-39.325,3.933-39.325,3.933s32.207-43.823,47.189-66.853
		C359.385-2.488,347.451,4.427,321.474,4.167z"/>
</g>
</svg>
