<?xml version="1.0" encoding="utf-8"?>
<!-- Generator: Adobe Illustrator 16.0.4, SVG Export Plug-In . SVG Version: 6.00 Build 0)  -->
<!DOCTYPE svg PUBLIC "-//W3C//DTD SVG 1.1//EN" "http://www.w3.org/Graphics/SVG/1.1/DTD/svg11.dtd">
<svg version="1.1" id="Layer_1" xmlns="http://www.w3.org/2000/svg" xmlns:xlink="http://www.w3.org/1999/xlink" x="0px" y="0px"
	 width="792px" height="612px" viewBox="0 0 792 612" enable-background="new 0 0 792 612" xml:space="preserve">
<g>
	<path fill="#FFFFFF" d="M351.965,309.785c0.045,1.742,0.335,2.324,0.782,2.48c0.381,0.135,0.806,0.154,1.163,0.154
		c0.245,0,0.379,0.047,0.379,0.182c0,0.18-0.2,0.223-0.513,0.223c-1.456,0-2.349-0.066-2.773-0.066
		c-0.202,0-1.252,0.066-2.414,0.066c-0.292,0-0.494-0.021-0.494-0.223c0-0.135,0.135-0.182,0.358-0.182
		c0.291,0,0.693-0.02,1.007-0.107c0.581-0.18,0.67-0.83,0.691-2.773l0.202-13.238c0-0.445,0.067-0.762,0.292-0.762
		c0.246,0,0.446,0.291,0.826,0.695c0.269,0.291,3.667,3.936,6.933,7.176c1.52,1.521,4.54,4.742,4.917,5.1h0.113l-0.224-10.037
		c-0.023-1.367-0.223-1.791-0.76-2.014c-0.335-0.135-0.873-0.135-1.185-0.135c-0.269,0-0.357-0.068-0.357-0.203
		c0-0.178,0.245-0.197,0.581-0.197c1.163,0,2.235,0.064,2.705,0.064c0.246,0,1.096-0.064,2.192-0.064c0.29,0,0.514,0.02,0.514,0.197
		c0,0.135-0.134,0.203-0.403,0.203c-0.223,0-0.402,0-0.67,0.066c-0.626,0.18-0.804,0.648-0.828,1.898l-0.245,14.111
		c0,0.492-0.09,0.693-0.291,0.693c-0.246,0-0.515-0.246-0.76-0.492c-1.409-1.344-4.271-4.27-6.595-6.574
		c-2.439-2.418-4.92-5.209-5.322-5.635h-0.069L351.965,309.785z"/>
	<path fill="#FFFFFF" d="M371.152,304.371c0-3.822,2.525-8.762,9.234-8.762c5.565,0,9.032,3.24,9.032,8.363
		c0,5.119-3.578,9.164-9.256,9.164C373.745,313.137,371.152,308.332,371.152,304.371z M386.29,304.797
		c0-5.01-2.885-8.115-6.552-8.115c-2.572,0-5.501,1.43-5.501,7c0,4.65,2.569,8.336,6.865,8.336
		C382.667,312.018,386.29,311.258,386.29,304.797z"/>
	<path fill="#FFFFFF" d="M394.139,298.111c-0.512-1.229-0.891-1.475-1.697-1.699c-0.336-0.088-0.693-0.088-0.873-0.088
		c-0.199,0-0.266-0.068-0.266-0.203c0-0.178,0.244-0.197,0.58-0.197c1.186,0,2.459,0.064,3.242,0.064
		c0.559,0,1.633-0.064,2.75-0.064c0.27,0,0.514,0.043,0.514,0.197c0,0.158-0.133,0.203-0.334,0.203
		c-0.357,0-0.693,0.021-0.873,0.156c-0.156,0.111-0.223,0.268-0.223,0.469c0,0.289,0.199,0.916,0.514,1.723l3.846,10.152h0.09
		c0.961-2.461,3.867-9.66,4.404-11.137c0.111-0.291,0.201-0.627,0.201-0.828c0-0.178-0.09-0.357-0.291-0.424
		c-0.268-0.09-0.604-0.111-0.895-0.111c-0.199,0-0.379-0.023-0.379-0.18c0-0.178,0.201-0.221,0.625-0.221
		c1.117,0,2.059,0.064,2.348,0.064c0.381,0,1.432-0.064,2.102-0.064c0.293,0,0.471,0.043,0.471,0.197
		c0,0.158-0.137,0.203-0.359,0.203s-0.691,0-1.098,0.268c-0.289,0.201-0.623,0.582-1.229,2.012c-0.869,2.102-1.475,3.311-2.68,6.061
		c-1.434,3.266-2.482,5.701-2.975,6.818c-0.58,1.299-0.715,1.654-1.029,1.654c-0.289,0-0.424-0.312-0.85-1.363L394.139,298.111z"/>
	<path fill="#FFFFFF" d="M414.828,306.988c-0.111,0-0.154,0.047-0.197,0.18l-1.211,3.197c-0.223,0.557-0.336,1.096-0.336,1.365
		c0,0.402,0.201,0.689,0.895,0.689h0.336c0.266,0,0.336,0.047,0.336,0.182c0,0.18-0.135,0.223-0.379,0.223
		c-0.717,0-1.678-0.066-2.373-0.066c-0.244,0-1.475,0.066-2.637,0.066c-0.291,0-0.426-0.043-0.426-0.223
		c0-0.135,0.09-0.182,0.268-0.182c0.203,0,0.514-0.02,0.693-0.041c1.029-0.137,1.457-0.896,1.902-2.014l5.613-14.041
		c0.27-0.65,0.402-0.896,0.623-0.896c0.203,0,0.334,0.203,0.561,0.717c0.537,1.23,4.115,10.354,5.543,13.752
		c0.852,2.01,1.5,2.324,1.973,2.436c0.334,0.068,0.668,0.088,0.936,0.088c0.18,0,0.293,0.025,0.293,0.182
		c0,0.18-0.203,0.223-1.029,0.223c-0.807,0-2.439,0-4.227-0.043c-0.4-0.023-0.67-0.023-0.67-0.18c0-0.135,0.09-0.182,0.312-0.201
		c0.156-0.045,0.314-0.246,0.201-0.514l-1.791-4.74c-0.043-0.111-0.107-0.158-0.219-0.158H414.828z M419.391,305.869
		c0.113,0,0.135-0.066,0.113-0.131l-2.016-5.523c-0.021-0.09-0.041-0.203-0.111-0.203c-0.064,0-0.109,0.113-0.135,0.203l-2.053,5.5
		c-0.023,0.088,0,0.154,0.086,0.154H419.391z"/>
	<path fill="#FFFFFF" d="M432.512,302.404c0-3.398,0-4.023-0.051-4.738c-0.045-0.76-0.221-1.121-0.959-1.275
		c-0.178-0.045-0.559-0.066-0.871-0.066c-0.246,0-0.383-0.045-0.383-0.203c0-0.154,0.162-0.197,0.494-0.197
		c1.186,0,2.592,0.064,3.064,0.064c0.76,0,2.455-0.064,3.152-0.064c1.406,0,2.906,0.133,4.113,0.959
		c0.627,0.424,1.52,1.564,1.52,3.064c0,1.654-0.691,3.174-2.951,5.006c1.99,2.508,3.533,4.496,4.852,5.881
		c1.254,1.299,2.17,1.455,2.506,1.521c0.246,0.045,0.445,0.064,0.627,0.064c0.176,0,0.266,0.07,0.266,0.182
		c0,0.18-0.156,0.223-0.424,0.223h-2.123c-1.252,0-1.811-0.111-2.395-0.424c-0.961-0.514-1.809-1.566-3.062-3.287
		c-0.896-1.23-1.92-2.75-2.213-3.086c-0.113-0.135-0.244-0.158-0.404-0.158l-1.943-0.043c-0.111,0-0.176,0.043-0.176,0.178v0.314
		c0,2.078,0,3.844,0.107,4.787c0.068,0.646,0.203,1.137,0.871,1.227c0.34,0.047,0.83,0.088,1.096,0.088c0.18,0,0.27,0.07,0.27,0.182
		c0,0.156-0.154,0.223-0.447,0.223c-1.297,0-2.951-0.066-3.289-0.066c-0.424,0-1.83,0.066-2.725,0.066
		c-0.291,0-0.449-0.066-0.449-0.223c0-0.111,0.09-0.182,0.359-0.182c0.336,0,0.604-0.041,0.807-0.088
		c0.445-0.09,0.557-0.58,0.648-1.227c0.113-0.943,0.113-2.709,0.113-4.766V302.404z M435.15,304.172
		c0,0.244,0.043,0.334,0.197,0.402c0.471,0.156,1.143,0.223,1.699,0.223c0.893,0,1.186-0.09,1.59-0.381
		c0.67-0.49,1.316-1.52,1.316-3.354c0-3.176-2.1-4.09-3.42-4.09c-0.559,0-0.961,0.02-1.186,0.088
		c-0.154,0.045-0.197,0.135-0.197,0.314V304.172z"/>
	<path fill="#FFFFFF" d="M455.055,297.174l-3.334,0.088c-1.299,0.045-1.832,0.158-2.168,0.648c-0.225,0.336-0.334,0.604-0.381,0.783
		c-0.045,0.178-0.113,0.268-0.246,0.268c-0.156,0-0.201-0.111-0.201-0.357c0-0.357,0.426-2.391,0.471-2.57
		c0.066-0.291,0.133-0.424,0.268-0.424c0.178,0,0.402,0.221,0.959,0.268c0.65,0.066,1.502,0.111,2.24,0.111h8.85
		c1.436,0,1.971-0.223,2.15-0.223c0.156,0,0.18,0.133,0.18,0.469c0,0.471-0.066,2.012-0.066,2.594
		c-0.021,0.225-0.07,0.355-0.201,0.355c-0.182,0-0.223-0.109-0.25-0.445l-0.02-0.246c-0.047-0.582-0.65-1.207-2.641-1.254
		l-2.816-0.064v9.166c0,2.057,0,3.822,0.113,4.785c0.068,0.627,0.201,1.117,0.869,1.207c0.314,0.047,0.805,0.088,1.143,0.088
		c0.244,0,0.357,0.07,0.357,0.182c0,0.156-0.18,0.223-0.426,0.223c-1.477,0-2.883-0.066-3.51-0.066
		c-0.512,0-1.922,0.066-2.818,0.066c-0.289,0-0.447-0.066-0.447-0.223c0-0.111,0.09-0.182,0.359-0.182
		c0.338,0,0.605-0.041,0.805-0.088c0.447-0.09,0.582-0.58,0.65-1.227c0.111-0.943,0.111-2.709,0.111-4.766V297.174z"/>
	<path fill="#FFFFFF" d="M471.219,302.404c0-3.398,0-4.023-0.045-4.738c-0.047-0.76-0.268-1.141-0.76-1.254
		c-0.246-0.066-0.539-0.088-0.807-0.088c-0.225,0-0.355-0.045-0.355-0.223c0-0.135,0.178-0.178,0.535-0.178
		c0.85,0,2.256,0.064,2.908,0.064c0.559,0,1.877-0.064,2.729-0.064c0.289,0,0.469,0.043,0.469,0.178
		c0,0.178-0.135,0.223-0.361,0.223c-0.221,0-0.4,0.021-0.668,0.066c-0.605,0.111-0.781,0.492-0.828,1.275
		c-0.045,0.715-0.045,1.34-0.045,4.738v3.936c0,2.17,0,3.934,0.092,4.896c0.068,0.605,0.223,1.006,0.893,1.096
		c0.312,0.047,0.803,0.088,1.141,0.088c0.246,0,0.355,0.07,0.355,0.182c0,0.156-0.176,0.223-0.422,0.223
		c-1.477,0-2.885-0.066-3.488-0.066c-0.518,0-1.924,0.066-2.816,0.066c-0.293,0-0.447-0.066-0.447-0.223
		c0-0.111,0.086-0.182,0.355-0.182c0.336,0,0.605-0.041,0.805-0.088c0.449-0.09,0.584-0.469,0.65-1.115
		c0.111-0.943,0.111-2.707,0.111-4.877V302.404z"/>
	<path fill="#FFFFFF" d="M482.84,312.555c-0.355-0.154-0.422-0.266-0.422-0.758c0-1.229,0.09-2.572,0.113-2.932
		c0.02-0.334,0.086-0.58,0.266-0.58c0.199,0,0.223,0.203,0.223,0.379c0,0.293,0.088,0.762,0.201,1.143
		c0.492,1.654,1.811,2.258,3.199,2.258c2.012,0,2.994-1.363,2.994-2.549c0-1.098-0.336-2.148-2.189-3.576l-1.029-0.807
		c-2.461-1.924-3.309-3.486-3.309-5.299c0-2.459,2.057-4.225,5.164-4.225c1.451,0,2.391,0.221,2.971,0.379
		c0.205,0.045,0.316,0.113,0.316,0.268c0,0.289-0.09,0.939-0.09,2.684c0,0.492-0.066,0.672-0.248,0.672
		c-0.154,0-0.221-0.137-0.221-0.404c0-0.201-0.113-0.895-0.58-1.475c-0.336-0.426-0.986-1.096-2.441-1.096
		c-1.654,0-2.658,0.961-2.658,2.303c0,1.027,0.512,1.811,2.371,3.221l0.621,0.469c2.688,2.078,3.672,3.576,3.672,5.703
		c0,1.293-0.492,2.838-2.105,3.889c-1.117,0.719-2.363,0.916-3.555,0.916C484.809,313.137,483.805,312.98,482.84,312.555z"/>
	<g>
		<path fill="#FFFFFF" d="M317.68,314.307c-12.405-0.949-16.177-8.086-12.021-16.113c2.238-4.326,5.658-8.98,1.583-13.279
			c-0.111-0.141-0.019-0.232,0.151-0.154c9.281,3.699,4.452,11.168,2.868,14.264c-3.124,6.098-1.132,13.508,7.419,15.1
			C317.868,314.164,317.854,314.322,317.68,314.307z"/>
		<path fill="#FFFFFF" d="M319.337,307.504l2.097-25.936l-4.919-0.006l2.648,25.941C319.176,307.67,319.323,307.664,319.337,307.504
			z"/>
		<path fill="#FFFFFF" d="M324.953,294.447c3.064,2.41,8.061,15.811-4.136,19.672c-0.198,0.051-0.182,0.199,0.001,0.184
			c19.402-2.43,12.735-16.348,4.299-20.02C324.891,294.176,324.784,294.316,324.953,294.447z"/>
	</g>
</g>
</svg>
