<?xml version="1.0" encoding="utf-8"?>
<!-- Generator: Adobe Illustrator 16.0.4, SVG Export Plug-In . SVG Version: 6.00 Build 0)  -->
<!DOCTYPE svg PUBLIC "-//W3C//DTD SVG 1.1//EN" "http://www.w3.org/Graphics/SVG/1.1/DTD/svg11.dtd">
<svg version="1.1" xmlns="http://www.w3.org/2000/svg" xmlns:xlink="http://www.w3.org/1999/xlink" x="0px" y="0px" width="640px"
	 height="900px" viewBox="0 0 640 900" enable-background="new 0 0 640 900" xml:space="preserve">
<g id="Optimistic">
	<g>
    <path d="M455.694,395.54c46.687,5.892,89.297-27.179,95.174-73.847c5.89-46.673-27.164-89.294-73.848-95.173
			c-46.682-5.895-89.284,27.175-95.176,73.857C375.954,347.046,409.028,389.651,455.694,395.54z"/>
		<path d="M435.842,420.495c-10.273-11.028-24.999-31.208-42.416-22.085c-9.902-5.778-19.229-44.307-23.79-54.819
			c-14.608-33.653-11.744-63.593-12.041-100.523c-0.173-21.239,3.029-37.616,20.052-50.243c13.841-10.254,9.298-22.314-6.068-24.625
			c1.522-16.576,0.369-30.049-18.455-34.595c-9.056,8.946-10.354,3.037-20.142,3.848c-9.496,0.783-15.679,10.7-24.671,13.376
			c-16.35,4.855-12.799,20.588-7.082,31.411c11.596,21.936,32.193,46.497,32.389,71.988c0.335,41.25,0.278,67.174,16.445,104.481
			c7.994,18.438,15.981,36.887,23.976,55.326c2.642,6.09-35.521,56.158-40.126,65.451c-12.634,25.481-23.892,54.637-22.352,83.586
			c0.654,12.225,4.085,24.388,11.584,34.229c3.771,4.959,26.787,17.951,27.021,20.653c3.596,41.998,7.188,84,10.792,125.999
			c0.671,7.916,6.218,27.801,0.905,34.115c-8.335,9.901-14.143,21.733-24.875,29.537c-12.119,8.812-45.352,13.196-50.785,29.28
			c-13.146,38.999,49.542,20.175,64.743,12.076c17.919-9.552,48.41-41.818,45.493-65.806c-0.878-7.242-8.025-5.727-8.663-13.259
			c-0.672-7.8-1.345-15.595-2.007-23.388c-2.226-25.986-4.456-51.966-6.681-77.952c-1.285-15.003-2.569-30.001-3.845-45.005
			c15.909,2.821,22.345-4.156,25.174,11.532c2.563,14.255,5.126,28.509,7.701,42.767c6.239,34.651,12.486,69.304,18.72,103.951
			c5.618,31.119-17.379,53.528-41.381,72.221c-10.662,8.293-37.231,35.657-8.285,41.264c28.495,5.522,62.924-22.657,71.616-48.465
			c17.701-52.522-6.61-118.144-16.429-172.628c-2.615-14.511-5.232-29.03-7.845-43.547c-2.712-15.057-1.557-10.114,8.822-22.274
			c31.017-36.355,15.571-105.282,8.091-146.94C466.358,396.222,435.842,420.495,435.842,420.495z"/>
		<path fill-rule="evenodd" clip-rule="evenodd" d="M630.003,248.361c-4.481-26.301-0.079-12.589-8.881-31.367
			c-8.464-18.132-22.887-15.025-28.016-33.456c-20.73-6.015-28.921,6.357-36.487,22.945c-20.708-8.024-28.88,11.68-14.434,27.397
			c4.167,24.726-0.617,41.912-14.166,60.947c-35.646,50.077-81.067,135.572-95.668,123.124
			c-16.348-13.953-3.709,60.247,9.363,41.883c16.153-22.704,32.311-45.4,48.477-68.11c19.019-26.707,38.022-53.416,57.04-80.128
			C568.366,281.899,603.901,272.602,630.003,248.361C629.062,242.884,619.574,258.052,630.003,248.361z"/>
		<g>
			<path fill="#FFFFFF" d="M177.099,98.841c3.208,0,14.901,2.39,14.901-2.275c0-24.906,0-45.808,0-70.708
				c-16-9.792-16,5.353-16,16.312c0,20.465,0,33.927,0,54.395C176,98.155,174.452,99.612,177.099,98.841z"/>
			<path fill="#FFFFFF" d="M176.551,98.841C173.888,99.612,177.828,98.841,176.551,98.841L176.551,98.841z"/>
			<path fill="#FFFFFF" d="M126.067,79.622C124.522,79.229,126.067,79.88,126.067,79.622L126.067,79.622z"/>
			<path fill="#FFFFFF" d="M126.067,79.622c0,9.767,11.334,19.981,13.522,29.265c4.682,0.152,14.126-5.423,17.702-7.702
				c-0.082-2.9-13.595-35.223-16.176-34.661c-0.005-1.125-15.799,5.831-16.768,7.704C122.667,75.221,124.522,79.229,126.067,79.622z
				"/>
			<path fill="#FFFFFF" d="M61.185,78.852C60.541,78.991,61.625,79.957,61.185,78.852L61.185,78.852z"/>
			<path fill="#FFFFFF" d="M61.185,78.852c1.853,0.583,4.189,1.61,4.002,3.081C65.958,82.118,69,83.202,69,83.473
				c0,0.255,0,0.513,0,0.766c0,0.303,1.582,1.687,1.582,3.085c3.915,0.937,26.972,24.09,26.972,27.724
				c2.352,0.568,11.944,9.717,11.944,12.324c1.535,0.431,1.27,2.962,4.257,2.292c1.303-4.306,3.453-6.362,6.659-6.18
				c1.18-2.082,2.683-3.869,4.573-5.365c2.938-0.805-20.283-25.257-23.132-26.947c-0.457-4.984-25.359-28.771-30.045-29.268
				c-4.254,4.127-15.2,9.135-11.461,16.175C60.392,78.552,60.541,78.991,61.185,78.852z"/>
			<path fill="#FFFFFF" d="M220.451,105.788c0.088,0.004,0.132,0.008,0.152,0.015c3.274,0.208,4.682,2.481,8.316,2.298
				c3.773-10.792,11.903-25.9,11.903-36.951c-6.319,0.708-12.342-5.428-18.837-5.428c-3.413,10.023-12.386,25.432-12.317,36.233
				C209.979,102.114,218.557,105.957,220.451,105.788z"/>
			<path fill="#FFFFFF" d="M220.603,105.803c-0.053,0-0.104-0.011-0.152-0.015C218.387,105.974,220.904,105.857,220.603,105.803z"/>
			<path fill="#FFFFFF" d="M245.863,121.976C244.543,122.011,246.822,123.592,245.863,121.976L245.863,121.976z"/>
			<path fill="#FFFFFF" d="M245.863,121.976c0.392,0.667,6.503,6.417,6.503,6.936c1.543,1.04,2.38,3.093,5.991,2.313
				c8.776-9.931,18.873-18.573,27.641-28.5c9.217-3.58,14.223-20.524,23.798-23.104c0.157-4.163-8.854-15.745-13.105-15.41
				c-9.109,4.646-55.895,52.554-53.141,56.229C243.871,121.402,244.543,122.011,245.863,121.976z"/>
			<path fill="#FFFFFF" d="M61.793,152.019C56.152,149.96,62.444,153.164,61.793,152.019L61.793,152.019z"/>
			<path fill="#FFFFFF" d="M95.849,162.8c2.498-0.471,7.787-17.798,4.447-18.52c-5.709,0-31.291-15.863-35.42-9.987
				c-0.934,3.986-8.953,15.581-3.083,17.725C64.354,156.508,91.298,164.411,95.849,162.8z"/>
			<path fill="#FFFFFF" d="M291.304,155.063C290.603,156.602,291.559,155.063,291.304,155.063L291.304,155.063z"/>
			<path fill="#FFFFFF" d="M298.237,129.676c-11.011-0.68-23.009,16.918-33.882,15.392c1.394,3.702,3.584,16.041,8.003,18.167
				c1.919,0.918,17.646-5.308,18.946-8.171c4.905,0,9.344-6.159,13.864-6.159C310.173,148.904,300.561,131.165,298.237,129.676z"/>
			<path fill="#FFFFFF" d="M351.378,179.714c0.158,0.481,0.273,0.996,0.388,1.519C351.705,180.871,351.585,180.368,351.378,179.714z
				"/>
			<path fill="#FFFFFF" d="M351.766,181.232c0.376,2.625-2.638-1.519-0.388-1.519c-7.713,0-73.831-4.217-75.479,0.786
				c-0.182,0.397,0.888,0.978,0.68,1.663c0.065,0.046,1.421,0.07,1.421,0.106c0-0.045,0-0.08,0-0.131
				c0-0.029-1.258-0.053-1.258-0.079c0,0.024-0.635,0.05-0.635,0.079c0,0.01-0.321,0.021-0.308,0.031
				c0.272,0.262,0.091,0.292-0.18,0.1c-0.163,4.388-5.562,21.062,4.975,18.236c22.156,0,50.007,4.68,71.594-0.771
				C351.775,193.837,352.85,186.564,351.766,181.232z"/>
			<path fill="#FFFFFF" d="M91.825,199.753C91.009,201.499,93.51,199.637,91.825,199.753L91.825,199.753z"/>
			<path fill="#FFFFFF" d="M90.865,199.753c3.392-0.23,1.275-17.062,0.287-19.264c-6.8-7.273-77.151,3.353-77.151,1.57
				c0,5.899,0,11.803,0,17.713C31,199.318,87.375,207.179,90.865,199.753z"/>
			<path fill="#FFFFFF" d="M271.95,222.106C272.722,219.79,271.709,223.144,271.95,222.106c-0.734,3.119-7.182,12.039-4.646,14.63
				c11.907,0.511,23.084,12.293,35.094,12.293c1.345-1.86,9.65-16.378,7.274-18.457C309.357,228.328,278,218.031,278,218.255
				c0-0.256,0-0.512,0-0.771C270,216.744,272.722,219.79,271.95,222.106z"/>
			<path fill="#FFFFFF" d="M233.464,250.781c-0.226,0.192-0.461,0.398-0.694,0.59C233.092,251.103,233.313,250.912,233.464,250.781z
				"/>
			<path fill="#FFFFFF" d="M233.464,251.55c7.234-6.11,14.974-15.55,18.902-22.55c0,0,0.169,0,0.427,0
				c6.036-18,13.89-38.518,6.581-58.852c-6.283-17.476-15.433-33.566-31.207-44.46c-11.855-8.203-24.043-8.977-36.218-13.559
				c-3.095,0.734-37.524-2.354-37.738,5.289c-6.581,0-17.573,8.996-22.334,13.083c-13.854,12.021-35.032,45.899-26.873,63.899
				c-0.572,13.59,12.359,26.853,11.466,38.458c8.287,0,19.572,29.542,32.359,27.759c7.282,5.8,23.967,7.686,32.818,7.678
				c9.646,3.164,18.353-4.847,29.353-3.065c0-0.252,0-0.512,0-0.767c5-1.95,15.583-7.612,23.022-12.712
				C229.593,254.792,235.018,250.174,233.464,251.55z"/>
			<path fill="#FFFFFF" d="M109.713,249.829c-8.678,1.755-55.705,47.731-54.86,54.686c9.361,20.579,27.377,6.93,34.664-7.702
				c11.204-9.75,25.578-23.077,32.343-35.465c-0.413,0.769-0.253,0,0,0C117.521,261.348,113.821,251.42,109.713,249.829z"/>
			<path fill="#FFFFFF" d="M151.124,276.754C152.269,277.52,150.615,276.754,151.124,276.754c-3.661,0-7.851-4.346-11.546-3.826
				c-4.59-2.698-19.397,32.766-15.43,36.206c4.6,1.033,13.853,4.158,13.853,4.621c0,0.255,0,0.512,0,0.77
				c8,2.285,16.817-30.668,16.032-36.216C152.891,277.91,152.269,277.52,151.124,276.754z"/>
			<path fill="#FFFFFF" d="M243.551,301.433C244.21,301.292,243.446,300,243.551,301.433L243.551,301.433z"/>
			<path fill="#FFFFFF" d="M243.551,301.433c-0.262-3.602-13.611-30.254-14.609-30.037c-2.85,0.354-16.564,5.145-17.729,8.473
				c-0.688,11.299,14.975,21.999,14.975,33.116c2.926,3.869,14.921-5.261,18.913-6.159
				C245.631,304.485,245.116,302.688,243.551,301.433z"/>
			<path fill="#FFFFFF" d="M310.554,301.433C312.521,302.709,310.393,300.569,310.554,301.433L310.554,301.433z"/>
			<path fill="#FFFFFF" d="M287.189,277.562c-5.061-5.171-22.974-29.579-30.966-28.503c0,4.456-19.154,12.023-8.731,17.713
				c0.622,3.309,14.158,15.307,17.636,17.718c8.374,9.266,19.126,23.562,30.026,30.036c3.312,7.529,18.573-11.039,15.4-13.093
				C309.464,295.595,290.884,281.328,287.189,277.562z"/>
			<path fill="#FFFFFF" d="M175.631,281.909c-7.664,0-2.98,73.091-1.395,79.091c5.394,0,10.783,0,16.175,0
				c5.538,0,1.588-10.186,1.588-14.127c0,3.942,0-21.051,0,0c0-18.041,0-36.091,0-54.132
				C192,277.439,189.583,281.909,175.631,281.909z"/>
			<path fill="#FFFFFF" d="M92,240.588c0-0.245,10.193-5.241,10.358-5.391c4.365-2.185-5.591-14.958-6.054-16.941
				c-2.214-3.524-36.825,10.983-35.788,16.161c-0.133,4.631,5.304,12.426,7.566,16.181c1.856,0.286,13.352-4.246,13.503-5.385
				c3.709-0.659,2.415-3.197,10.415-3.853C92,241.103,92,240.844,92,240.588z"/>
			<path fill="#FFFFFF" d="M80.449,245.212C80.323,246.113,84.15,244.554,80.449,245.212L80.449,245.212z"/>
		</g>
	</g>
</g>
</svg>
