<?xml version="1.0" encoding="utf-8"?>
<!-- Generator: Adobe Illustrator 16.0.4, SVG Export Plug-In . SVG Version: 6.00 Build 0)  -->
<!DOCTYPE svg PUBLIC "-//W3C//DTD SVG 1.1//EN" "http://www.w3.org/Graphics/SVG/1.1/DTD/svg11.dtd">
<svg version="1.1" xmlns="http://www.w3.org/2000/svg" xmlns:xlink="http://www.w3.org/1999/xlink" x="0px" y="0px" width="640px"
	 height="900px" viewBox="0 0 640 900" enable-background="new 0 0 640 900" xml:space="preserve">
<g id="Passionate">
	<g>
		<g>
			<path fill-rule="evenodd" clip-rule="evenodd" d="M429.422,834h0.02C435.537,839,432.436,834,429.422,834z"/>
			<path fill-rule="evenodd" clip-rule="evenodd" d="M429.445,834.22c-6.026-2.256-3.027-1.131-0.02-0.003
				c-57.509-21.535-55.143-110.628-67.812-163.146c-8.481-35.159,14.637-35.837,19.984-67.625c3.169,4.129,9.599,3.944,16.641,4.92
				c5.437,0.759,7.714,3.704,10.63,3.51c4.58-0.297,8.96-3.546,12.938-4.066c3.396-7.046,7.934-27.778,13.12-45.306
				c13.193-22.098,37.015-59.364,15.285-71.273c-38.255-20.967-76.501-41.938-114.748-62.905
				c-48.188-26.417-129.253,46.354-172.628,70.474c-14.375,7.995,8.795,46.111,26.852,67.446
				c4.487,14.543,8.474,29.112,11.419,34.719c4.001,0.389,8.492,3.486,13.07,3.626c2.926,0.097,5.101-2.924,10.509-3.87
				c8.189-1.416,15.595-1.226,17.68-8.04c2.462,19.078,10.478,35.774,27.237,46.845c5.448,29.171-16.544,80.799-22.45,109.645
				c-10.241,50.021-2.21,66.158-50.447,81.221c-82.411,25.729-19.731,61.627,37.753,34.092c10.621-5.084,48.43-21.289,42.078-39.94
				c-8.177-23.987-20.042,2.094-13.734-28.716c9.272-45.302,18.556-90.603,27.825-135.908c4.239-20.691,21.184-6.783,40.758-8.859
				c5.642,4.168,8.179,33.913,9.734,40.359c9.275,38.433,18.541,76.867,27.815,115.3l-0.495-0.156
				c-10.397,43.249,25.954,76.536,67.773,82.254C501.229,897.7,467.474,848.441,429.445,834.22z M243.231,556.812
				c-4.44-3.744-8.496-7.707-9.676-13.058c-5.815-2.351-10.217-0.149-16.077-2.309c-5.262-1.948-6.814-7.186-11.362-7.966
				c-2.638-0.447-5.141-1.196-7.525-2.098c-4.338-5.825-8.677-11.654-13.017-17.479l88.863-49.424
				C263.373,486.92,248.267,522.516,243.231,556.812z M433.091,509.503c1.467,4.965-4.937,17.291-11.766,28.938
				c-2.158,0.866-4.43,1.604-6.809,2.092c-4.52,0.933-5.893,6.221-11.087,8.347c-5.787,2.356-10.256,0.306-15.986,2.852
				c-0.738,3.989-3.093,7.269-6.007,10.284c-3.94-33.366-15.634-67.973-28.377-96.383
				C366.888,473.207,429.089,495.967,433.091,509.503z"/>
		</g>
		<path fill="#FFFFFF" d="M268.976,428.665l87.295-1.483C356.271,427.182,310.701,396.952,268.976,428.665z"/>
    <path fill="#FFFFFF" d="M309.911,410.078c0,0-54.068,2.36-55.001,27.132l-39.732,90.095c0,0-77.443,187.961-79.102,213.017
			c0,0,22.931,28.808,41.906,26.401l10.254-25.197c0,0,72.898-5.412,100.316,12.891c27.429,18.305,100.909-12.147,120.108-18.727
			c19.197-6.58,44.787,26.461,44.787,26.461s33.217-9.016,34.986-27.816l-126.14-298.949
			C362.295,435.385,347.6,413.744,309.911,410.078z"/>
		<path d="M405.425,321.097c-5.131,47.12-47.491,81.167-94.631,76.033c-47.13-5.136-81.178-47.497-76.042-94.623
			c5.14-47.134,47.491-81.182,94.632-76.047C376.518,231.591,410.556,273.967,405.425,321.097z"/>
	</g>
</g>
</svg>
