<?xml version="1.0" encoding="utf-8"?>
<!-- Generator: Adobe Illustrator 16.0.4, SVG Export Plug-In . SVG Version: 6.00 Build 0)  -->
<!DOCTYPE svg PUBLIC "-//W3C//DTD SVG 1.1//EN" "http://www.w3.org/Graphics/SVG/1.1/DTD/svg11.dtd">
<svg version="1.1" xmlns="http://www.w3.org/2000/svg" xmlns:xlink="http://www.w3.org/1999/xlink" x="0px" y="0px" width="640px"
	 height="900px" viewBox="0 0 640 900" enable-background="new 0 0 640 900" xml:space="preserve">
<g id="Proud">
    <path d="M361.231,447.544c-3.332,3.159-5.021,5.317-5.796,6.812c-0.014,0.021-0.022,0.025-0.022,0.025
			c-5.36,5.73-1.824,10.108-1.824,10.108c-10.174,9.649-4.384,10.546-4.384,10.546c-0.004,0.001-0.171,0.341-4.354,8.575
			c-4.475,8.8,28.053,24.36,44.221,22.524c16.164-1.823,7.612-14.962,7.612-14.962c1.99-0.889,3.424-1.92,4.766-2.901
			c9.854-3.564,3.341-13.796,3.341-13.796c13.571-6.023,11.406-13.974-0.07-27.021c-11.495-13.046-35.516-15.347-40.882-9.617
			C358.477,443.562,361.231,447.544,361.231,447.544z"/>
    <path d="M147.9,430.696c0,0-11.305-10.425,1.113-20.883c12.441-10.463,44.073-9.735,43.372,2.546
			c-0.696,12.282-0.679,11.967-0.679,11.967s4.656-2.019-0.354,14.195c0,0,3.769,3.087,1.341,12.358
			c-2.438,9.261-22.427,19.142-35.981,10.343C143.158,452.421,138.958,444.559,147.9,430.696z"/>
    <path fill-rule="evenodd" clip-rule="evenodd" fill="#FFFFFF" d="M360.863,400.273c1.976,2.596,0.047,8.006-0.497,12.412
			c68.998,12.795,1.705,89.466-32.298,91.506c-12.704,21.56-31.553,34.539-58.978,35.558c0.119,28.589-4.339,54.936,6.44,74.478
			c7.079,12.848,26.538,19.35,20.577,36.199c-32.804,1.789-76.745-11.562-114.545-15.788c3.739-19.718,17.486-25.498,32.895-28.934
			c12.138-20.479,23.927-41.452,31.576-68.197c-26.39-10.151-41.837-28.12-47.457-53.139
			c-26.003-15.595-71.852-103.737-0.903-98.561c0.421-2.529,0.841-5.066,1.254-7.592c-0.022-2.534,1.868-2.384,2.275-4.323
			C254.418,382.683,307.632,391.477,360.863,400.273z M194.744,460.304c-1.608-18.511-1.529-38.23,2.192-60.552
			C155.742,389.858,176.451,452.694,194.744,460.304z M340.456,485.938c16.474-6.026,61.786-49.785,17.902-61.083
			C354.366,446.74,344.608,470.518,340.456,485.938z"/>
		<path d="M523.89,340.744c-15.343,45.634-64.773,70.182-110.411,54.84c-45.633-15.346-70.182-64.77-54.849-110.401
			c15.345-45.635,64.777-70.191,110.407-54.849C514.676,245.676,539.235,295.109,523.89,340.744z"/>
		<path d="M442.62,833.201c-61.26-26.273-28.274-67.131-44.029-120.423c-4.821-16.298-26.871-59.253-22.216-75.156
			c46.397-10.465,51.121-76.587,53.823-114.584c11.54,17.71,53.068,35.704,37.816,0.114c-13.132-30.642-26.271-61.283-39.404-91.924
			c-20.463-47.755-113.878,24.438-157.582,4.334c-30.265-13.928-52.959-11.888-83.228-25.811
			c-34.547-15.895-33.035,20.045-4.427,33.21c29.957,13.779,53.769,6.659,83.727,20.44c18.583,8.548,52.866-4.047,72.27-6.601
			c-20.605,22.816-39.769,48.626-50.922,77.52c-6.435,16.671,2.429,53.133-3.023,63.041c-10.811,19.664-48.106,63.663-44.516,86.757
			c-3.455,27.714,10.139,65.504,14.426,93.217c2.262,14.619-61.257,19.039-74.477,23.242c-58.206,18.519,7.294,50.47,44.151,40.589
			c19.726-5.287,40.531-12.898,57.706-24.206c25.231-16.623,2.894-20.307,0.736-34.049c-4.533-32.208-9.95-64.306-14.931-96.444
			c-2.533-16.407,28.358-54.028,36.639-69.085c12.747,9.395,40.544,11.489,44.844,26.033c5.856,19.806,11.709,39.612,17.569,59.417
			c8.269,27.985,7.861,54.222,8.834,83.556c1.584,47.642-2.307,79.011,51.648,101.292c13.743,5.679,58.811,17.062,64.645-6.265
			C498.625,857.691,458.972,840.201,442.62,833.201C429.642,827.637,455.604,838.761,442.62,833.201z"/>
		<path d="M196.673,399.475c-0.413,7.195,2.314,39.485-4.875,39.071c-7.193-0.405-21.584-33.358-21.173-40.551
			c0.408-7.191,7.593-30.588,14.773-30.102C206.545,369.326,197.077,392.287,196.673,399.475z"/>
		<path d="M401.002,438.538c-1.059,7.128-1.313,39.532-8.441,38.458c-7.12-1.064-18.421-35.2-17.351-42.323
			c1.066-7.124,10.363-29.766,17.481-28.621C413.609,409.423,402.071,431.42,401.002,438.538z"/>
</g>
</svg>
