<?xml version="1.0" encoding="utf-8"?>
<!-- Generator: Adobe Illustrator 16.0.4, SVG Export Plug-In . SVG Version: 6.00 Build 0)  -->
<!DOCTYPE svg PUBLIC "-//W3C//DTD SVG 1.1//EN" "http://www.w3.org/Graphics/SVG/1.1/DTD/svg11.dtd">
<svg version="1.1" xmlns="http://www.w3.org/2000/svg" xmlns:xlink="http://www.w3.org/1999/xlink" x="0px" y="0px" width="640px"
	 height="900px" viewBox="0 0 640 900" enable-background="new 0 0 640 900" xml:space="preserve">
<g id="Worried">
	<g>
		<path d="M404.497,294.793c-5.655,44.853-46.601,76.629-91.468,70.968c-44.857-5.66-76.631-46.605-70.976-91.46
			c5.665-44.855,46.605-76.635,91.468-70.974C378.384,208.986,410.152,249.935,404.497,294.793z"/>
		<path d="M456.888,505.66c0.951-17.801-42.419-44.799-53.237-54.613c-21.259-19.292-31.468-41.867-51.105-61.181
			c-22.613-22.232-99.478,72.991-119.539,92.154c5.812-28.583,19.288-55.183,25.285-80.999c7.921,8.455,10.687-31.479,10.54-31.104
			c2.984-7.562,6.821-37.899,0.63-42.885c-17.133-0.147-33.342,18.293-48.492,24.878c-24.318,10.565-11.623,24.409-6.209,43.536
			c13.229,26.373-3.392,65.523-8.754,91.897c-16.517,81.23,42.718,14.793,72.289-13.459c-7.057,22.16-12.301,46.044-10.231,69.447
			c1.004,11.302,5.025,33.709,15.271,46.003c6.667,8,8.334,6.834,10.972,8.062c1.528,21.604-14.972,59.604-21.992,81.209
			c-16.745,59.14-75.723,96.314-67.771,162.762c6.604,55.211,53.45,23.91,56.516-15.281c1.804-23.084-4.79-57.618,5.589-77.277
			c20.964-39.694,56.189-103.423,52.499-148.944c6.855-0.614,13.105-0.364,18.316,3.657c4.289,22.479,6.129,62.733,8.906,85.718
			c3.372,27.909,10.572,55.07,16.698,82.496c7.976,35.733-4.046,42.759-30.952,71.309c-61.402,65.154,31.866,71.047,51.821,16.977
			c10.142-27.483,25.446-31.229,10.619-60.025c1.37-9.972-4.342-23.249-6.44-32.637c-6.859-30.732-14.064-60.782-17.84-92.007
			c-2.998-24.793-7.023-57.852-8.06-76.196c4.201-5.897,15.535-7.712,27.567-8.333c38.377-2.003,5.887,28.645-4.009,44.862
			c-24.024,39.368,29.955,14.932,29.061-3.827c0.582,12.145-27.218,31.068-18.7,44.882c14.773,23.981,36.26-40.827,37.695-45.166
			c0,0-10.378,37.567,2.732,33.773C463.271,637.145,454.717,547.054,456.888,505.66C457.09,501.846,456.888,505.66,456.888,505.66z
			 M389.478,472.487c8.896,8.069,42.175,29.335,41.564,41.054c-1.387,26.468,3.015,46.709-7.579,54.91
			c-5.07,3.926-13.577,2.009-27.8,2.49C404.763,547.993,397.681,502.883,389.478,472.487z"/>
	</g>
	<g>
		<path fill="#F1F1ED" d="M548.146,364.002c-22.823-6.886-48.094,6.035-50.235,12.25c-1.265,3.671,10.493,5.461,22.264,6.978
			c-2.15-1.985-3.273-4.989-2.667-8.073c0.928-4.717,5.504-7.791,10.227-6.862c4.719,0.929,7.797,5.509,6.869,10.222
			c-0.531,2.695-2.265,4.818-4.52,6.003c4.338,0.6,8.076,1.235,10.308,2.002c9.326,3.212,18.63,0.768,20.767-5.447
			C563.299,374.859,557.586,366.854,548.146,364.002z"/>
		<path fill="#F1F1ED" d="M596.31,373.575c-9.825-0.876-18.104,4.43-18.436,10.995c-0.28,5.541,5.205,10.449,12.836,12.153
			c-1.833-1.974-2.747-4.755-2.188-7.603c0.928-4.718,5.504-7.791,10.227-6.862c4.717,0.929,7.797,5.509,6.867,10.226
			c-0.511,2.611-2.163,4.68-4.313,5.889c13.291,2.918,36.785,10.813,37.059,5.277C638.689,397.084,620.055,375.683,596.31,373.575z"
			/>
	</g>
	<g>
		<path fill="#F1F1ED" d="M485.846,56.367c-3.596-12.312-14.746-19.881-24.896-16.911c-10.15,2.971-15.461,15.356-11.856,27.662
			c0.887,3.038,2.235,5.78,3.913,8.153c0.005-0.219-0.037-0.422-0.023-0.64c0.449-6.395,5.996-11.217,12.396-10.771
			c6.394,0.445,11.217,5.996,10.771,12.392c-0.237,3.381-1.923,6.296-4.382,8.251c0.74-0.109,1.487-0.256,2.222-0.468
			C484.14,81.064,489.456,68.682,485.846,56.367z"/>
		<path fill="#F1F1ED" d="M529.32,46.233c-10.123-4.437-22.698,1.909-28.09,14.188c-3.443,7.854-3.083,16.19,0.248,22.372
			c0.089-6.621,5.475-11.969,12.115-11.969c6.708,0,12.141,5.437,12.141,12.135c0,3.159-1.235,6.011-3.217,8.172
			c6.324-2.053,12.146-7.258,15.377-14.623C543.279,64.23,539.443,50.679,529.32,46.233z"/>
	</g>
	<g>
		<path fill="#F1F1ED" d="M122.816,156.992c0-6.125,4.969-11.089,11.093-11.089c3.407,0,6.414,1.563,8.446,3.979
			c4.88-6.102,8.351-11.15,8.351-11.15s-8.525-1.657-18.762-6.413c-10.237-4.751-23.357-7.135-31.799,0.635
			c-8.445,7.768-19.117,17.696-19.117,17.696c13.343,24.642,34.085,21.998,45.855,14.86
			C124.423,163.478,122.816,160.437,122.816,156.992z"/>
		<path fill="#F1F1ED" d="M45.208,171.544c0-6.125,4.969-11.089,11.094-11.089c3.989,0,7.46,2.121,9.417,5.286
			c1.553-3.278,2.832-7.058,3.685-11.5c0,0-13.168-6.244-23.57-11.095c-10.397-4.851-22.177,1.383-30.499,9.009
			c-8.323,7.627-15.95,11.786-15.95,11.786s12.481,9.705,24.267,15.943c6.276,3.326,17.061,5.017,26.725,1.005
			C47.277,178.923,45.208,175.484,45.208,171.544z"/>
	</g>
</g>
</svg>
